<?xml version="1.0" encoding="UTF-8" standalone="no"?><svg xmlns="http://www.w3.org/2000/svg" xmlns:xlink="http://www.w3.org/1999/xlink" clip-rule="evenodd" stroke-miterlimit="10" viewBox="0 0 1920 1080"><desc>SVG generated by Keynote</desc><defs></defs><g transform="matrix(1.00, 0.00, -0.00, -1.00, 0.0, 1080.0)"><path d="M 0.0 1080.0 L 1920.0 1080.0 L 1920.0 0.0 L 0.0 0.0 Z M 0.0 1080.0 " fill="#000000"></path><text xml:space="preserve" font-family="Avenir-Light,Avenir" font-size="62.0" fill="#FEFFFF" transform="matrix(1.00, 0.00, -0.00, -1.00, 102.0, 945.7)">F</text><text xml:space="preserve" font-family="Avenir-Light,Avenir" font-size="62.0" fill="#FEFFFF" transform="matrix(1.00, 0.00, -0.00, -1.00, 146.4, 945.7)">E</text><text xml:space="preserve" font-family="Avenir-Light,Avenir" font-size="62.0" fill="#FEFFFF" transform="matrix(1.00, 0.00, -0.00, -1.00, 193.1, 945.7)">A</text><text xml:space="preserve" font-family="Avenir-Light,Avenir" font-size="62.0" fill="#FEFFFF" transform="matrix(1.00, 0.00, -0.00, -1.00, 241.3, 945.7)">T</text><text xml:space="preserve" font-family="Avenir-Light,Avenir" font-size="62.0" fill="#FEFFFF" transform="matrix(1.00, 0.00, -0.00, -1.00, 286.8, 945.7)">U</text><text xml:space="preserve" font-family="Avenir-Light,Avenir" font-size="62.0" fill="#FEFFFF" transform="matrix(1.00, 0.00, -0.00, -1.00, 339.1, 945.7)">R</text><text xml:space="preserve" font-family="Avenir-Light,Avenir" font-size="62.0" fill="#FEFFFF" transform="matrix(1.00, 0.00, -0.00, -1.00, 385.8, 945.7)">E</text><text xml:space="preserve" font-family="Avenir-Light,Avenir" font-size="62.0" fill="#FEFFFF" transform="matrix(1.00, 0.00, -0.00, -1.00, 432.5, 945.7)">S</text><text xml:space="preserve" font-family="Avenir-Light,Avenir" font-size="62.0" fill="#FEFFFF" transform="matrix(1.00, 0.00, -0.00, -1.00, 476.9, 945.7)">:</text><text xml:space="preserve" font-family="Avenir-Light,Avenir" font-size="62.0" fill="#FEFFFF" transform="matrix(1.00, 0.00, -0.00, -1.00, 502.9, 945.7)"> </text><text xml:space="preserve" font-family="Avenir-Light,Avenir" font-size="62.0" fill="#FEFFFF" transform="matrix(1.00, 0.00, -0.00, -1.00, 528.9, 945.7)">S</text><text xml:space="preserve" font-family="Avenir-Light,Avenir" font-size="62.0" fill="#FEFFFF" transform="matrix(1.00, 0.00, -0.00, -1.00, 573.3, 945.7)">E</text><text xml:space="preserve" font-family="Avenir-Light,Avenir" font-size="62.0" fill="#FEFFFF" transform="matrix(1.00, 0.00, -0.00, -1.00, 620.0, 945.7)">S</text><text xml:space="preserve" font-family="Avenir-Light,Avenir" font-size="62.0" fill="#FEFFFF" transform="matrix(1.00, 0.00, -0.00, -1.00, 664.4, 945.7)">S</text><text xml:space="preserve" font-family="Avenir-Light,Avenir" font-size="62.0" fill="#FEFFFF" transform="matrix(1.00, 0.00, -0.00, -1.00, 708.8, 945.7)">I</text><text xml:space="preserve" font-family="Avenir-Light,Avenir" font-size="62.0" fill="#FEFFFF" transform="matrix(1.00, 0.00, -0.00, -1.00, 734.8, 945.7)">O</text><text xml:space="preserve" font-family="Avenir-Light,Avenir" font-size="62.0" fill="#FEFFFF" transform="matrix(1.00, 0.00, -0.00, -1.00, 796.5, 945.7)">N</text><text xml:space="preserve" font-family="Avenir-Light,Avenir" font-size="62.0" fill="#FEFFFF" transform="matrix(1.00, 0.00, -0.00, -1.00, 854.6, 945.7)">S</text><text xml:space="preserve" font-family="Avenir-Light,Avenir" font-size="37.8" fill="#646363" transform="matrix(1.00, 0.00, -0.00, -1.00, 102.0, 722.9)">•</text><text xml:space="preserve" font-family="Avenir-Light,Avenir" font-size="42.0" fill="#FEFFFF" transform="matrix(1.00, 0.00, -0.00, -1.00, 145.0, 722.0)">S</text><text xml:space="preserve" font-family="Avenir-Light,Avenir" font-size="42.0" fill="#FEFFFF" transform="matrix(1.00, 0.00, -0.00, -1.00, 168.4, 722.0)">e</text><text xml:space="preserve" font-family="Avenir-Light,Avenir" font-size="42.0" fill="#FEFFFF" transform="matrix(1.00, 0.00, -0.00, -1.00, 191.7, 722.0)">s</text><text xml:space="preserve" font-family="Avenir-Light,Avenir" font-size="42.0" fill="#FEFFFF" transform="matrix(1.00, 0.00, -0.00, -1.00, 209.6, 722.0)">s</text><text xml:space="preserve" font-family="Avenir-Light,Avenir" font-size="42.0" fill="#FEFFFF" transform="matrix(1.00, 0.00, -0.00, -1.00, 227.5, 722.0)">i</text><text xml:space="preserve" font-family="Avenir-Light,Avenir" font-size="42.0" fill="#FEFFFF" transform="matrix(1.00, 0.00, -0.00, -1.00, 237.6, 722.0)">o</text><text xml:space="preserve" font-family="Avenir-Light,Avenir" font-size="42.0" fill="#FEFFFF" transform="matrix(1.00, 0.00, -0.00, -1.00, 262.5, 722.0)">n</text><text xml:space="preserve" font-family="Avenir-Light,Avenir" font-size="42.0" fill="#FEFFFF" transform="matrix(1.00, 0.00, -0.00, -1.00, 285.9, 722.0)">s</text><text xml:space="preserve" font-family="Avenir-Light,Avenir" font-size="42.0" fill="#FEFFFF" transform="matrix(1.00, 0.00, -0.00, -1.00, 303.8, 722.0)"> </text><text xml:space="preserve" font-family="Avenir-Light,Avenir" font-size="42.0" fill="#FEFFFF" transform="matrix(1.00, 0.00, -0.00, -1.00, 314.7, 722.0)">c</text><text xml:space="preserve" font-family="Avenir-Light,Avenir" font-size="42.0" fill="#FEFFFF" transform="matrix(1.00, 0.00, -0.00, -1.00, 334.9, 722.0)">a</text><text xml:space="preserve" font-family="Avenir-Light,Avenir" font-size="42.0" fill="#FEFFFF" transform="matrix(1.00, 0.00, -0.00, -1.00, 356.7, 722.0)">n</text><text xml:space="preserve" font-family="Avenir-Light,Avenir" font-size="42.0" fill="#FEFFFF" transform="matrix(1.00, 0.00, -0.00, -1.00, 380.0, 722.0)"> </text><text xml:space="preserve" font-family="Avenir-Light,Avenir" font-size="42.0" fill="#FEFFFF" transform="matrix(1.00, 0.00, -0.00, -1.00, 391.0, 722.0)">b</text><text xml:space="preserve" font-family="Avenir-Light,Avenir" font-size="42.0" fill="#FEFFFF" transform="matrix(1.00, 0.00, -0.00, -1.00, 416.6, 722.0)">e</text><text xml:space="preserve" font-family="Avenir-Light,Avenir" font-size="42.0" fill="#FEFFFF" transform="matrix(1.00, 0.00, -0.00, -1.00, 440.0, 722.0)"> </text><text xml:space="preserve" font-family="Avenir-Light,Avenir" font-size="42.0" fill="#FEFFFF" transform="matrix(1.00, 0.00, -0.00, -1.00, 450.9, 722.0)">t</text><text xml:space="preserve" font-family="Avenir-Light,Avenir" font-size="42.0" fill="#FEFFFF" transform="matrix(1.00, 0.00, -0.00, -1.00, 464.9, 722.0)">r</text><text xml:space="preserve" font-family="Avenir-Light,Avenir" font-size="42.0" fill="#FEFFFF" transform="matrix(1.00, 0.00, -0.00, -1.00, 478.9, 722.0)">a</text><text xml:space="preserve" font-family="Avenir-Light,Avenir" font-size="42.0" fill="#FEFFFF" transform="matrix(1.00, 0.00, -0.00, -1.00, 500.7, 722.0)">n</text><text xml:space="preserve" font-family="Avenir-Light,Avenir" font-size="42.0" fill="#FEFFFF" transform="matrix(1.00, 0.00, -0.00, -1.00, 524.0, 722.0)">s</text><text xml:space="preserve" font-family="Avenir-Light,Avenir" font-size="42.0" fill="#FEFFFF" transform="matrix(1.00, 0.00, -0.00, -1.00, 541.9, 722.0)">f</text><text xml:space="preserve" font-family="Avenir-Light,Avenir" font-size="42.0" fill="#FEFFFF" transform="matrix(1.00, 0.00, -0.00, -1.00, 554.3, 722.0)">e</text><text xml:space="preserve" font-family="Avenir-Light,Avenir" font-size="42.0" fill="#FEFFFF" transform="matrix(1.00, 0.00, -0.00, -1.00, 577.7, 722.0)">r</text><text xml:space="preserve" font-family="Avenir-Light,Avenir" font-size="42.0" fill="#FEFFFF" transform="matrix(1.00, 0.00, -0.00, -1.00, 591.7, 722.0)">r</text><text xml:space="preserve" font-family="Avenir-Light,Avenir" font-size="42.0" fill="#FEFFFF" transform="matrix(1.00, 0.00, -0.00, -1.00, 604.9, 722.0)">e</text><text xml:space="preserve" font-family="Avenir-Light,Avenir" font-size="42.0" fill="#FEFFFF" transform="matrix(1.00, 0.00, -0.00, -1.00, 628.3, 722.0)">d</text><text xml:space="preserve" font-family="LucidaGrande,Lucida Grande" font-size="42.0" fill="#FEFFFF" transform="matrix(1.00, 0.00, -0.00, -1.00, 653.9, 722.0)"> </text><text xml:space="preserve" font-family="Avenir-Light,Avenir" font-size="42.0" fill="#FEFFFF" transform="matrix(1.00, 0.00, -0.00, -1.00, 145.0, 665.0)">b</text><text xml:space="preserve" font-family="Avenir-Light,Avenir" font-size="42.0" fill="#FEFFFF" transform="matrix(1.00, 0.00, -0.00, -1.00, 170.7, 665.0)">e</text><text xml:space="preserve" font-family="Avenir-Light,Avenir" font-size="42.0" fill="#FEFFFF" transform="matrix(1.00, 0.00, -0.00, -1.00, 194.0, 665.0)">t</text><text xml:space="preserve" font-family="Avenir-Light,Avenir" font-size="42.0" fill="#FEFFFF" transform="matrix(1.00, 0.00, -0.00, -1.00, 208.0, 665.0)">w</text><text xml:space="preserve" font-family="Avenir-Light,Avenir" font-size="42.0" fill="#FEFFFF" transform="matrix(1.00, 0.00, -0.00, -1.00, 237.6, 665.0)">e</text><text xml:space="preserve" font-family="Avenir-Light,Avenir" font-size="42.0" fill="#FEFFFF" transform="matrix(1.00, 0.00, -0.00, -1.00, 260.9, 665.0)">e</text><text xml:space="preserve" font-family="Avenir-Light,Avenir" font-size="42.0" fill="#FEFFFF" transform="matrix(1.00, 0.00, -0.00, -1.00, 284.3, 665.0)">n</text><text xml:space="preserve" font-family="Avenir-Light,Avenir" font-size="42.0" fill="#FEFFFF" transform="matrix(1.00, 0.00, -0.00, -1.00, 307.6, 665.0)"> </text><text xml:space="preserve" font-family="Avenir-Light,Avenir" font-size="42.0" fill="#FEFFFF" transform="matrix(1.00, 0.00, -0.00, -1.00, 318.5, 665.0)">d</text><text xml:space="preserve" font-family="Avenir-Light,Avenir" font-size="42.0" fill="#FEFFFF" transform="matrix(1.00, 0.00, -0.00, -1.00, 344.2, 665.0)">e</text><text xml:space="preserve" font-family="Avenir-Light,Avenir" font-size="42.0" fill="#FEFFFF" transform="matrix(1.00, 0.00, -0.00, -1.00, 367.6, 665.0)">s</text><text xml:space="preserve" font-family="Avenir-Light,Avenir" font-size="42.0" fill="#FEFFFF" transform="matrix(1.00, 0.00, -0.00, -1.00, 385.4, 665.0)">k</text><text xml:space="preserve" font-family="Avenir-Light,Avenir" font-size="42.0" fill="#FEFFFF" transform="matrix(1.00, 0.00, -0.00, -1.00, 405.7, 665.0)">t</text><text xml:space="preserve" font-family="Avenir-Light,Avenir" font-size="42.0" fill="#FEFFFF" transform="matrix(1.00, 0.00, -0.00, -1.00, 419.6, 665.0)">o</text><text xml:space="preserve" font-family="Avenir-Light,Avenir" font-size="42.0" fill="#FEFFFF" transform="matrix(1.00, 0.00, -0.00, -1.00, 444.6, 665.0)">p</text><text xml:space="preserve" font-family="Avenir-Light,Avenir" font-size="42.0" fill="#FEFFFF" transform="matrix(1.00, 0.00, -0.00, -1.00, 470.2, 665.0)"> </text><text xml:space="preserve" font-family="Avenir-Light,Avenir" font-size="42.0" fill="#FEFFFF" transform="matrix(1.00, 0.00, -0.00, -1.00, 481.2, 665.0)">a</text><text xml:space="preserve" font-family="Avenir-Light,Avenir" font-size="42.0" fill="#FEFFFF" transform="matrix(1.00, 0.00, -0.00, -1.00, 503.0, 665.0)">n</text><text xml:space="preserve" font-family="Avenir-Light,Avenir" font-size="42.0" fill="#FEFFFF" transform="matrix(1.00, 0.00, -0.00, -1.00, 526.3, 665.0)">d</text><text xml:space="preserve" font-family="Avenir-Light,Avenir" font-size="42.0" fill="#FEFFFF" transform="matrix(1.00, 0.00, -0.00, -1.00, 552.0, 665.0)"> </text><text xml:space="preserve" font-family="Avenir-Light,Avenir" font-size="42.0" fill="#FEFFFF" transform="matrix(1.00, 0.00, -0.00, -1.00, 562.9, 665.0)">i</text><text xml:space="preserve" font-family="Avenir-Light,Avenir" font-size="42.0" fill="#FEFFFF" transform="matrix(1.00, 0.00, -0.00, -1.00, 573.0, 665.0)">P</text><text xml:space="preserve" font-family="Avenir-Light,Avenir" font-size="42.0" fill="#FEFFFF" transform="matrix(1.00, 0.00, -0.00, -1.00, 597.1, 665.0)">a</text><text xml:space="preserve" font-family="Avenir-Light,Avenir" font-size="42.0" fill="#FEFFFF" transform="matrix(1.00, 0.00, -0.00, -1.00, 618.9, 665.0)">d</text><text xml:space="preserve" font-family="Avenir-Light,Avenir" font-size="42.0" fill="#FEFFFF" transform="matrix(1.00, 0.00, -0.00, -1.00, 644.5, 665.0)"> </text><text xml:space="preserve" font-family="Avenir-Light,Avenir" font-size="42.0" fill="#FEFFFF" transform="matrix(1.00, 0.00, -0.00, -1.00, 145.0, 608.0)">a</text><text xml:space="preserve" font-family="Avenir-Light,Avenir" font-size="42.0" fill="#FEFFFF" transform="matrix(1.00, 0.00, -0.00, -1.00, 166.8, 608.0)">u</text><text xml:space="preserve" font-family="Avenir-Light,Avenir" font-size="42.0" fill="#FEFFFF" transform="matrix(1.00, 0.00, -0.00, -1.00, 190.2, 608.0)">t</text><text xml:space="preserve" font-family="Avenir-Light,Avenir" font-size="42.0" fill="#FEFFFF" transform="matrix(1.00, 0.00, -0.00, -1.00, 204.1, 608.0)">o</text><text xml:space="preserve" font-family="Avenir-Light,Avenir" font-size="42.0" fill="#FEFFFF" transform="matrix(1.00, 0.00, -0.00, -1.00, 229.1, 608.0)">m</text><text xml:space="preserve" font-family="Avenir-Light,Avenir" font-size="42.0" fill="#FEFFFF" transform="matrix(1.00, 0.00, -0.00, -1.00, 264.9, 608.0)">a</text><text xml:space="preserve" font-family="Avenir-Light,Avenir" font-size="42.0" fill="#FEFFFF" transform="matrix(1.00, 0.00, -0.00, -1.00, 286.7, 608.0)">t</text><text xml:space="preserve" font-family="Avenir-Light,Avenir" font-size="42.0" fill="#FEFFFF" transform="matrix(1.00, 0.00, -0.00, -1.00, 300.7, 608.0)">i</text><text xml:space="preserve" font-family="Avenir-Light,Avenir" font-size="42.0" fill="#FEFFFF" transform="matrix(1.00, 0.00, -0.00, -1.00, 310.8, 608.0)">c</text><text xml:space="preserve" font-family="Avenir-Light,Avenir" font-size="42.0" fill="#FEFFFF" transform="matrix(1.00, 0.00, -0.00, -1.00, 331.0, 608.0)">a</text><text xml:space="preserve" font-family="Avenir-Light,Avenir" font-size="42.0" fill="#FEFFFF" transform="matrix(1.00, 0.00, -0.00, -1.00, 352.8, 608.0)">l</text><text xml:space="preserve" font-family="Avenir-Light,Avenir" font-size="42.0" fill="#FEFFFF" transform="matrix(1.00, 0.00, -0.00, -1.00, 362.9, 608.0)">l</text><text xml:space="preserve" font-family="Avenir-Light,Avenir" font-size="42.0" fill="#FEFFFF" transform="matrix(1.00, 0.00, -0.00, -1.00, 373.0, 608.0)">y</text><text xml:space="preserve" font-family="Avenir-Light,Avenir" font-size="42.0" fill="#FEFFFF" transform="matrix(1.00, 0.00, -0.00, -1.00, 392.4, 608.0)"> </text><text xml:space="preserve" font-family="Avenir-Light,Avenir" font-size="42.0" fill="#FEFFFF" transform="matrix(1.00, 0.00, -0.00, -1.00, 403.3, 608.0)">b</text><text xml:space="preserve" font-family="Avenir-Light,Avenir" font-size="42.0" fill="#FEFFFF" transform="matrix(1.00, 0.00, -0.00, -1.00, 429.0, 608.0)">y</text><text xml:space="preserve" font-family="Avenir-Light,Avenir" font-size="42.0" fill="#FEFFFF" transform="matrix(1.00, 0.00, -0.00, -1.00, 448.5, 608.0)"> </text><text xml:space="preserve" font-family="Avenir-Light,Avenir" font-size="42.0" fill="#FEFFFF" transform="matrix(1.00, 0.00, -0.00, -1.00, 459.4, 608.0)">s</text><text xml:space="preserve" font-family="Avenir-Light,Avenir" font-size="42.0" fill="#FEFFFF" transform="matrix(1.00, 0.00, -0.00, -1.00, 477.3, 608.0)">i</text><text xml:space="preserve" font-family="Avenir-Light,Avenir" font-size="42.0" fill="#FEFFFF" transform="matrix(1.00, 0.00, -0.00, -1.00, 487.3, 608.0)">g</text><text xml:space="preserve" font-family="Avenir-Light,Avenir" font-size="42.0" fill="#FEFFFF" transform="matrix(1.00, 0.00, -0.00, -1.00, 513.0, 608.0)">n</text><text xml:space="preserve" font-family="Avenir-Light,Avenir" font-size="42.0" fill="#FEFFFF" transform="matrix(1.00, 0.00, -0.00, -1.00, 536.4, 608.0)">i</text><text xml:space="preserve" font-family="Avenir-Light,Avenir" font-size="42.0" fill="#FEFFFF" transform="matrix(1.00, 0.00, -0.00, -1.00, 546.4, 608.0)">n</text><text xml:space="preserve" font-family="Avenir-Light,Avenir" font-size="42.0" fill="#FEFFFF" transform="matrix(1.00, 0.00, -0.00, -1.00, 569.8, 608.0)">g</text><text xml:space="preserve" font-family="Avenir-Light,Avenir" font-size="42.0" fill="#FEFFFF" transform="matrix(1.00, 0.00, -0.00, -1.00, 595.4, 608.0)"> </text><text xml:space="preserve" font-family="Avenir-Light,Avenir" font-size="42.0" fill="#FEFFFF" transform="matrix(1.00, 0.00, -0.00, -1.00, 606.4, 608.0)">i</text><text xml:space="preserve" font-family="Avenir-Light,Avenir" font-size="42.0" fill="#FEFFFF" transform="matrix(1.00, 0.00, -0.00, -1.00, 616.4, 608.0)">n</text><text xml:space="preserve" font-family="Avenir-Light,Avenir" font-size="42.0" fill="#FEFFFF" transform="matrix(1.00, 0.00, -0.00, -1.00, 639.8, 608.0)"> </text><text xml:space="preserve" font-family="Avenir-Light,Avenir" font-size="37.8" fill="#646363" transform="matrix(1.00, 0.00, -0.00, -1.00, 145.0, 506.9)">•</text><text xml:space="preserve" font-family="Avenir-Light,Avenir" font-size="42.0" fill="#FEFFFF" transform="matrix(1.00, 0.00, -0.00, -1.00, 188.0, 506.0)">S</text><text xml:space="preserve" font-family="Avenir-Light,Avenir" font-size="42.0" fill="#FEFFFF" transform="matrix(1.00, 0.00, -0.00, -1.00, 211.4, 506.0)">t</text><text xml:space="preserve" font-family="Avenir-Light,Avenir" font-size="42.0" fill="#FEFFFF" transform="matrix(1.00, 0.00, -0.00, -1.00, 225.3, 506.0)">a</text><text xml:space="preserve" font-family="Avenir-Light,Avenir" font-size="42.0" fill="#FEFFFF" transform="matrix(1.00, 0.00, -0.00, -1.00, 247.1, 506.0)">r</text><text xml:space="preserve" font-family="Avenir-Light,Avenir" font-size="42.0" fill="#FEFFFF" transform="matrix(1.00, 0.00, -0.00, -1.00, 261.1, 506.0)">t</text><text xml:space="preserve" font-family="Avenir-Light,Avenir" font-size="42.0" fill="#FEFFFF" transform="matrix(1.00, 0.00, -0.00, -1.00, 275.1, 506.0)"> </text><text xml:space="preserve" font-family="Avenir-Light,Avenir" font-size="42.0" fill="#FEFFFF" transform="matrix(1.00, 0.00, -0.00, -1.00, 286.0, 506.0)">w</text><text xml:space="preserve" font-family="Avenir-Light,Avenir" font-size="42.0" fill="#FEFFFF" transform="matrix(1.00, 0.00, -0.00, -1.00, 315.6, 506.0)">o</text><text xml:space="preserve" font-family="Avenir-Light,Avenir" font-size="42.0" fill="#FEFFFF" transform="matrix(1.00, 0.00, -0.00, -1.00, 340.5, 506.0)">r</text><text xml:space="preserve" font-family="Avenir-Light,Avenir" font-size="42.0" fill="#FEFFFF" transform="matrix(1.00, 0.00, -0.00, -1.00, 354.5, 506.0)">k</text><text xml:space="preserve" font-family="Avenir-Light,Avenir" font-size="42.0" fill="#FEFFFF" transform="matrix(1.00, 0.00, -0.00, -1.00, 374.7, 506.0)"> </text><text xml:space="preserve" font-family="Avenir-Light,Avenir" font-size="42.0" fill="#FEFFFF" transform="matrix(1.00, 0.00, -0.00, -1.00, 385.7, 506.0)">o</text><text xml:space="preserve" font-family="Avenir-Light,Avenir" font-size="42.0" fill="#FEFFFF" transform="matrix(1.00, 0.00, -0.00, -1.00, 410.6, 506.0)">n</text><text xml:space="preserve" font-family="Avenir-Light,Avenir" font-size="42.0" fill="#FEFFFF" transform="matrix(1.00, 0.00, -0.00, -1.00, 434.0, 506.0)"> </text><text xml:space="preserve" font-family="Avenir-Light,Avenir" font-size="42.0" fill="#FEFFFF" transform="matrix(1.00, 0.00, -0.00, -1.00, 444.9, 506.0)">a</text><text xml:space="preserve" font-family="Avenir-Light,Avenir" font-size="42.0" fill="#FEFFFF" transform="matrix(1.00, 0.00, -0.00, -1.00, 466.7, 506.0)"> </text><text xml:space="preserve" font-family="Avenir-Light,Avenir" font-size="42.0" fill="#FEFFFF" transform="matrix(1.00, 0.00, -0.00, -1.00, 477.6, 506.0)">c</text><text xml:space="preserve" font-family="Avenir-Light,Avenir" font-size="42.0" fill="#FEFFFF" transform="matrix(1.00, 0.00, -0.00, -1.00, 497.8, 506.0)">o</text><text xml:space="preserve" font-family="Avenir-Light,Avenir" font-size="42.0" fill="#FEFFFF" transform="matrix(1.00, 0.00, -0.00, -1.00, 522.7, 506.0)">m</text><text xml:space="preserve" font-family="Avenir-Light,Avenir" font-size="42.0" fill="#FEFFFF" transform="matrix(1.00, 0.00, -0.00, -1.00, 558.5, 506.0)">p</text><text xml:space="preserve" font-family="Avenir-Light,Avenir" font-size="42.0" fill="#FEFFFF" transform="matrix(1.00, 0.00, -0.00, -1.00, 584.2, 506.0)">u</text><text xml:space="preserve" font-family="Avenir-Light,Avenir" font-size="42.0" fill="#FEFFFF" transform="matrix(1.00, 0.00, -0.00, -1.00, 607.5, 506.0)">t</text><text xml:space="preserve" font-family="Avenir-Light,Avenir" font-size="42.0" fill="#FEFFFF" transform="matrix(1.00, 0.00, -0.00, -1.00, 621.5, 506.0)">e</text><text xml:space="preserve" font-family="Avenir-Light,Avenir" font-size="42.0" fill="#FEFFFF" transform="matrix(1.00, 0.00, -0.00, -1.00, 644.9, 506.0)">r</text><text xml:space="preserve" font-family="LucidaGrande,Lucida Grande" font-size="42.0" fill="#FEFFFF" transform="matrix(1.00, 0.00, -0.00, -1.00, 658.9, 506.0)"> </text><text xml:space="preserve" font-family="Avenir-Light,Avenir" font-size="42.0" fill="#FEFFFF" transform="matrix(1.00, 0.00, -0.00, -1.00, 188.0, 449.0)">t</text><text xml:space="preserve" font-family="Avenir-Light,Avenir" font-size="42.0" fill="#FEFFFF" transform="matrix(1.00, 0.00, -0.00, -1.00, 202.0, 449.0)">h</text><text xml:space="preserve" font-family="Avenir-Light,Avenir" font-size="42.0" fill="#FEFFFF" transform="matrix(1.00, 0.00, -0.00, -1.00, 225.4, 449.0)">e</text><text xml:space="preserve" font-family="Avenir-Light,Avenir" font-size="42.0" fill="#FEFFFF" transform="matrix(1.00, 0.00, -0.00, -1.00, 248.7, 449.0)">n</text><text xml:space="preserve" font-family="Avenir-Light,Avenir" font-size="42.0" fill="#FEFFFF" transform="matrix(1.00, 0.00, -0.00, -1.00, 272.1, 449.0)"> </text><text xml:space="preserve" font-family="Avenir-Light,Avenir" font-size="42.0" fill="#FEFFFF" transform="matrix(1.00, 0.00, -0.00, -1.00, 283.0, 449.0)">l</text><text xml:space="preserve" font-family="Avenir-Light,Avenir" font-size="42.0" fill="#FEFFFF" transform="matrix(1.00, 0.00, -0.00, -1.00, 293.1, 449.0)">o</text><text xml:space="preserve" font-family="Avenir-Light,Avenir" font-size="42.0" fill="#FEFFFF" transform="matrix(1.00, 0.00, -0.00, -1.00, 318.0, 449.0)">g</text><text xml:space="preserve" font-family="Avenir-Light,Avenir" font-size="42.0" fill="#FEFFFF" transform="matrix(1.00, 0.00, -0.00, -1.00, 343.7, 449.0)"> </text><text xml:space="preserve" font-family="Avenir-Light,Avenir" font-size="42.0" fill="#FEFFFF" transform="matrix(1.00, 0.00, -0.00, -1.00, 354.6, 449.0)">i</text><text xml:space="preserve" font-family="Avenir-Light,Avenir" font-size="42.0" fill="#FEFFFF" transform="matrix(1.00, 0.00, -0.00, -1.00, 364.7, 449.0)">n</text><text xml:space="preserve" font-family="Avenir-Light,Avenir" font-size="42.0" fill="#FEFFFF" transform="matrix(1.00, 0.00, -0.00, -1.00, 388.0, 449.0)"> </text><text xml:space="preserve" font-family="Avenir-Light,Avenir" font-size="42.0" fill="#FEFFFF" transform="matrix(1.00, 0.00, -0.00, -1.00, 399.0, 449.0)">o</text><text xml:space="preserve" font-family="Avenir-Light,Avenir" font-size="42.0" fill="#FEFFFF" transform="matrix(1.00, 0.00, -0.00, -1.00, 423.9, 449.0)">n</text><text xml:space="preserve" font-family="Avenir-Light,Avenir" font-size="42.0" fill="#FEFFFF" transform="matrix(1.00, 0.00, -0.00, -1.00, 447.3, 449.0)"> </text><text xml:space="preserve" font-family="Avenir-Light,Avenir" font-size="42.0" fill="#FEFFFF" transform="matrix(1.00, 0.00, -0.00, -1.00, 458.2, 449.0)">a</text><text xml:space="preserve" font-family="Avenir-Light,Avenir" font-size="42.0" fill="#FEFFFF" transform="matrix(1.00, 0.00, -0.00, -1.00, 480.0, 449.0)">n</text><text xml:space="preserve" font-family="Avenir-Light,Avenir" font-size="42.0" fill="#FEFFFF" transform="matrix(1.00, 0.00, -0.00, -1.00, 503.3, 449.0)"> </text><text xml:space="preserve" font-family="Avenir-Light,Avenir" font-size="42.0" fill="#FEFFFF" transform="matrix(1.00, 0.00, -0.00, -1.00, 514.3, 449.0)">i</text><text xml:space="preserve" font-family="Avenir-Light,Avenir" font-size="42.0" fill="#FEFFFF" transform="matrix(1.00, 0.00, -0.00, -1.00, 524.3, 449.0)">P</text><text xml:space="preserve" font-family="Avenir-Light,Avenir" font-size="42.0" fill="#FEFFFF" transform="matrix(1.00, 0.00, -0.00, -1.00, 548.4, 449.0)">a</text><text xml:space="preserve" font-family="Avenir-Light,Avenir" font-size="42.0" fill="#FEFFFF" transform="matrix(1.00, 0.00, -0.00, -1.00, 570.2, 449.0)">d</text><text xml:space="preserve" font-family="Avenir-Light,Avenir" font-size="42.0" fill="#FEFFFF" transform="matrix(1.00, 0.00, -0.00, -1.00, 595.9, 449.0)"> </text><text xml:space="preserve" font-family="Avenir-Light,Avenir" font-size="42.0" fill="#FEFFFF" transform="matrix(1.00, 0.00, -0.00, -1.00, 606.8, 449.0)">a</text><text xml:space="preserve" font-family="Avenir-Light,Avenir" font-size="42.0" fill="#FEFFFF" transform="matrix(1.00, 0.00, -0.00, -1.00, 628.6, 449.0)">n</text><text xml:space="preserve" font-family="Avenir-Light,Avenir" font-size="42.0" fill="#FEFFFF" transform="matrix(1.00, 0.00, -0.00, -1.00, 652.0, 449.0)">d</text><text xml:space="preserve" font-family="Avenir-Light,Avenir" font-size="42.0" fill="#FEFFFF" transform="matrix(1.00, 0.00, -0.00, -1.00, 677.6, 449.0)"> </text><text xml:space="preserve" font-family="Avenir-Light,Avenir" font-size="42.0" fill="#FEFFFF" transform="matrix(1.00, 0.00, -0.00, -1.00, 688.6, 449.0)">y</text><text xml:space="preserve" font-family="Avenir-Light,Avenir" font-size="42.0" fill="#FEFFFF" transform="matrix(1.00, 0.00, -0.00, -1.00, 708.0, 449.0)">o</text><text xml:space="preserve" font-family="Avenir-Light,Avenir" font-size="42.0" fill="#FEFFFF" transform="matrix(1.00, 0.00, -0.00, -1.00, 732.9, 449.0)">u</text><text xml:space="preserve" font-family="Avenir-Light,Avenir" font-size="42.0" fill="#FEFFFF" transform="matrix(1.00, 0.00, -0.00, -1.00, 756.3, 449.0)">r</text><text xml:space="preserve" font-family="Avenir-Light,Avenir" font-size="42.0" fill="#FEFFFF" transform="matrix(1.00, 0.00, -0.00, -1.00, 770.3, 449.0)"> </text><text xml:space="preserve" font-family="Avenir-Light,Avenir" font-size="42.0" fill="#FEFFFF" transform="matrix(1.00, 0.00, -0.00, -1.00, 188.0, 392.0)">s</text><text xml:space="preserve" font-family="Avenir-Light,Avenir" font-size="42.0" fill="#FEFFFF" transform="matrix(1.00, 0.00, -0.00, -1.00, 205.9, 392.0)">e</text><text xml:space="preserve" font-family="Avenir-Light,Avenir" font-size="42.0" fill="#FEFFFF" transform="matrix(1.00, 0.00, -0.00, -1.00, 229.2, 392.0)">s</text><text xml:space="preserve" font-family="Avenir-Light,Avenir" font-size="42.0" fill="#FEFFFF" transform="matrix(1.00, 0.00, -0.00, -1.00, 247.1, 392.0)">s</text><text xml:space="preserve" font-family="Avenir-Light,Avenir" font-size="42.0" fill="#FEFFFF" transform="matrix(1.00, 0.00, -0.00, -1.00, 265.0, 392.0)">i</text><text xml:space="preserve" font-family="Avenir-Light,Avenir" font-size="42.0" fill="#FEFFFF" transform="matrix(1.00, 0.00, -0.00, -1.00, 275.1, 392.0)">o</text><text xml:space="preserve" font-family="Avenir-Light,Avenir" font-size="42.0" fill="#FEFFFF" transform="matrix(1.00, 0.00, -0.00, -1.00, 300.1, 392.0)">n</text><text xml:space="preserve" font-family="Avenir-Light,Avenir" font-size="42.0" fill="#FEFFFF" transform="matrix(1.00, 0.00, -0.00, -1.00, 323.4, 392.0)"> </text><text xml:space="preserve" font-family="Avenir-Light,Avenir" font-size="42.0" fill="#FEFFFF" transform="matrix(1.00, 0.00, -0.00, -1.00, 334.3, 392.0)">w</text><text xml:space="preserve" font-family="Avenir-Light,Avenir" font-size="42.0" fill="#FEFFFF" transform="matrix(1.00, 0.00, -0.00, -1.00, 363.9, 392.0)">i</text><text xml:space="preserve" font-family="Avenir-Light,Avenir" font-size="42.0" fill="#FEFFFF" transform="matrix(1.00, 0.00, -0.00, -1.00, 374.0, 392.0)">l</text><text xml:space="preserve" font-family="Avenir-Light,Avenir" font-size="42.0" fill="#FEFFFF" transform="matrix(1.00, 0.00, -0.00, -1.00, 384.1, 392.0)">l</text><text xml:space="preserve" font-family="Avenir-Light,Avenir" font-size="42.0" fill="#FEFFFF" transform="matrix(1.00, 0.00, -0.00, -1.00, 394.2, 392.0)"> </text><text xml:space="preserve" font-family="Avenir-Light,Avenir" font-size="42.0" fill="#FEFFFF" transform="matrix(1.00, 0.00, -0.00, -1.00, 405.1, 392.0)">m</text><text xml:space="preserve" font-family="Avenir-Light,Avenir" font-size="42.0" fill="#FEFFFF" transform="matrix(1.00, 0.00, -0.00, -1.00, 440.9, 392.0)">o</text><text xml:space="preserve" font-family="Avenir-Light,Avenir" font-size="42.0" fill="#FEFFFF" transform="matrix(1.00, 0.00, -0.00, -1.00, 465.8, 392.0)">v</text><text xml:space="preserve" font-family="Avenir-Light,Avenir" font-size="42.0" fill="#FEFFFF" transform="matrix(1.00, 0.00, -0.00, -1.00, 485.3, 392.0)">e</text><text xml:space="preserve" font-family="Avenir-Light,Avenir" font-size="42.0" fill="#FEFFFF" transform="matrix(1.00, 0.00, -0.00, -1.00, 508.6, 392.0)"> </text><text xml:space="preserve" font-family="Avenir-Light,Avenir" font-size="42.0" fill="#FEFFFF" transform="matrix(1.00, 0.00, -0.00, -1.00, 519.5, 392.0)">o</text><text xml:space="preserve" font-family="Avenir-Light,Avenir" font-size="42.0" fill="#FEFFFF" transform="matrix(1.00, 0.00, -0.00, -1.00, 544.5, 392.0)">v</text><text xml:space="preserve" font-family="Avenir-Light,Avenir" font-size="42.0" fill="#FEFFFF" transform="matrix(1.00, 0.00, -0.00, -1.00, 563.9, 392.0)">e</text><text xml:space="preserve" font-family="Avenir-Light,Avenir" font-size="42.0" fill="#FEFFFF" transform="matrix(1.00, 0.00, -0.00, -1.00, 587.3, 392.0)">r</text><text xml:space="preserve" font-family="Avenir-Light,Avenir" font-size="42.0" fill="#FEFFFF" transform="matrix(1.00, 0.00, -0.00, -1.00, 601.3, 392.0)"> </text><text xml:space="preserve" font-family="Avenir-Light,Avenir" font-size="37.8" fill="#646363" transform="matrix(1.00, 0.00, -0.00, -1.00, 145.0, 290.9)">•</text><text xml:space="preserve" font-family="Avenir-Light,Avenir" font-size="42.0" fill="#FEFFFF" transform="matrix(1.00, 0.00, -0.00, -1.00, 188.0, 290.0)">W</text><text xml:space="preserve" font-family="Avenir-Light,Avenir" font-size="42.0" fill="#FEFFFF" transform="matrix(1.00, 0.00, -0.00, -1.00, 226.9, 290.0)">o</text><text xml:space="preserve" font-family="Avenir-Light,Avenir" font-size="42.0" fill="#FEFFFF" transform="matrix(1.00, 0.00, -0.00, -1.00, 251.8, 290.0)">r</text><text xml:space="preserve" font-family="Avenir-Light,Avenir" font-size="42.0" fill="#FEFFFF" transform="matrix(1.00, 0.00, -0.00, -1.00, 265.8, 290.0)">k</text><text xml:space="preserve" font-family="Avenir-Light,Avenir" font-size="42.0" fill="#FEFFFF" transform="matrix(1.00, 0.00, -0.00, -1.00, 286.0, 290.0)">s</text><text xml:space="preserve" font-family="Avenir-Light,Avenir" font-size="42.0" fill="#FEFFFF" transform="matrix(1.00, 0.00, -0.00, -1.00, 303.9, 290.0)"> </text><text xml:space="preserve" font-family="Avenir-Light,Avenir" font-size="42.0" fill="#FEFFFF" transform="matrix(1.00, 0.00, -0.00, -1.00, 314.8, 290.0)">v</text><text xml:space="preserve" font-family="Avenir-Light,Avenir" font-size="42.0" fill="#FEFFFF" transform="matrix(1.00, 0.00, -0.00, -1.00, 334.3, 290.0)">i</text><text xml:space="preserve" font-family="Avenir-Light,Avenir" font-size="42.0" fill="#FEFFFF" transform="matrix(1.00, 0.00, -0.00, -1.00, 344.4, 290.0)">c</text><text xml:space="preserve" font-family="Avenir-Light,Avenir" font-size="42.0" fill="#FEFFFF" transform="matrix(1.00, 0.00, -0.00, -1.00, 364.6, 290.0)">e</text><text xml:space="preserve" font-family="Avenir-Light,Avenir" font-size="42.0" fill="#FEFFFF" transform="matrix(1.00, 0.00, -0.00, -1.00, 387.9, 290.0)"> </text><text xml:space="preserve" font-family="Avenir-Light,Avenir" font-size="42.0" fill="#FEFFFF" transform="matrix(1.00, 0.00, -0.00, -1.00, 398.8, 290.0)">v</text><text xml:space="preserve" font-family="Avenir-Light,Avenir" font-size="42.0" fill="#FEFFFF" transform="matrix(1.00, 0.00, -0.00, -1.00, 418.3, 290.0)">e</text><text xml:space="preserve" font-family="Avenir-Light,Avenir" font-size="42.0" fill="#FEFFFF" transform="matrix(1.00, 0.00, -0.00, -1.00, 441.6, 290.0)">r</text><text xml:space="preserve" font-family="Avenir-Light,Avenir" font-size="42.0" fill="#FEFFFF" transform="matrix(1.00, 0.00, -0.00, -1.00, 455.6, 290.0)">s</text><text xml:space="preserve" font-family="Avenir-Light,Avenir" font-size="42.0" fill="#FEFFFF" transform="matrix(1.00, 0.00, -0.00, -1.00, 473.5, 290.0)">a</text><text xml:space="preserve" font-family="Avenir-Light,Avenir" font-size="42.0" fill="#FEFFFF" transform="matrix(1.00, 0.00, -0.00, -1.00, 495.3, 290.0)">,</text><text xml:space="preserve" font-family="Avenir-Light,Avenir" font-size="42.0" fill="#FEFFFF" transform="matrix(1.00, 0.00, -0.00, -1.00, 506.2, 290.0)"> </text><text xml:space="preserve" font-family="Avenir-Light,Avenir" font-size="42.0" fill="#FEFFFF" transform="matrix(1.00, 0.00, -0.00, -1.00, 517.2, 290.0)">a</text><text xml:space="preserve" font-family="Avenir-Light,Avenir" font-size="42.0" fill="#FEFFFF" transform="matrix(1.00, 0.00, -0.00, -1.00, 539.0, 290.0)">u</text><text xml:space="preserve" font-family="Avenir-Light,Avenir" font-size="42.0" fill="#FEFFFF" transform="matrix(1.00, 0.00, -0.00, -1.00, 562.3, 290.0)">t</text><text xml:space="preserve" font-family="Avenir-Light,Avenir" font-size="42.0" fill="#FEFFFF" transform="matrix(1.00, 0.00, -0.00, -1.00, 576.3, 290.0)">o</text><text xml:space="preserve" font-family="Avenir-Light,Avenir" font-size="42.0" fill="#FEFFFF" transform="matrix(1.00, 0.00, -0.00, -1.00, 601.2, 290.0)">m</text><text xml:space="preserve" font-family="Avenir-Light,Avenir" font-size="42.0" fill="#FEFFFF" transform="matrix(1.00, 0.00, -0.00, -1.00, 637.0, 290.0)">a</text><text xml:space="preserve" font-family="Avenir-Light,Avenir" font-size="42.0" fill="#FEFFFF" transform="matrix(1.00, 0.00, -0.00, -1.00, 658.8, 290.0)">t</text><text xml:space="preserve" font-family="Avenir-Light,Avenir" font-size="42.0" fill="#FEFFFF" transform="matrix(1.00, 0.00, -0.00, -1.00, 672.8, 290.0)">i</text><text xml:space="preserve" font-family="Avenir-Light,Avenir" font-size="42.0" fill="#FEFFFF" transform="matrix(1.00, 0.00, -0.00, -1.00, 682.9, 290.0)">c</text><text xml:space="preserve" font-family="Avenir-Light,Avenir" font-size="42.0" fill="#FEFFFF" transform="matrix(1.00, 0.00, -0.00, -1.00, 703.1, 290.0)">a</text><text xml:space="preserve" font-family="Avenir-Light,Avenir" font-size="42.0" fill="#FEFFFF" transform="matrix(1.00, 0.00, -0.00, -1.00, 724.9, 290.0)">l</text><text xml:space="preserve" font-family="Avenir-Light,Avenir" font-size="42.0" fill="#FEFFFF" transform="matrix(1.00, 0.00, -0.00, -1.00, 735.1, 290.0)">l</text><text xml:space="preserve" font-family="Avenir-Light,Avenir" font-size="42.0" fill="#FEFFFF" transform="matrix(1.00, 0.00, -0.00, -1.00, 745.1, 290.0)">y</text><g><clipPath id="clip0x6100006aa6e0"><path d="M 1072.0 538.0 L 1811.0 538.0 L 1811.0 169.0 L 1072.0 169.0 Z M 1072.2 538.0 "></path></clipPath><g clip-path="url(#clip0x6100006aa6e0)"><g><clipPath id="clip0x6100006a4e00"><path d="M 1495.1 536.0 C 1493.6 535.9 1492.1 535.6 1490.6 535.0 C 1488.4 534.2 1420.7 502.1 1338.5 462.9 L 1288.1 438.8 C 1192.3 393.0 1110.7 353.6 1087.7 342.0 C 1083.8 340.0 1081.1 338.5 1080.6 338.1 C 1079.3 336.9 1078.3 335.7 1077.7 334.4 C 1077.5 333.6 1077.5 332.6 1077.6 331.2 C 1077.7 327.5 1078.6 324.8 1081.1 321.4 C 1081.9 321.0 1082.9 320.3 1084.2 319.2 C 1086.4 317.2 1095.9 311.9 1105.2 307.4 C 1114.4 302.9 1177.9 272.0 1246.3 238.7 C 1314.6 205.4 1372.3 177.7 1374.6 177.2 C 1380.8 175.7 1387.1 176.0 1392.7 177.9 C 1397.6 179.7 1417.4 190.6 1620.7 304.7 C 1744.9 374.4 1731.8 366.9 1735.8 369.9 C 1737.6 371.3 1739.5 372.2 1740.0 371.9 C 1740.5 371.5 1741.2 372.0 1741.5 372.8 C 1741.8 373.7 1742.5 374.1 1743.0 373.8 C 1743.5 373.5 1745.0 374.2 1746.4 375.2 C 1747.7 376.3 1749.2 377.2 1749.6 377.2 C 1750.0 377.2 1760.2 382.7 1772.1 389.3 C 1792.8 400.8 1800.2 405.9 1804.0 411.9 L 1804.0 412.6 C 1804.8 414.3 1805.7 415.8 1806.1 417.3 C 1806.1 417.7 1806.0 418.0 1806.0 418.4 L 1806.0 421.6 C 1805.9 424.1 1805.7 425.1 1802.9 427.0 C 1802.6 427.1 1801.4 427.7 1800.1 428.2 C 1799.7 428.4 1799.7 428.4 1799.3 428.6 C 1799.2 428.6 1799.2 428.6 1799.1 428.6 C 1798.8 428.7 1798.2 429.0 1797.9 429.1 C 1786.2 433.8 1754.0 446.0 1712.2 461.7 C 1712.0 461.8 1711.7 461.9 1711.5 462.0 C 1694.2 468.4 1675.3 475.4 1655.4 482.8 C 1534.3 527.7 1514.9 534.7 1506.8 536.0 L 1501.7 536.0 L 1495.1 536.0 Z M 1495.1 536.1 "></path></clipPath><g clip-path="url(#clip0x6100006a4e00)"><image xlink:href="../../56A6FE59-E168-4589-A5D0-2C6FDCFC8FE8/assets/7698D6580581AC9BD0BC6E893E0C4151.png" width="4000.00" height="2700.00" transform="matrix(0.26, 0.00, -0.00, -0.26, 925.0, 713.0)"></image></g></g></g></g><path d="M -0.1 0.4 L 97.9 0.4 L 103.9 0.4 " fill="none" stroke="#FEFFFE" stroke-width="12.00" transform="matrix(0.00, 1.00, 1.00, 0.00, 1411.6, 580.1)"></path><path d="M 1434.8 678.0 L 1412.0 723.6 L 1389.2 678.0 Z M 1434.8 678.0 " fill="#FEFFFE"></path><path d="M 39.9 -0.4 L 45.6 -0.4 L 143.9 -0.4 " fill="none" stroke="#FEFFFE" stroke-width="12.00" transform="matrix(0.00, 1.00, 1.00, 0.00, 1472.4, 580.1)"></path><path d="M 1449.2 626.0 L 1472.0 580.4 L 1494.8 626.0 Z M 1449.2 626.0 " fill="#FEFFFE"></path><image xlink:href="../../1C07F8E4-8777-46C3-A249-618F4DE5D700/assets/13B25404F459E0E59EFC39CEF545F541.png" width="3508.00" height="636.00" transform="matrix(0.25, 0.00, -0.00, -0.25, 1000.0, 904.0)"></image></g></svg>