<?xml version="1.0" encoding="UTF-8" standalone="no"?><svg xmlns="http://www.w3.org/2000/svg" xmlns:xlink="http://www.w3.org/1999/xlink" clip-rule="evenodd" stroke-miterlimit="10" viewBox="0 0 1920 1080"><desc>SVG generated by Keynote</desc><defs></defs><g transform="matrix(1.00, 0.00, -0.00, -1.00, 0.0, 1080.0)"><path d="M 0.0 1080.0 L 1920.0 1080.0 L 1920.0 0.0 L 0.0 0.0 Z M 0.0 1080.0 " fill="#000000"></path><g><clipPath id="clip0x6080006a7200"><path d="M 960.0 1080.0 L 1920.0 1080.0 L 1920.0 0.0 L 960.0 0.0 Z M 960.0 1080.0 "></path></clipPath><g clip-path="url(#clip0x6080006a7200)"><g><clipPath id="clip0x6080006a4e00"><path d="M 1158.3 528.8 C 1158.3 871.7 1158.5 906.8 1161.2 907.8 C 1165.0 909.2 1715.0 909.2 1718.8 907.8 C 1721.5 906.8 1722.0 871.7 1722.0 528.8 L 1722.0 151.0 L 1440.0 151.0 L 1158.0 151.0 L 1158.0 529.0 "></path></clipPath><g clip-path="url(#clip0x6080006a4e00)"><image xlink:href="../../56A6FE59-E168-4589-A5D0-2C6FDCFC8FE8/assets/EE0C38E0AD4E5396E79456A2DDF94413.png" width="2048.00" height="1536.00" transform="matrix(0.70, 0.00, -0.00, -0.70, 720.0, 1080.0)"></image></g></g></g></g><text xml:space="preserve" font-family="Avenir-Light,Avenir" font-size="62.0" fill="#FEFFFF" transform="matrix(1.00, 0.00, -0.00, -1.00, 102.0, 945.7)">F</text><text xml:space="preserve" font-family="Avenir-Light,Avenir" font-size="62.0" fill="#FEFFFF" transform="matrix(1.00, 0.00, -0.00, -1.00, 146.4, 945.7)">E</text><text xml:space="preserve" font-family="Avenir-Light,Avenir" font-size="62.0" fill="#FEFFFF" transform="matrix(1.00, 0.00, -0.00, -1.00, 193.1, 945.7)">A</text><text xml:space="preserve" font-family="Avenir-Light,Avenir" font-size="62.0" fill="#FEFFFF" transform="matrix(1.00, 0.00, -0.00, -1.00, 241.3, 945.7)">T</text><text xml:space="preserve" font-family="Avenir-Light,Avenir" font-size="62.0" fill="#FEFFFF" transform="matrix(1.00, 0.00, -0.00, -1.00, 286.8, 945.7)">U</text><text xml:space="preserve" font-family="Avenir-Light,Avenir" font-size="62.0" fill="#FEFFFF" transform="matrix(1.00, 0.00, -0.00, -1.00, 339.1, 945.7)">R</text><text xml:space="preserve" font-family="Avenir-Light,Avenir" font-size="62.0" fill="#FEFFFF" transform="matrix(1.00, 0.00, -0.00, -1.00, 385.8, 945.7)">E</text><text xml:space="preserve" font-family="Avenir-Light,Avenir" font-size="62.0" fill="#FEFFFF" transform="matrix(1.00, 0.00, -0.00, -1.00, 432.5, 945.7)">S</text><text xml:space="preserve" font-family="Avenir-Light,Avenir" font-size="62.0" fill="#FEFFFF" transform="matrix(1.00, 0.00, -0.00, -1.00, 476.9, 945.7)">:</text><text xml:space="preserve" font-family="Avenir-Light,Avenir" font-size="62.0" fill="#FEFFFF" transform="matrix(1.00, 0.00, -0.00, -1.00, 502.9, 945.7)"> </text><text xml:space="preserve" font-family="Avenir-Light,Avenir" font-size="62.0" fill="#FEFFFF" transform="matrix(1.00, 0.00, -0.00, -1.00, 528.9, 945.7)">L</text><text xml:space="preserve" font-family="Avenir-Light,Avenir" font-size="62.0" fill="#FEFFFF" transform="matrix(1.00, 0.00, -0.00, -1.00, 569.9, 945.7)">O</text><text xml:space="preserve" font-family="Avenir-Light,Avenir" font-size="62.0" fill="#FEFFFF" transform="matrix(1.00, 0.00, -0.00, -1.00, 631.5, 945.7)">G</text><text xml:space="preserve" font-family="Avenir-Light,Avenir" font-size="62.0" fill="#FEFFFF" transform="matrix(1.00, 0.00, -0.00, -1.00, 689.6, 945.7)">I</text><text xml:space="preserve" font-family="Avenir-Light,Avenir" font-size="62.0" fill="#FEFFFF" transform="matrix(1.00, 0.00, -0.00, -1.00, 715.7, 945.7)">N</text><text xml:space="preserve" font-family="Avenir-Light,Avenir" font-size="37.8" fill="#646363" transform="matrix(1.00, 0.00, -0.00, -1.00, 102.0, 744.9)">•</text><text xml:space="preserve" font-family="Avenir-Light,Avenir" font-size="42.0" fill="#FEFFFF" transform="matrix(1.00, 0.00, -0.00, -1.00, 145.0, 744.0)">L</text><text xml:space="preserve" font-family="Avenir-Light,Avenir" font-size="42.0" fill="#FEFFFF" transform="matrix(1.00, 0.00, -0.00, -1.00, 166.0, 744.0)">o</text><text xml:space="preserve" font-family="Avenir-Light,Avenir" font-size="42.0" fill="#FEFFFF" transform="matrix(1.00, 0.00, -0.00, -1.00, 190.9, 744.0)">g</text><text xml:space="preserve" font-family="Avenir-Light,Avenir" font-size="42.0" fill="#FEFFFF" transform="matrix(1.00, 0.00, -0.00, -1.00, 216.6, 744.0)">i</text><text xml:space="preserve" font-family="Avenir-Light,Avenir" font-size="42.0" fill="#FEFFFF" transform="matrix(1.00, 0.00, -0.00, -1.00, 226.7, 744.0)">n</text><text xml:space="preserve" font-family="Avenir-Light,Avenir" font-size="42.0" fill="#FEFFFF" transform="matrix(1.00, 0.00, -0.00, -1.00, 250.0, 744.0)"> </text><text xml:space="preserve" font-family="Avenir-Light,Avenir" font-size="42.0" fill="#FEFFFF" transform="matrix(1.00, 0.00, -0.00, -1.00, 261.0, 744.0)">w</text><text xml:space="preserve" font-family="Avenir-Light,Avenir" font-size="42.0" fill="#FEFFFF" transform="matrix(1.00, 0.00, -0.00, -1.00, 290.5, 744.0)">i</text><text xml:space="preserve" font-family="Avenir-Light,Avenir" font-size="42.0" fill="#FEFFFF" transform="matrix(1.00, 0.00, -0.00, -1.00, 300.6, 744.0)">t</text><text xml:space="preserve" font-family="Avenir-Light,Avenir" font-size="42.0" fill="#FEFFFF" transform="matrix(1.00, 0.00, -0.00, -1.00, 314.6, 744.0)">h</text><text xml:space="preserve" font-family="Avenir-Light,Avenir" font-size="42.0" fill="#FEFFFF" transform="matrix(1.00, 0.00, -0.00, -1.00, 338.0, 744.0)"> </text><text xml:space="preserve" font-family="Avenir-Light,Avenir" font-size="42.0" fill="#FEFFFF" transform="matrix(1.00, 0.00, -0.00, -1.00, 348.9, 744.0)">s</text><text xml:space="preserve" font-family="Avenir-Light,Avenir" font-size="42.0" fill="#FEFFFF" transform="matrix(1.00, 0.00, -0.00, -1.00, 366.8, 744.0)">a</text><text xml:space="preserve" font-family="Avenir-Light,Avenir" font-size="42.0" fill="#FEFFFF" transform="matrix(1.00, 0.00, -0.00, -1.00, 388.6, 744.0)">m</text><text xml:space="preserve" font-family="Avenir-Light,Avenir" font-size="42.0" fill="#FEFFFF" transform="matrix(1.00, 0.00, -0.00, -1.00, 424.4, 744.0)">e</text><text xml:space="preserve" font-family="Avenir-Light,Avenir" font-size="42.0" fill="#FEFFFF" transform="matrix(1.00, 0.00, -0.00, -1.00, 447.7, 744.0)"> </text><text xml:space="preserve" font-family="Avenir-Light,Avenir" font-size="42.0" fill="#FEFFFF" transform="matrix(1.00, 0.00, -0.00, -1.00, 458.7, 744.0)">n</text><text xml:space="preserve" font-family="Avenir-Light,Avenir" font-size="42.0" fill="#FEFFFF" transform="matrix(1.00, 0.00, -0.00, -1.00, 482.0, 744.0)">e</text><text xml:space="preserve" font-family="Avenir-Light,Avenir" font-size="42.0" fill="#FEFFFF" transform="matrix(1.00, 0.00, -0.00, -1.00, 505.4, 744.0)">t</text><text xml:space="preserve" font-family="Avenir-Light,Avenir" font-size="42.0" fill="#FEFFFF" transform="matrix(1.00, 0.00, -0.00, -1.00, 519.3, 744.0)">w</text><text xml:space="preserve" font-family="Avenir-Light,Avenir" font-size="42.0" fill="#FEFFFF" transform="matrix(1.00, 0.00, -0.00, -1.00, 548.9, 744.0)">o</text><text xml:space="preserve" font-family="Avenir-Light,Avenir" font-size="42.0" fill="#FEFFFF" transform="matrix(1.00, 0.00, -0.00, -1.00, 573.9, 744.0)">r</text><text xml:space="preserve" font-family="Avenir-Light,Avenir" font-size="42.0" fill="#FEFFFF" transform="matrix(1.00, 0.00, -0.00, -1.00, 587.8, 744.0)">k</text><text xml:space="preserve" font-family="LucidaGrande,Lucida Grande" font-size="42.0" fill="#FEFFFF" transform="matrix(1.00, 0.00, -0.00, -1.00, 608.0, 744.0)"> </text><text xml:space="preserve" font-family="Avenir-Light,Avenir" font-size="42.0" fill="#FEFFFF" transform="matrix(1.00, 0.00, -0.00, -1.00, 145.0, 687.0)">u</text><text xml:space="preserve" font-family="Avenir-Light,Avenir" font-size="42.0" fill="#FEFFFF" transform="matrix(1.00, 0.00, -0.00, -1.00, 168.4, 687.0)">s</text><text xml:space="preserve" font-family="Avenir-Light,Avenir" font-size="42.0" fill="#FEFFFF" transform="matrix(1.00, 0.00, -0.00, -1.00, 186.2, 687.0)">e</text><text xml:space="preserve" font-family="Avenir-Light,Avenir" font-size="42.0" fill="#FEFFFF" transform="matrix(1.00, 0.00, -0.00, -1.00, 209.6, 687.0)">r</text><text xml:space="preserve" font-family="Avenir-Light,Avenir" font-size="42.0" fill="#FEFFFF" transform="matrix(1.00, 0.00, -0.00, -1.00, 223.6, 687.0)">n</text><text xml:space="preserve" font-family="Avenir-Light,Avenir" font-size="42.0" fill="#FEFFFF" transform="matrix(1.00, 0.00, -0.00, -1.00, 246.9, 687.0)">a</text><text xml:space="preserve" font-family="Avenir-Light,Avenir" font-size="42.0" fill="#FEFFFF" transform="matrix(1.00, 0.00, -0.00, -1.00, 268.7, 687.0)">m</text><text xml:space="preserve" font-family="Avenir-Light,Avenir" font-size="42.0" fill="#FEFFFF" transform="matrix(1.00, 0.00, -0.00, -1.00, 304.5, 687.0)">e</text><text xml:space="preserve" font-family="Avenir-Light,Avenir" font-size="42.0" fill="#FEFFFF" transform="matrix(1.00, 0.00, -0.00, -1.00, 327.9, 687.0)"> </text><text xml:space="preserve" font-family="Avenir-Light,Avenir" font-size="42.0" fill="#FEFFFF" transform="matrix(1.00, 0.00, -0.00, -1.00, 338.8, 687.0)">a</text><text xml:space="preserve" font-family="Avenir-Light,Avenir" font-size="42.0" fill="#FEFFFF" transform="matrix(1.00, 0.00, -0.00, -1.00, 360.6, 687.0)">n</text><text xml:space="preserve" font-family="Avenir-Light,Avenir" font-size="42.0" fill="#FEFFFF" transform="matrix(1.00, 0.00, -0.00, -1.00, 383.9, 687.0)">d</text><text xml:space="preserve" font-family="Avenir-Light,Avenir" font-size="42.0" fill="#FEFFFF" transform="matrix(1.00, 0.00, -0.00, -1.00, 409.6, 687.0)"> </text><text xml:space="preserve" font-family="Avenir-Light,Avenir" font-size="42.0" fill="#FEFFFF" transform="matrix(1.00, 0.00, -0.00, -1.00, 420.5, 687.0)">p</text><text xml:space="preserve" font-family="Avenir-Light,Avenir" font-size="42.0" fill="#FEFFFF" transform="matrix(1.00, 0.00, -0.00, -1.00, 446.2, 687.0)">a</text><text xml:space="preserve" font-family="Avenir-Light,Avenir" font-size="42.0" fill="#FEFFFF" transform="matrix(1.00, 0.00, -0.00, -1.00, 468.0, 687.0)">s</text><text xml:space="preserve" font-family="Avenir-Light,Avenir" font-size="42.0" fill="#FEFFFF" transform="matrix(1.00, 0.00, -0.00, -1.00, 485.9, 687.0)">s</text><text xml:space="preserve" font-family="Avenir-Light,Avenir" font-size="42.0" fill="#FEFFFF" transform="matrix(1.00, 0.00, -0.00, -1.00, 503.8, 687.0)">w</text><text xml:space="preserve" font-family="Avenir-Light,Avenir" font-size="42.0" fill="#FEFFFF" transform="matrix(1.00, 0.00, -0.00, -1.00, 533.3, 687.0)">o</text><text xml:space="preserve" font-family="Avenir-Light,Avenir" font-size="42.0" fill="#FEFFFF" transform="matrix(1.00, 0.00, -0.00, -1.00, 558.3, 687.0)">r</text><text xml:space="preserve" font-family="Avenir-Light,Avenir" font-size="42.0" fill="#FEFFFF" transform="matrix(1.00, 0.00, -0.00, -1.00, 571.5, 687.0)">d</text><text xml:space="preserve" font-family="Avenir-Light,Avenir" font-size="42.0" fill="#FEFFFF" transform="matrix(1.00, 0.00, -0.00, -1.00, 597.2, 687.0)"> </text><text xml:space="preserve" font-family="Avenir-Light,Avenir" font-size="37.8" fill="#646363" transform="matrix(1.00, 0.00, -0.00, -1.00, 145.0, 585.9)">•</text><text xml:space="preserve" font-family="Avenir-Light,Avenir" font-size="42.0" fill="#FEFFFF" transform="matrix(1.00, 0.00, -0.00, -1.00, 188.0, 585.0)">E</text><text xml:space="preserve" font-family="Avenir-Light,Avenir" font-size="42.0" fill="#FEFFFF" transform="matrix(1.00, 0.00, -0.00, -1.00, 212.9, 585.0)">a</text><text xml:space="preserve" font-family="Avenir-Light,Avenir" font-size="42.0" fill="#FEFFFF" transform="matrix(1.00, 0.00, -0.00, -1.00, 234.7, 585.0)">s</text><text xml:space="preserve" font-family="Avenir-Light,Avenir" font-size="42.0" fill="#FEFFFF" transform="matrix(1.00, 0.00, -0.00, -1.00, 252.6, 585.0)">y</text><text xml:space="preserve" font-family="Avenir-Light,Avenir" font-size="42.0" fill="#FEFFFF" transform="matrix(1.00, 0.00, -0.00, -1.00, 272.0, 585.0)"> </text><text xml:space="preserve" font-family="Avenir-Light,Avenir" font-size="42.0" fill="#FEFFFF" transform="matrix(1.00, 0.00, -0.00, -1.00, 283.0, 585.0)">t</text><text xml:space="preserve" font-family="Avenir-Light,Avenir" font-size="42.0" fill="#FEFFFF" transform="matrix(1.00, 0.00, -0.00, -1.00, 296.9, 585.0)">o</text><text xml:space="preserve" font-family="Avenir-Light,Avenir" font-size="42.0" fill="#FEFFFF" transform="matrix(1.00, 0.00, -0.00, -1.00, 321.9, 585.0)"> </text><text xml:space="preserve" font-family="Avenir-Light,Avenir" font-size="42.0" fill="#FEFFFF" transform="matrix(1.00, 0.00, -0.00, -1.00, 332.8, 585.0)">u</text><text xml:space="preserve" font-family="Avenir-Light,Avenir" font-size="42.0" fill="#FEFFFF" transform="matrix(1.00, 0.00, -0.00, -1.00, 356.2, 585.0)">s</text><text xml:space="preserve" font-family="Avenir-Light,Avenir" font-size="42.0" fill="#FEFFFF" transform="matrix(1.00, 0.00, -0.00, -1.00, 374.1, 585.0)">e</text><text xml:space="preserve" font-family="Avenir-Light,Avenir" font-size="42.0" fill="#FEFFFF" transform="matrix(1.00, 0.00, -0.00, -1.00, 397.4, 585.0)"> </text><text xml:space="preserve" font-family="Avenir-Light,Avenir" font-size="42.0" fill="#FEFFFF" transform="matrix(1.00, 0.00, -0.00, -1.00, 408.3, 585.0)">f</text><text xml:space="preserve" font-family="Avenir-Light,Avenir" font-size="42.0" fill="#FEFFFF" transform="matrix(1.00, 0.00, -0.00, -1.00, 420.8, 585.0)">o</text><text xml:space="preserve" font-family="Avenir-Light,Avenir" font-size="42.0" fill="#FEFFFF" transform="matrix(1.00, 0.00, -0.00, -1.00, 445.7, 585.0)">r</text><text xml:space="preserve" font-family="Avenir-Light,Avenir" font-size="42.0" fill="#FEFFFF" transform="matrix(1.00, 0.00, -0.00, -1.00, 459.7, 585.0)"> </text><text xml:space="preserve" font-family="Avenir-Light,Avenir" font-size="42.0" fill="#FEFFFF" transform="matrix(1.00, 0.00, -0.00, -1.00, 470.6, 585.0)">s</text><text xml:space="preserve" font-family="Avenir-Light,Avenir" font-size="42.0" fill="#FEFFFF" transform="matrix(1.00, 0.00, -0.00, -1.00, 488.5, 585.0)">t</text><text xml:space="preserve" font-family="Avenir-Light,Avenir" font-size="42.0" fill="#FEFFFF" transform="matrix(1.00, 0.00, -0.00, -1.00, 502.5, 585.0)">u</text><text xml:space="preserve" font-family="Avenir-Light,Avenir" font-size="42.0" fill="#FEFFFF" transform="matrix(1.00, 0.00, -0.00, -1.00, 525.8, 585.0)">d</text><text xml:space="preserve" font-family="Avenir-Light,Avenir" font-size="42.0" fill="#FEFFFF" transform="matrix(1.00, 0.00, -0.00, -1.00, 551.5, 585.0)">e</text><text xml:space="preserve" font-family="Avenir-Light,Avenir" font-size="42.0" fill="#FEFFFF" transform="matrix(1.00, 0.00, -0.00, -1.00, 574.9, 585.0)">n</text><text xml:space="preserve" font-family="Avenir-Light,Avenir" font-size="42.0" fill="#FEFFFF" transform="matrix(1.00, 0.00, -0.00, -1.00, 598.2, 585.0)">t</text><text xml:space="preserve" font-family="Avenir-Light,Avenir" font-size="42.0" fill="#FEFFFF" transform="matrix(1.00, 0.00, -0.00, -1.00, 612.2, 585.0)">s</text><text xml:space="preserve" font-family="Avenir-Light,Avenir" font-size="42.0" fill="#FEFFFF" transform="matrix(1.00, 0.00, -0.00, -1.00, 630.1, 585.0)"> </text><text xml:space="preserve" font-family="Avenir-Light,Avenir" font-size="42.0" fill="#FEFFFF" transform="matrix(1.00, 0.00, -0.00, -1.00, 641.0, 585.0)">a</text><text xml:space="preserve" font-family="Avenir-Light,Avenir" font-size="42.0" fill="#FEFFFF" transform="matrix(1.00, 0.00, -0.00, -1.00, 662.8, 585.0)">n</text><text xml:space="preserve" font-family="Avenir-Light,Avenir" font-size="42.0" fill="#FEFFFF" transform="matrix(1.00, 0.00, -0.00, -1.00, 686.2, 585.0)">d</text><text xml:space="preserve" font-family="Avenir-Light,Avenir" font-size="42.0" fill="#FEFFFF" transform="matrix(1.00, 0.00, -0.00, -1.00, 711.8, 585.0)"> </text><text xml:space="preserve" font-family="Avenir-Light,Avenir" font-size="42.0" fill="#FEFFFF" transform="matrix(1.00, 0.00, -0.00, -1.00, 722.7, 585.0)">s</text><text xml:space="preserve" font-family="Avenir-Light,Avenir" font-size="42.0" fill="#FEFFFF" transform="matrix(1.00, 0.00, -0.00, -1.00, 740.6, 585.0)">t</text><text xml:space="preserve" font-family="Avenir-Light,Avenir" font-size="42.0" fill="#FEFFFF" transform="matrix(1.00, 0.00, -0.00, -1.00, 754.6, 585.0)">a</text><text xml:space="preserve" font-family="Avenir-Light,Avenir" font-size="42.0" fill="#FEFFFF" transform="matrix(1.00, 0.00, -0.00, -1.00, 776.4, 585.0)">f</text><text xml:space="preserve" font-family="Avenir-Light,Avenir" font-size="42.0" fill="#FEFFFF" transform="matrix(1.00, 0.00, -0.00, -1.00, 788.1, 585.0)">f</text><text xml:space="preserve" font-family="Avenir-Light,Avenir" font-size="42.0" fill="#FEFFFF" transform="matrix(1.00, 0.00, -0.00, -1.00, 800.5, 585.0)"> </text><text xml:space="preserve" font-family="Avenir-Light,Avenir" font-size="37.8" fill="#646363" transform="matrix(1.00, 0.00, -0.00, -1.00, 145.0, 483.9)">•</text><text xml:space="preserve" font-family="Avenir-Light,Avenir" font-size="42.0" fill="#FEFFFF" transform="matrix(1.00, 0.00, -0.00, -1.00, 188.0, 483.0)">D</text><text xml:space="preserve" font-family="Avenir-Light,Avenir" font-size="42.0" fill="#FEFFFF" transform="matrix(1.00, 0.00, -0.00, -1.00, 219.1, 483.0)">o</text><text xml:space="preserve" font-family="Avenir-Light,Avenir" font-size="42.0" fill="#FEFFFF" transform="matrix(1.00, 0.00, -0.00, -1.00, 244.1, 483.0)">e</text><text xml:space="preserve" font-family="Avenir-Light,Avenir" font-size="42.0" fill="#FEFFFF" transform="matrix(1.00, 0.00, -0.00, -1.00, 267.4, 483.0)">s</text><text xml:space="preserve" font-family="Avenir-Light,Avenir" font-size="42.0" fill="#FEFFFF" transform="matrix(1.00, 0.00, -0.00, -1.00, 285.3, 483.0)"> </text><text xml:space="preserve" font-family="Avenir-Light,Avenir" font-size="42.0" fill="#FEFFFF" transform="matrix(1.00, 0.00, -0.00, -1.00, 296.2, 483.0)">n</text><text xml:space="preserve" font-family="Avenir-Light,Avenir" font-size="42.0" fill="#FEFFFF" transform="matrix(1.00, 0.00, -0.00, -1.00, 319.6, 483.0)">o</text><text xml:space="preserve" font-family="Avenir-Light,Avenir" font-size="42.0" fill="#FEFFFF" transform="matrix(1.00, 0.00, -0.00, -1.00, 344.5, 483.0)">t</text><text xml:space="preserve" font-family="Avenir-Light,Avenir" font-size="42.0" fill="#FEFFFF" transform="matrix(1.00, 0.00, -0.00, -1.00, 358.5, 483.0)"> </text><text xml:space="preserve" font-family="Avenir-Light,Avenir" font-size="42.0" fill="#FEFFFF" transform="matrix(1.00, 0.00, -0.00, -1.00, 369.4, 483.0)">r</text><text xml:space="preserve" font-family="Avenir-Light,Avenir" font-size="42.0" fill="#FEFFFF" transform="matrix(1.00, 0.00, -0.00, -1.00, 382.7, 483.0)">e</text><text xml:space="preserve" font-family="Avenir-Light,Avenir" font-size="42.0" fill="#FEFFFF" transform="matrix(1.00, 0.00, -0.00, -1.00, 406.0, 483.0)">q</text><text xml:space="preserve" font-family="Avenir-Light,Avenir" font-size="42.0" fill="#FEFFFF" transform="matrix(1.00, 0.00, -0.00, -1.00, 431.7, 483.0)">u</text><text xml:space="preserve" font-family="Avenir-Light,Avenir" font-size="42.0" fill="#FEFFFF" transform="matrix(1.00, 0.00, -0.00, -1.00, 455.0, 483.0)">i</text><text xml:space="preserve" font-family="Avenir-Light,Avenir" font-size="42.0" fill="#FEFFFF" transform="matrix(1.00, 0.00, -0.00, -1.00, 465.1, 483.0)">r</text><text xml:space="preserve" font-family="Avenir-Light,Avenir" font-size="42.0" fill="#FEFFFF" transform="matrix(1.00, 0.00, -0.00, -1.00, 478.3, 483.0)">e</text><text xml:space="preserve" font-family="Avenir-Light,Avenir" font-size="42.0" fill="#FEFFFF" transform="matrix(1.00, 0.00, -0.00, -1.00, 501.7, 483.0)"> </text><text xml:space="preserve" font-family="Avenir-Light,Avenir" font-size="42.0" fill="#FEFFFF" transform="matrix(1.00, 0.00, -0.00, -1.00, 512.6, 483.0)">a</text><text xml:space="preserve" font-family="Avenir-Light,Avenir" font-size="42.0" fill="#FEFFFF" transform="matrix(1.00, 0.00, -0.00, -1.00, 534.4, 483.0)"> </text><text xml:space="preserve" font-family="Avenir-Light,Avenir" font-size="42.0" fill="#FEFFFF" transform="matrix(1.00, 0.00, -0.00, -1.00, 545.3, 483.0)">s</text><text xml:space="preserve" font-family="Avenir-Light,Avenir" font-size="42.0" fill="#FEFFFF" transform="matrix(1.00, 0.00, -0.00, -1.00, 563.2, 483.0)">e</text><text xml:space="preserve" font-family="Avenir-Light,Avenir" font-size="42.0" fill="#FEFFFF" transform="matrix(1.00, 0.00, -0.00, -1.00, 586.6, 483.0)">p</text><text xml:space="preserve" font-family="Avenir-Light,Avenir" font-size="42.0" fill="#FEFFFF" transform="matrix(1.00, 0.00, -0.00, -1.00, 612.2, 483.0)">a</text><text xml:space="preserve" font-family="Avenir-Light,Avenir" font-size="42.0" fill="#FEFFFF" transform="matrix(1.00, 0.00, -0.00, -1.00, 634.0, 483.0)">r</text><text xml:space="preserve" font-family="Avenir-Light,Avenir" font-size="42.0" fill="#FEFFFF" transform="matrix(1.00, 0.00, -0.00, -1.00, 648.0, 483.0)">a</text><text xml:space="preserve" font-family="Avenir-Light,Avenir" font-size="42.0" fill="#FEFFFF" transform="matrix(1.00, 0.00, -0.00, -1.00, 669.8, 483.0)">t</text><text xml:space="preserve" font-family="Avenir-Light,Avenir" font-size="42.0" fill="#FEFFFF" transform="matrix(1.00, 0.00, -0.00, -1.00, 683.8, 483.0)">e</text><text xml:space="preserve" font-family="Avenir-Light,Avenir" font-size="42.0" fill="#FEFFFF" transform="matrix(1.00, 0.00, -0.00, -1.00, 707.2, 483.0)"> </text><text xml:space="preserve" font-family="Avenir-Light,Avenir" font-size="42.0" fill="#FEFFFF" transform="matrix(1.00, 0.00, -0.00, -1.00, 718.1, 483.0)">l</text><text xml:space="preserve" font-family="Avenir-Light,Avenir" font-size="42.0" fill="#FEFFFF" transform="matrix(1.00, 0.00, -0.00, -1.00, 728.2, 483.0)">o</text><text xml:space="preserve" font-family="Avenir-Light,Avenir" font-size="42.0" fill="#FEFFFF" transform="matrix(1.00, 0.00, -0.00, -1.00, 753.1, 483.0)">g</text><text xml:space="preserve" font-family="Avenir-Light,Avenir" font-size="42.0" fill="#FEFFFF" transform="matrix(1.00, 0.00, -0.00, -1.00, 778.8, 483.0)">i</text><text xml:space="preserve" font-family="Avenir-Light,Avenir" font-size="42.0" fill="#FEFFFF" transform="matrix(1.00, 0.00, -0.00, -1.00, 788.9, 483.0)">n</text><text xml:space="preserve" font-family="Avenir-Light,Avenir" font-size="42.0" fill="#FEFFFF" transform="matrix(1.00, 0.00, -0.00, -1.00, 812.2, 483.0)"> </text><text xml:space="preserve" font-family="Avenir-Light,Avenir" font-size="42.0" fill="#FEFFFF" transform="matrix(1.00, 0.00, -0.00, -1.00, 188.0, 426.0)">p</text><text xml:space="preserve" font-family="Avenir-Light,Avenir" font-size="42.0" fill="#FEFFFF" transform="matrix(1.00, 0.00, -0.00, -1.00, 213.7, 426.0)">a</text><text xml:space="preserve" font-family="Avenir-Light,Avenir" font-size="42.0" fill="#FEFFFF" transform="matrix(1.00, 0.00, -0.00, -1.00, 235.5, 426.0)">s</text><text xml:space="preserve" font-family="Avenir-Light,Avenir" font-size="42.0" fill="#FEFFFF" transform="matrix(1.00, 0.00, -0.00, -1.00, 253.4, 426.0)">s</text><text xml:space="preserve" font-family="Avenir-Light,Avenir" font-size="42.0" fill="#FEFFFF" transform="matrix(1.00, 0.00, -0.00, -1.00, 271.2, 426.0)">w</text><text xml:space="preserve" font-family="Avenir-Light,Avenir" font-size="42.0" fill="#FEFFFF" transform="matrix(1.00, 0.00, -0.00, -1.00, 300.8, 426.0)">o</text><text xml:space="preserve" font-family="Avenir-Light,Avenir" font-size="42.0" fill="#FEFFFF" transform="matrix(1.00, 0.00, -0.00, -1.00, 325.8, 426.0)">r</text><text xml:space="preserve" font-family="Avenir-Light,Avenir" font-size="42.0" fill="#FEFFFF" transform="matrix(1.00, 0.00, -0.00, -1.00, 339.0, 426.0)">d</text><text xml:space="preserve" font-family="Avenir-Light,Avenir" font-size="42.0" fill="#FEFFFF" transform="matrix(1.00, 0.00, -0.00, -1.00, 364.7, 426.0)"> </text><text xml:space="preserve" font-family="Avenir-Light,Avenir" font-size="42.0" fill="#FEFFFF" transform="matrix(1.00, 0.00, -0.00, -1.00, 375.6, 426.0)">t</text><text xml:space="preserve" font-family="Avenir-Light,Avenir" font-size="42.0" fill="#FEFFFF" transform="matrix(1.00, 0.00, -0.00, -1.00, 389.6, 426.0)">o</text><text xml:space="preserve" font-family="Avenir-Light,Avenir" font-size="42.0" fill="#FEFFFF" transform="matrix(1.00, 0.00, -0.00, -1.00, 414.5, 426.0)"> </text><text xml:space="preserve" font-family="Avenir-Light,Avenir" font-size="42.0" fill="#FEFFFF" transform="matrix(1.00, 0.00, -0.00, -1.00, 425.4, 426.0)">b</text><text xml:space="preserve" font-family="Avenir-Light,Avenir" font-size="42.0" fill="#FEFFFF" transform="matrix(1.00, 0.00, -0.00, -1.00, 451.1, 426.0)">e</text><text xml:space="preserve" font-family="Avenir-Light,Avenir" font-size="42.0" fill="#FEFFFF" transform="matrix(1.00, 0.00, -0.00, -1.00, 474.4, 426.0)"> </text><text xml:space="preserve" font-family="Avenir-Light,Avenir" font-size="42.0" fill="#FEFFFF" transform="matrix(1.00, 0.00, -0.00, -1.00, 485.4, 426.0)">r</text><text xml:space="preserve" font-family="Avenir-Light,Avenir" font-size="42.0" fill="#FEFFFF" transform="matrix(1.00, 0.00, -0.00, -1.00, 498.6, 426.0)">e</text><text xml:space="preserve" font-family="Avenir-Light,Avenir" font-size="42.0" fill="#FEFFFF" transform="matrix(1.00, 0.00, -0.00, -1.00, 521.9, 426.0)">m</text><text xml:space="preserve" font-family="Avenir-Light,Avenir" font-size="42.0" fill="#FEFFFF" transform="matrix(1.00, 0.00, -0.00, -1.00, 557.7, 426.0)">e</text><text xml:space="preserve" font-family="Avenir-Light,Avenir" font-size="42.0" fill="#FEFFFF" transform="matrix(1.00, 0.00, -0.00, -1.00, 581.1, 426.0)">m</text><text xml:space="preserve" font-family="Avenir-Light,Avenir" font-size="42.0" fill="#FEFFFF" transform="matrix(1.00, 0.00, -0.00, -1.00, 616.9, 426.0)">b</text><text xml:space="preserve" font-family="Avenir-Light,Avenir" font-size="42.0" fill="#FEFFFF" transform="matrix(1.00, 0.00, -0.00, -1.00, 642.5, 426.0)">e</text><text xml:space="preserve" font-family="Avenir-Light,Avenir" font-size="42.0" fill="#FEFFFF" transform="matrix(1.00, 0.00, -0.00, -1.00, 665.9, 426.0)">r</text><text xml:space="preserve" font-family="Avenir-Light,Avenir" font-size="42.0" fill="#FEFFFF" transform="matrix(1.00, 0.00, -0.00, -1.00, 679.1, 426.0)">e</text><text xml:space="preserve" font-family="Avenir-Light,Avenir" font-size="42.0" fill="#FEFFFF" transform="matrix(1.00, 0.00, -0.00, -1.00, 702.5, 426.0)">d</text><text xml:space="preserve" font-family="Avenir-Light,Avenir" font-size="42.0" fill="#FEFFFF" transform="matrix(1.00, 0.00, -0.00, -1.00, 728.1, 426.0)"> </text><text xml:space="preserve" font-family="Avenir-Light,Avenir" font-size="37.8" fill="#646363" transform="matrix(1.00, 0.00, -0.00, -1.00, 145.0, 324.9)">•</text><text xml:space="preserve" font-family="Avenir-Light,Avenir" font-size="42.0" fill="#FEFFFF" transform="matrix(1.00, 0.00, -0.00, -1.00, 188.0, 324.0)">A</text><text xml:space="preserve" font-family="Avenir-Light,Avenir" font-size="42.0" fill="#FEFFFF" transform="matrix(1.00, 0.00, -0.00, -1.00, 216.8, 324.0)">l</text><text xml:space="preserve" font-family="Avenir-Light,Avenir" font-size="42.0" fill="#FEFFFF" transform="matrix(1.00, 0.00, -0.00, -1.00, 226.9, 324.0)">l</text><text xml:space="preserve" font-family="Avenir-Light,Avenir" font-size="42.0" fill="#FEFFFF" transform="matrix(1.00, 0.00, -0.00, -1.00, 237.0, 324.0)">o</text><text xml:space="preserve" font-family="Avenir-Light,Avenir" font-size="42.0" fill="#FEFFFF" transform="matrix(1.00, 0.00, -0.00, -1.00, 261.9, 324.0)">w</text><text xml:space="preserve" font-family="Avenir-Light,Avenir" font-size="42.0" fill="#FEFFFF" transform="matrix(1.00, 0.00, -0.00, -1.00, 291.5, 324.0)">s</text><text xml:space="preserve" font-family="Avenir-Light,Avenir" font-size="42.0" fill="#FEFFFF" transform="matrix(1.00, 0.00, -0.00, -1.00, 309.4, 324.0)"> </text><text xml:space="preserve" font-family="Avenir-Light,Avenir" font-size="42.0" fill="#FEFFFF" transform="matrix(1.00, 0.00, -0.00, -1.00, 320.3, 324.0)">s</text><text xml:space="preserve" font-family="Avenir-Light,Avenir" font-size="42.0" fill="#FEFFFF" transform="matrix(1.00, 0.00, -0.00, -1.00, 338.2, 324.0)">i</text><text xml:space="preserve" font-family="Avenir-Light,Avenir" font-size="42.0" fill="#FEFFFF" transform="matrix(1.00, 0.00, -0.00, -1.00, 348.3, 324.0)">n</text><text xml:space="preserve" font-family="Avenir-Light,Avenir" font-size="42.0" fill="#FEFFFF" transform="matrix(1.00, 0.00, -0.00, -1.00, 371.6, 324.0)">g</text><text xml:space="preserve" font-family="Avenir-Light,Avenir" font-size="42.0" fill="#FEFFFF" transform="matrix(1.00, 0.00, -0.00, -1.00, 397.3, 324.0)">l</text><text xml:space="preserve" font-family="Avenir-Light,Avenir" font-size="42.0" fill="#FEFFFF" transform="matrix(1.00, 0.00, -0.00, -1.00, 407.4, 324.0)">e</text><text xml:space="preserve" font-family="Avenir-Light,Avenir" font-size="42.0" fill="#FEFFFF" transform="matrix(1.00, 0.00, -0.00, -1.00, 430.7, 324.0)"> </text><text xml:space="preserve" font-family="Avenir-Light,Avenir" font-size="42.0" fill="#FEFFFF" transform="matrix(1.00, 0.00, -0.00, -1.00, 441.6, 324.0)">s</text><text xml:space="preserve" font-family="Avenir-Light,Avenir" font-size="42.0" fill="#FEFFFF" transform="matrix(1.00, 0.00, -0.00, -1.00, 459.5, 324.0)">i</text><text xml:space="preserve" font-family="Avenir-Light,Avenir" font-size="42.0" fill="#FEFFFF" transform="matrix(1.00, 0.00, -0.00, -1.00, 469.6, 324.0)">g</text><text xml:space="preserve" font-family="Avenir-Light,Avenir" font-size="42.0" fill="#FEFFFF" transform="matrix(1.00, 0.00, -0.00, -1.00, 495.3, 324.0)">n</text><text xml:space="preserve" font-family="Avenir-Light,Avenir" font-size="42.0" fill="#FEFFFF" transform="matrix(1.00, 0.00, -0.00, -1.00, 518.6, 324.0)"> </text><text xml:space="preserve" font-family="Avenir-Light,Avenir" font-size="42.0" fill="#FEFFFF" transform="matrix(1.00, 0.00, -0.00, -1.00, 529.5, 324.0)">o</text><text xml:space="preserve" font-family="Avenir-Light,Avenir" font-size="42.0" fill="#FEFFFF" transform="matrix(1.00, 0.00, -0.00, -1.00, 554.5, 324.0)">n</text><text xml:space="preserve" font-family="Avenir-Light,Avenir" font-size="42.0" fill="#FEFFFF" transform="matrix(1.00, 0.00, -0.00, -1.00, 577.8, 324.0)"> </text><text xml:space="preserve" font-family="Avenir-Light,Avenir" font-size="42.0" fill="#FEFFFF" transform="matrix(1.00, 0.00, -0.00, -1.00, 588.8, 324.0)">f</text><text xml:space="preserve" font-family="Avenir-Light,Avenir" font-size="42.0" fill="#FEFFFF" transform="matrix(1.00, 0.00, -0.00, -1.00, 601.2, 324.0)">o</text><text xml:space="preserve" font-family="Avenir-Light,Avenir" font-size="42.0" fill="#FEFFFF" transform="matrix(1.00, 0.00, -0.00, -1.00, 626.1, 324.0)">r</text><text xml:space="preserve" font-family="Avenir-Light,Avenir" font-size="42.0" fill="#FEFFFF" transform="matrix(1.00, 0.00, -0.00, -1.00, 640.1, 324.0)"> </text><text xml:space="preserve" font-family="Avenir-Light,Avenir" font-size="42.0" fill="#FEFFFF" transform="matrix(1.00, 0.00, -0.00, -1.00, 651.0, 324.0)">o</text><text xml:space="preserve" font-family="Avenir-Light,Avenir" font-size="42.0" fill="#FEFFFF" transform="matrix(1.00, 0.00, -0.00, -1.00, 676.0, 324.0)">t</text><text xml:space="preserve" font-family="Avenir-Light,Avenir" font-size="42.0" fill="#FEFFFF" transform="matrix(1.00, 0.00, -0.00, -1.00, 690.0, 324.0)">h</text><text xml:space="preserve" font-family="Avenir-Light,Avenir" font-size="42.0" fill="#FEFFFF" transform="matrix(1.00, 0.00, -0.00, -1.00, 713.4, 324.0)">e</text><text xml:space="preserve" font-family="Avenir-Light,Avenir" font-size="42.0" fill="#FEFFFF" transform="matrix(1.00, 0.00, -0.00, -1.00, 736.7, 324.0)">r</text><text xml:space="preserve" font-family="Avenir-Light,Avenir" font-size="42.0" fill="#FEFFFF" transform="matrix(1.00, 0.00, -0.00, -1.00, 750.7, 324.0)"> </text><text xml:space="preserve" font-family="Avenir-Light,Avenir" font-size="42.0" fill="#FEFFFF" transform="matrix(1.00, 0.00, -0.00, -1.00, 188.0, 267.0)">s</text><text xml:space="preserve" font-family="Avenir-Light,Avenir" font-size="42.0" fill="#FEFFFF" transform="matrix(1.00, 0.00, -0.00, -1.00, 205.9, 267.0)">e</text><text xml:space="preserve" font-family="Avenir-Light,Avenir" font-size="42.0" fill="#FEFFFF" transform="matrix(1.00, 0.00, -0.00, -1.00, 229.2, 267.0)">r</text><text xml:space="preserve" font-family="Avenir-Light,Avenir" font-size="42.0" fill="#FEFFFF" transform="matrix(1.00, 0.00, -0.00, -1.00, 243.2, 267.0)">v</text><text xml:space="preserve" font-family="Avenir-Light,Avenir" font-size="42.0" fill="#FEFFFF" transform="matrix(1.00, 0.00, -0.00, -1.00, 262.7, 267.0)">i</text><text xml:space="preserve" font-family="Avenir-Light,Avenir" font-size="42.0" fill="#FEFFFF" transform="matrix(1.00, 0.00, -0.00, -1.00, 272.8, 267.0)">c</text><text xml:space="preserve" font-family="Avenir-Light,Avenir" font-size="42.0" fill="#FEFFFF" transform="matrix(1.00, 0.00, -0.00, -1.00, 293.0, 267.0)">e</text><text xml:space="preserve" font-family="Avenir-Light,Avenir" font-size="42.0" fill="#FEFFFF" transform="matrix(1.00, 0.00, -0.00, -1.00, 316.3, 267.0)">s</text><text xml:space="preserve" font-family="Avenir-Light,Avenir" font-size="42.0" fill="#FEFFFF" transform="matrix(1.00, 0.00, -0.00, -1.00, 334.2, 267.0)"> </text><text xml:space="preserve" font-family="Avenir-Light,Avenir" font-size="42.0" fill="#FEFFFF" transform="matrix(1.00, 0.00, -0.00, -1.00, 345.1, 267.0)">i</text><text xml:space="preserve" font-family="Avenir-Light,Avenir" font-size="42.0" fill="#FEFFFF" transform="matrix(1.00, 0.00, -0.00, -1.00, 355.2, 267.0)">n</text><text xml:space="preserve" font-family="Avenir-Light,Avenir" font-size="42.0" fill="#FEFFFF" transform="matrix(1.00, 0.00, -0.00, -1.00, 378.6, 267.0)"> </text><text xml:space="preserve" font-family="Avenir-Light,Avenir" font-size="42.0" fill="#FEFFFF" transform="matrix(1.00, 0.00, -0.00, -1.00, 389.5, 267.0)">t</text><text xml:space="preserve" font-family="Avenir-Light,Avenir" font-size="42.0" fill="#FEFFFF" transform="matrix(1.00, 0.00, -0.00, -1.00, 403.5, 267.0)">h</text><text xml:space="preserve" font-family="Avenir-Light,Avenir" font-size="42.0" fill="#FEFFFF" transform="matrix(1.00, 0.00, -0.00, -1.00, 426.9, 267.0)">e</text><text xml:space="preserve" font-family="Avenir-Light,Avenir" font-size="42.0" fill="#FEFFFF" transform="matrix(1.00, 0.00, -0.00, -1.00, 450.2, 267.0)"> </text><text xml:space="preserve" font-family="Avenir-Light,Avenir" font-size="42.0" fill="#FEFFFF" transform="matrix(1.00, 0.00, -0.00, -1.00, 461.1, 267.0)">f</text><text xml:space="preserve" font-family="Avenir-Light,Avenir" font-size="42.0" fill="#FEFFFF" transform="matrix(1.00, 0.00, -0.00, -1.00, 473.6, 267.0)">u</text><text xml:space="preserve" font-family="Avenir-Light,Avenir" font-size="42.0" fill="#FEFFFF" transform="matrix(1.00, 0.00, -0.00, -1.00, 496.9, 267.0)">t</text><text xml:space="preserve" font-family="Avenir-Light,Avenir" font-size="42.0" fill="#FEFFFF" transform="matrix(1.00, 0.00, -0.00, -1.00, 510.9, 267.0)">u</text><text xml:space="preserve" font-family="Avenir-Light,Avenir" font-size="42.0" fill="#FEFFFF" transform="matrix(1.00, 0.00, -0.00, -1.00, 534.2, 267.0)">r</text><text xml:space="preserve" font-family="Avenir-Light,Avenir" font-size="42.0" fill="#FEFFFF" transform="matrix(1.00, 0.00, -0.00, -1.00, 547.5, 267.0)">e</text></g></svg>