<?xml version="1.0" encoding="UTF-8" standalone="no"?><svg xmlns="http://www.w3.org/2000/svg" xmlns:xlink="http://www.w3.org/1999/xlink" clip-rule="evenodd" stroke-miterlimit="10" viewBox="0 0 1920 1080"><desc>SVG generated by Keynote</desc><defs></defs><g transform="matrix(1.00, 0.00, -0.00, -1.00, 0.0, 1080.0)"><path d="M 0.0 1080.0 L 1920.0 1080.0 L 1920.0 0.0 L 0.0 0.0 Z M 0.0 1080.0 " fill="#000000"></path><text xml:space="preserve" font-family="Avenir-Light,Avenir" font-size="62.0" fill="#FEFFFF" transform="matrix(1.00, 0.00, -0.00, -1.00, 102.0, 945.7)">F</text><text xml:space="preserve" font-family="Avenir-Light,Avenir" font-size="62.0" fill="#FEFFFF" transform="matrix(1.00, 0.00, -0.00, -1.00, 146.4, 945.7)">E</text><text xml:space="preserve" font-family="Avenir-Light,Avenir" font-size="62.0" fill="#FEFFFF" transform="matrix(1.00, 0.00, -0.00, -1.00, 193.1, 945.7)">A</text><text xml:space="preserve" font-family="Avenir-Light,Avenir" font-size="62.0" fill="#FEFFFF" transform="matrix(1.00, 0.00, -0.00, -1.00, 241.3, 945.7)">T</text><text xml:space="preserve" font-family="Avenir-Light,Avenir" font-size="62.0" fill="#FEFFFF" transform="matrix(1.00, 0.00, -0.00, -1.00, 286.8, 945.7)">U</text><text xml:space="preserve" font-family="Avenir-Light,Avenir" font-size="62.0" fill="#FEFFFF" transform="matrix(1.00, 0.00, -0.00, -1.00, 339.1, 945.7)">R</text><text xml:space="preserve" font-family="Avenir-Light,Avenir" font-size="62.0" fill="#FEFFFF" transform="matrix(1.00, 0.00, -0.00, -1.00, 385.8, 945.7)">E</text><text xml:space="preserve" font-family="Avenir-Light,Avenir" font-size="62.0" fill="#FEFFFF" transform="matrix(1.00, 0.00, -0.00, -1.00, 432.5, 945.7)">S</text><text xml:space="preserve" font-family="Avenir-Light,Avenir" font-size="62.0" fill="#FEFFFF" transform="matrix(1.00, 0.00, -0.00, -1.00, 476.9, 945.7)">:</text><text xml:space="preserve" font-family="Avenir-Light,Avenir" font-size="62.0" fill="#FEFFFF" transform="matrix(1.00, 0.00, -0.00, -1.00, 502.9, 945.7)"> </text><text xml:space="preserve" font-family="Avenir-Light,Avenir" font-size="62.0" fill="#FEFFFF" transform="matrix(1.00, 0.00, -0.00, -1.00, 528.9, 945.7)">A</text><text xml:space="preserve" font-family="Avenir-Light,Avenir" font-size="62.0" fill="#FEFFFF" transform="matrix(1.00, 0.00, -0.00, -1.00, 581.3, 945.7)">C</text><text xml:space="preserve" font-family="Avenir-Light,Avenir" font-size="62.0" fill="#FEFFFF" transform="matrix(1.00, 0.00, -0.00, -1.00, 634.9, 945.7)">C</text><text xml:space="preserve" font-family="Avenir-Light,Avenir" font-size="62.0" fill="#FEFFFF" transform="matrix(1.00, 0.00, -0.00, -1.00, 688.5, 945.7)">E</text><text xml:space="preserve" font-family="Avenir-Light,Avenir" font-size="62.0" fill="#FEFFFF" transform="matrix(1.00, 0.00, -0.00, -1.00, 735.1, 945.7)">S</text><text xml:space="preserve" font-family="Avenir-Light,Avenir" font-size="62.0" fill="#FEFFFF" transform="matrix(1.00, 0.00, -0.00, -1.00, 779.5, 945.7)">S</text><text xml:space="preserve" font-family="Avenir-Light,Avenir" font-size="37.8" fill="#646363" transform="matrix(1.00, 0.00, -0.00, -1.00, 102.0, 693.9)">•</text><text xml:space="preserve" font-family="Avenir-Light,Avenir" font-size="42.0" fill="#FEFFFF" transform="matrix(1.00, 0.00, -0.00, -1.00, 145.0, 693.0)">A</text><text xml:space="preserve" font-family="Avenir-Light,Avenir" font-size="42.0" fill="#FEFFFF" transform="matrix(1.00, 0.00, -0.00, -1.00, 173.8, 693.0)">c</text><text xml:space="preserve" font-family="Avenir-Light,Avenir" font-size="42.0" fill="#FEFFFF" transform="matrix(1.00, 0.00, -0.00, -1.00, 194.0, 693.0)">c</text><text xml:space="preserve" font-family="Avenir-Light,Avenir" font-size="42.0" fill="#FEFFFF" transform="matrix(1.00, 0.00, -0.00, -1.00, 214.2, 693.0)">e</text><text xml:space="preserve" font-family="Avenir-Light,Avenir" font-size="42.0" fill="#FEFFFF" transform="matrix(1.00, 0.00, -0.00, -1.00, 237.5, 693.0)">s</text><text xml:space="preserve" font-family="Avenir-Light,Avenir" font-size="42.0" fill="#FEFFFF" transform="matrix(1.00, 0.00, -0.00, -1.00, 255.4, 693.0)">s</text><text xml:space="preserve" font-family="Avenir-Light,Avenir" font-size="42.0" fill="#FEFFFF" transform="matrix(1.00, 0.00, -0.00, -1.00, 273.3, 693.0)"> </text><text xml:space="preserve" font-family="Avenir-Light,Avenir" font-size="42.0" fill="#FEFFFF" transform="matrix(1.00, 0.00, -0.00, -1.00, 284.2, 693.0)">t</text><text xml:space="preserve" font-family="Avenir-Light,Avenir" font-size="42.0" fill="#FEFFFF" transform="matrix(1.00, 0.00, -0.00, -1.00, 298.2, 693.0)">o</text><text xml:space="preserve" font-family="Avenir-Light,Avenir" font-size="42.0" fill="#FEFFFF" transform="matrix(1.00, 0.00, -0.00, -1.00, 323.2, 693.0)"> </text><text xml:space="preserve" font-family="Avenir-Light,Avenir" font-size="42.0" fill="#FEFFFF" transform="matrix(1.00, 0.00, -0.00, -1.00, 334.1, 693.0)">R</text><text xml:space="preserve" font-family="Avenir-Light,Avenir" font-size="42.0" fill="#FEFFFF" transform="matrix(1.00, 0.00, -0.00, -1.00, 359.0, 693.0)">D</text><text xml:space="preserve" font-family="Avenir-Light,Avenir" font-size="42.0" fill="#FEFFFF" transform="matrix(1.00, 0.00, -0.00, -1.00, 390.1, 693.0)">S</text><text xml:space="preserve" font-family="Avenir-Light,Avenir" font-size="42.0" fill="#FEFFFF" transform="matrix(1.00, 0.00, -0.00, -1.00, 413.5, 693.0)"> </text><text xml:space="preserve" font-family="Avenir-Light,Avenir" font-size="42.0" fill="#FEFFFF" transform="matrix(1.00, 0.00, -0.00, -1.00, 424.4, 693.0)">d</text><text xml:space="preserve" font-family="Avenir-Light,Avenir" font-size="42.0" fill="#FEFFFF" transform="matrix(1.00, 0.00, -0.00, -1.00, 450.0, 693.0)">a</text><text xml:space="preserve" font-family="Avenir-Light,Avenir" font-size="42.0" fill="#FEFFFF" transform="matrix(1.00, 0.00, -0.00, -1.00, 471.8, 693.0)">s</text><text xml:space="preserve" font-family="Avenir-Light,Avenir" font-size="42.0" fill="#FEFFFF" transform="matrix(1.00, 0.00, -0.00, -1.00, 489.7, 693.0)">h</text><text xml:space="preserve" font-family="Avenir-Light,Avenir" font-size="42.0" fill="#FEFFFF" transform="matrix(1.00, 0.00, -0.00, -1.00, 513.1, 693.0)">b</text><text xml:space="preserve" font-family="Avenir-Light,Avenir" font-size="42.0" fill="#FEFFFF" transform="matrix(1.00, 0.00, -0.00, -1.00, 538.8, 693.0)">o</text><text xml:space="preserve" font-family="Avenir-Light,Avenir" font-size="42.0" fill="#FEFFFF" transform="matrix(1.00, 0.00, -0.00, -1.00, 563.7, 693.0)">a</text><text xml:space="preserve" font-family="Avenir-Light,Avenir" font-size="42.0" fill="#FEFFFF" transform="matrix(1.00, 0.00, -0.00, -1.00, 585.5, 693.0)">r</text><text xml:space="preserve" font-family="Avenir-Light,Avenir" font-size="42.0" fill="#FEFFFF" transform="matrix(1.00, 0.00, -0.00, -1.00, 598.7, 693.0)">d</text><text xml:space="preserve" font-family="Avenir-Light,Avenir" font-size="42.0" fill="#FEFFFF" transform="matrix(1.00, 0.00, -0.00, -1.00, 624.4, 693.0)"> </text><text xml:space="preserve" font-family="Avenir-Light,Avenir" font-size="42.0" fill="#FEFFFF" transform="matrix(1.00, 0.00, -0.00, -1.00, 635.3, 693.0)">o</text><text xml:space="preserve" font-family="Avenir-Light,Avenir" font-size="42.0" fill="#FEFFFF" transform="matrix(1.00, 0.00, -0.00, -1.00, 660.3, 693.0)">r</text><text xml:space="preserve" font-family="LucidaGrande,Lucida Grande" font-size="42.0" fill="#FEFFFF" transform="matrix(1.00, 0.00, -0.00, -1.00, 674.2, 693.0)"> </text><text xml:space="preserve" font-family="Avenir-Light,Avenir" font-size="42.0" fill="#FEFFFF" transform="matrix(1.00, 0.00, -0.00, -1.00, 145.0, 636.0)">f</text><text xml:space="preserve" font-family="Avenir-Light,Avenir" font-size="42.0" fill="#FEFFFF" transform="matrix(1.00, 0.00, -0.00, -1.00, 157.4, 636.0)">u</text><text xml:space="preserve" font-family="Avenir-Light,Avenir" font-size="42.0" fill="#FEFFFF" transform="matrix(1.00, 0.00, -0.00, -1.00, 180.8, 636.0)">l</text><text xml:space="preserve" font-family="Avenir-Light,Avenir" font-size="42.0" fill="#FEFFFF" transform="matrix(1.00, 0.00, -0.00, -1.00, 190.9, 636.0)">l</text><text xml:space="preserve" font-family="Avenir-Light,Avenir" font-size="42.0" fill="#FEFFFF" transform="matrix(1.00, 0.00, -0.00, -1.00, 201.0, 636.0)"> </text><text xml:space="preserve" font-family="Avenir-Light,Avenir" font-size="42.0" fill="#FEFFFF" transform="matrix(1.00, 0.00, -0.00, -1.00, 211.9, 636.0)">d</text><text xml:space="preserve" font-family="Avenir-Light,Avenir" font-size="42.0" fill="#FEFFFF" transform="matrix(1.00, 0.00, -0.00, -1.00, 237.6, 636.0)">e</text><text xml:space="preserve" font-family="Avenir-Light,Avenir" font-size="42.0" fill="#FEFFFF" transform="matrix(1.00, 0.00, -0.00, -1.00, 260.9, 636.0)">s</text><text xml:space="preserve" font-family="Avenir-Light,Avenir" font-size="42.0" fill="#FEFFFF" transform="matrix(1.00, 0.00, -0.00, -1.00, 278.8, 636.0)">k</text><text xml:space="preserve" font-family="Avenir-Light,Avenir" font-size="42.0" fill="#FEFFFF" transform="matrix(1.00, 0.00, -0.00, -1.00, 299.0, 636.0)">t</text><text xml:space="preserve" font-family="Avenir-Light,Avenir" font-size="42.0" fill="#FEFFFF" transform="matrix(1.00, 0.00, -0.00, -1.00, 313.0, 636.0)">o</text><text xml:space="preserve" font-family="Avenir-Light,Avenir" font-size="42.0" fill="#FEFFFF" transform="matrix(1.00, 0.00, -0.00, -1.00, 337.9, 636.0)">p</text><text xml:space="preserve" font-family="Avenir-Light,Avenir" font-size="42.0" fill="#FEFFFF" transform="matrix(1.00, 0.00, -0.00, -1.00, 363.6, 636.0)"> </text><text xml:space="preserve" font-family="Avenir-Light,Avenir" font-size="42.0" fill="#FEFFFF" transform="matrix(1.00, 0.00, -0.00, -1.00, 374.5, 636.0)">e</text><text xml:space="preserve" font-family="Avenir-Light,Avenir" font-size="42.0" fill="#FEFFFF" transform="matrix(1.00, 0.00, -0.00, -1.00, 397.9, 636.0)">n</text><text xml:space="preserve" font-family="Avenir-Light,Avenir" font-size="42.0" fill="#FEFFFF" transform="matrix(1.00, 0.00, -0.00, -1.00, 421.2, 636.0)">v</text><text xml:space="preserve" font-family="Avenir-Light,Avenir" font-size="42.0" fill="#FEFFFF" transform="matrix(1.00, 0.00, -0.00, -1.00, 440.7, 636.0)">i</text><text xml:space="preserve" font-family="Avenir-Light,Avenir" font-size="42.0" fill="#FEFFFF" transform="matrix(1.00, 0.00, -0.00, -1.00, 450.8, 636.0)">r</text><text xml:space="preserve" font-family="Avenir-Light,Avenir" font-size="42.0" fill="#FEFFFF" transform="matrix(1.00, 0.00, -0.00, -1.00, 464.0, 636.0)">o</text><text xml:space="preserve" font-family="Avenir-Light,Avenir" font-size="42.0" fill="#FEFFFF" transform="matrix(1.00, 0.00, -0.00, -1.00, 488.9, 636.0)">n</text><text xml:space="preserve" font-family="Avenir-Light,Avenir" font-size="42.0" fill="#FEFFFF" transform="matrix(1.00, 0.00, -0.00, -1.00, 512.3, 636.0)">m</text><text xml:space="preserve" font-family="Avenir-Light,Avenir" font-size="42.0" fill="#FEFFFF" transform="matrix(1.00, 0.00, -0.00, -1.00, 548.1, 636.0)">e</text><text xml:space="preserve" font-family="Avenir-Light,Avenir" font-size="42.0" fill="#FEFFFF" transform="matrix(1.00, 0.00, -0.00, -1.00, 571.4, 636.0)">n</text><text xml:space="preserve" font-family="Avenir-Light,Avenir" font-size="42.0" fill="#FEFFFF" transform="matrix(1.00, 0.00, -0.00, -1.00, 594.8, 636.0)">t</text><text xml:space="preserve" font-family="Avenir-Light,Avenir" font-size="42.0" fill="#FEFFFF" transform="matrix(1.00, 0.00, -0.00, -1.00, 608.8, 636.0)"> </text><text xml:space="preserve" font-family="Avenir-Light,Avenir" font-size="37.8" fill="#646363" transform="matrix(1.00, 0.00, -0.00, -1.00, 145.0, 534.9)">•</text><text xml:space="preserve" font-family="Avenir-Light,Avenir" font-size="42.0" fill="#FEFFFF" transform="matrix(1.00, 0.00, -0.00, -1.00, 188.0, 534.0)">A</text><text xml:space="preserve" font-family="Avenir-Light,Avenir" font-size="42.0" fill="#FEFFFF" transform="matrix(1.00, 0.00, -0.00, -1.00, 216.8, 534.0)">l</text><text xml:space="preserve" font-family="Avenir-Light,Avenir" font-size="42.0" fill="#FEFFFF" transform="matrix(1.00, 0.00, -0.00, -1.00, 226.9, 534.0)">l</text><text xml:space="preserve" font-family="Avenir-Light,Avenir" font-size="42.0" fill="#FEFFFF" transform="matrix(1.00, 0.00, -0.00, -1.00, 237.0, 534.0)">o</text><text xml:space="preserve" font-family="Avenir-Light,Avenir" font-size="42.0" fill="#FEFFFF" transform="matrix(1.00, 0.00, -0.00, -1.00, 261.9, 534.0)">w</text><text xml:space="preserve" font-family="Avenir-Light,Avenir" font-size="42.0" fill="#FEFFFF" transform="matrix(1.00, 0.00, -0.00, -1.00, 291.5, 534.0)">s</text><text xml:space="preserve" font-family="Avenir-Light,Avenir" font-size="42.0" fill="#FEFFFF" transform="matrix(1.00, 0.00, -0.00, -1.00, 309.4, 534.0)"> </text><text xml:space="preserve" font-family="Avenir-Light,Avenir" font-size="42.0" fill="#FEFFFF" transform="matrix(1.00, 0.00, -0.00, -1.00, 320.3, 534.0)">a</text><text xml:space="preserve" font-family="Avenir-Light,Avenir" font-size="42.0" fill="#FEFFFF" transform="matrix(1.00, 0.00, -0.00, -1.00, 342.1, 534.0)">c</text><text xml:space="preserve" font-family="Avenir-Light,Avenir" font-size="42.0" fill="#FEFFFF" transform="matrix(1.00, 0.00, -0.00, -1.00, 362.3, 534.0)">c</text><text xml:space="preserve" font-family="Avenir-Light,Avenir" font-size="42.0" fill="#FEFFFF" transform="matrix(1.00, 0.00, -0.00, -1.00, 382.5, 534.0)">e</text><text xml:space="preserve" font-family="Avenir-Light,Avenir" font-size="42.0" fill="#FEFFFF" transform="matrix(1.00, 0.00, -0.00, -1.00, 405.9, 534.0)">s</text><text xml:space="preserve" font-family="Avenir-Light,Avenir" font-size="42.0" fill="#FEFFFF" transform="matrix(1.00, 0.00, -0.00, -1.00, 423.7, 534.0)">s</text><text xml:space="preserve" font-family="Avenir-Light,Avenir" font-size="42.0" fill="#FEFFFF" transform="matrix(1.00, 0.00, -0.00, -1.00, 441.6, 534.0)"> </text><text xml:space="preserve" font-family="Avenir-Light,Avenir" font-size="42.0" fill="#FEFFFF" transform="matrix(1.00, 0.00, -0.00, -1.00, 452.6, 534.0)">t</text><text xml:space="preserve" font-family="Avenir-Light,Avenir" font-size="42.0" fill="#FEFFFF" transform="matrix(1.00, 0.00, -0.00, -1.00, 466.5, 534.0)">o</text><text xml:space="preserve" font-family="Avenir-Light,Avenir" font-size="42.0" fill="#FEFFFF" transform="matrix(1.00, 0.00, -0.00, -1.00, 491.5, 534.0)"> </text><text xml:space="preserve" font-family="Avenir-Light,Avenir" font-size="42.0" fill="#FEFFFF" transform="matrix(1.00, 0.00, -0.00, -1.00, 502.4, 534.0)">h</text><text xml:space="preserve" font-family="Avenir-Light,Avenir" font-size="42.0" fill="#FEFFFF" transform="matrix(1.00, 0.00, -0.00, -1.00, 525.8, 534.0)">o</text><text xml:space="preserve" font-family="Avenir-Light,Avenir" font-size="42.0" fill="#FEFFFF" transform="matrix(1.00, 0.00, -0.00, -1.00, 550.7, 534.0)">m</text><text xml:space="preserve" font-family="Avenir-Light,Avenir" font-size="42.0" fill="#FEFFFF" transform="matrix(1.00, 0.00, -0.00, -1.00, 586.5, 534.0)">e</text><text xml:space="preserve" font-family="Avenir-Light,Avenir" font-size="42.0" fill="#FEFFFF" transform="matrix(1.00, 0.00, -0.00, -1.00, 609.8, 534.0)"> </text><text xml:space="preserve" font-family="Avenir-Light,Avenir" font-size="42.0" fill="#FEFFFF" transform="matrix(1.00, 0.00, -0.00, -1.00, 620.8, 534.0)">f</text><text xml:space="preserve" font-family="Avenir-Light,Avenir" font-size="42.0" fill="#FEFFFF" transform="matrix(1.00, 0.00, -0.00, -1.00, 633.2, 534.0)">o</text><text xml:space="preserve" font-family="Avenir-Light,Avenir" font-size="42.0" fill="#FEFFFF" transform="matrix(1.00, 0.00, -0.00, -1.00, 658.1, 534.0)">l</text><text xml:space="preserve" font-family="Avenir-Light,Avenir" font-size="42.0" fill="#FEFFFF" transform="matrix(1.00, 0.00, -0.00, -1.00, 668.2, 534.0)">d</text><text xml:space="preserve" font-family="Avenir-Light,Avenir" font-size="42.0" fill="#FEFFFF" transform="matrix(1.00, 0.00, -0.00, -1.00, 693.9, 534.0)">e</text><text xml:space="preserve" font-family="Avenir-Light,Avenir" font-size="42.0" fill="#FEFFFF" transform="matrix(1.00, 0.00, -0.00, -1.00, 717.2, 534.0)">r</text><text xml:space="preserve" font-family="Avenir-Light,Avenir" font-size="42.0" fill="#FEFFFF" transform="matrix(1.00, 0.00, -0.00, -1.00, 731.2, 534.0)"> </text><text xml:space="preserve" font-family="Avenir-Light,Avenir" font-size="42.0" fill="#FEFFFF" transform="matrix(1.00, 0.00, -0.00, -1.00, 742.1, 534.0)">w</text><text xml:space="preserve" font-family="Avenir-Light,Avenir" font-size="42.0" fill="#FEFFFF" transform="matrix(1.00, 0.00, -0.00, -1.00, 771.7, 534.0)">i</text><text xml:space="preserve" font-family="Avenir-Light,Avenir" font-size="42.0" fill="#FEFFFF" transform="matrix(1.00, 0.00, -0.00, -1.00, 781.8, 534.0)">t</text><text xml:space="preserve" font-family="Avenir-Light,Avenir" font-size="42.0" fill="#FEFFFF" transform="matrix(1.00, 0.00, -0.00, -1.00, 795.8, 534.0)">h</text><text xml:space="preserve" font-family="Avenir-Light,Avenir" font-size="42.0" fill="#FEFFFF" transform="matrix(1.00, 0.00, -0.00, -1.00, 819.2, 534.0)"> </text><text xml:space="preserve" font-family="Avenir-Light,Avenir" font-size="42.0" fill="#FEFFFF" transform="matrix(1.00, 0.00, -0.00, -1.00, 188.0, 477.0)">u</text><text xml:space="preserve" font-family="Avenir-Light,Avenir" font-size="42.0" fill="#FEFFFF" transform="matrix(1.00, 0.00, -0.00, -1.00, 211.4, 477.0)">s</text><text xml:space="preserve" font-family="Avenir-Light,Avenir" font-size="42.0" fill="#FEFFFF" transform="matrix(1.00, 0.00, -0.00, -1.00, 229.2, 477.0)">e</text><text xml:space="preserve" font-family="Avenir-Light,Avenir" font-size="42.0" fill="#FEFFFF" transform="matrix(1.00, 0.00, -0.00, -1.00, 252.6, 477.0)">r</text><text xml:space="preserve" font-family="Avenir-Light,Avenir" font-size="42.0" fill="#FEFFFF" transform="matrix(1.00, 0.00, -0.00, -1.00, 266.6, 477.0)">’</text><text xml:space="preserve" font-family="Avenir-Light,Avenir" font-size="42.0" fill="#FEFFFF" transform="matrix(1.00, 0.00, -0.00, -1.00, 272.8, 477.0)">s</text><text xml:space="preserve" font-family="Avenir-Light,Avenir" font-size="42.0" fill="#FEFFFF" transform="matrix(1.00, 0.00, -0.00, -1.00, 290.7, 477.0)"> </text><text xml:space="preserve" font-family="Avenir-Light,Avenir" font-size="42.0" fill="#FEFFFF" transform="matrix(1.00, 0.00, -0.00, -1.00, 301.7, 477.0)">d</text><text xml:space="preserve" font-family="Avenir-Light,Avenir" font-size="42.0" fill="#FEFFFF" transform="matrix(1.00, 0.00, -0.00, -1.00, 327.3, 477.0)">o</text><text xml:space="preserve" font-family="Avenir-Light,Avenir" font-size="42.0" fill="#FEFFFF" transform="matrix(1.00, 0.00, -0.00, -1.00, 352.3, 477.0)">c</text><text xml:space="preserve" font-family="Avenir-Light,Avenir" font-size="42.0" fill="#FEFFFF" transform="matrix(1.00, 0.00, -0.00, -1.00, 372.5, 477.0)">u</text><text xml:space="preserve" font-family="Avenir-Light,Avenir" font-size="42.0" fill="#FEFFFF" transform="matrix(1.00, 0.00, -0.00, -1.00, 395.8, 477.0)">m</text><text xml:space="preserve" font-family="Avenir-Light,Avenir" font-size="42.0" fill="#FEFFFF" transform="matrix(1.00, 0.00, -0.00, -1.00, 431.6, 477.0)">e</text><text xml:space="preserve" font-family="Avenir-Light,Avenir" font-size="42.0" fill="#FEFFFF" transform="matrix(1.00, 0.00, -0.00, -1.00, 455.0, 477.0)">n</text><text xml:space="preserve" font-family="Avenir-Light,Avenir" font-size="42.0" fill="#FEFFFF" transform="matrix(1.00, 0.00, -0.00, -1.00, 478.3, 477.0)">t</text><text xml:space="preserve" font-family="Avenir-Light,Avenir" font-size="42.0" fill="#FEFFFF" transform="matrix(1.00, 0.00, -0.00, -1.00, 492.3, 477.0)">s</text><text xml:space="preserve" font-family="Avenir-Light,Avenir" font-size="42.0" fill="#FEFFFF" transform="matrix(1.00, 0.00, -0.00, -1.00, 510.2, 477.0)"> </text><text xml:space="preserve" font-family="Avenir-Light,Avenir" font-size="37.8" fill="#646363" transform="matrix(1.00, 0.00, -0.00, -1.00, 145.0, 375.9)">•</text><text xml:space="preserve" font-family="Avenir-Light,Avenir" font-size="42.0" fill="#FEFFFF" transform="matrix(1.00, 0.00, -0.00, -1.00, 188.0, 375.0)">C</text><text xml:space="preserve" font-family="Avenir-Light,Avenir" font-size="42.0" fill="#FEFFFF" transform="matrix(1.00, 0.00, -0.00, -1.00, 217.6, 375.0)">a</text><text xml:space="preserve" font-family="Avenir-Light,Avenir" font-size="42.0" fill="#FEFFFF" transform="matrix(1.00, 0.00, -0.00, -1.00, 239.4, 375.0)">n</text><text xml:space="preserve" font-family="Avenir-Light,Avenir" font-size="42.0" fill="#FEFFFF" transform="matrix(1.00, 0.00, -0.00, -1.00, 262.7, 375.0)"> </text><text xml:space="preserve" font-family="Avenir-Light,Avenir" font-size="42.0" fill="#FEFFFF" transform="matrix(1.00, 0.00, -0.00, -1.00, 273.6, 375.0)">o</text><text xml:space="preserve" font-family="Avenir-Light,Avenir" font-size="42.0" fill="#FEFFFF" transform="matrix(1.00, 0.00, -0.00, -1.00, 298.6, 375.0)">p</text><text xml:space="preserve" font-family="Avenir-Light,Avenir" font-size="42.0" fill="#FEFFFF" transform="matrix(1.00, 0.00, -0.00, -1.00, 324.2, 375.0)">e</text><text xml:space="preserve" font-family="Avenir-Light,Avenir" font-size="42.0" fill="#FEFFFF" transform="matrix(1.00, 0.00, -0.00, -1.00, 347.6, 375.0)">n</text><text xml:space="preserve" font-family="Avenir-Light,Avenir" font-size="42.0" fill="#FEFFFF" transform="matrix(1.00, 0.00, -0.00, -1.00, 371.0, 375.0)"> </text><text xml:space="preserve" font-family="Avenir-Light,Avenir" font-size="42.0" fill="#FEFFFF" transform="matrix(1.00, 0.00, -0.00, -1.00, 381.9, 375.0)">a</text><text xml:space="preserve" font-family="Avenir-Light,Avenir" font-size="42.0" fill="#FEFFFF" transform="matrix(1.00, 0.00, -0.00, -1.00, 403.7, 375.0)">l</text><text xml:space="preserve" font-family="Avenir-Light,Avenir" font-size="42.0" fill="#FEFFFF" transform="matrix(1.00, 0.00, -0.00, -1.00, 413.8, 375.0)">l</text><text xml:space="preserve" font-family="Avenir-Light,Avenir" font-size="42.0" fill="#FEFFFF" transform="matrix(1.00, 0.00, -0.00, -1.00, 423.9, 375.0)"> </text><text xml:space="preserve" font-family="Avenir-Light,Avenir" font-size="42.0" fill="#FEFFFF" transform="matrix(1.00, 0.00, -0.00, -1.00, 434.8, 375.0)">W</text><text xml:space="preserve" font-family="Avenir-Light,Avenir" font-size="42.0" fill="#FEFFFF" transform="matrix(1.00, 0.00, -0.00, -1.00, 475.4, 375.0)">i</text><text xml:space="preserve" font-family="Avenir-Light,Avenir" font-size="42.0" fill="#FEFFFF" transform="matrix(1.00, 0.00, -0.00, -1.00, 485.5, 375.0)">n</text><text xml:space="preserve" font-family="Avenir-Light,Avenir" font-size="42.0" fill="#FEFFFF" transform="matrix(1.00, 0.00, -0.00, -1.00, 508.9, 375.0)">d</text><text xml:space="preserve" font-family="Avenir-Light,Avenir" font-size="42.0" fill="#FEFFFF" transform="matrix(1.00, 0.00, -0.00, -1.00, 534.5, 375.0)">o</text><text xml:space="preserve" font-family="Avenir-Light,Avenir" font-size="42.0" fill="#FEFFFF" transform="matrix(1.00, 0.00, -0.00, -1.00, 559.5, 375.0)">w</text><text xml:space="preserve" font-family="Avenir-Light,Avenir" font-size="42.0" fill="#FEFFFF" transform="matrix(1.00, 0.00, -0.00, -1.00, 589.1, 375.0)">s</text><text xml:space="preserve" font-family="Avenir-Light,Avenir" font-size="42.0" fill="#FEFFFF" transform="matrix(1.00, 0.00, -0.00, -1.00, 606.9, 375.0)"> </text><text xml:space="preserve" font-family="Avenir-Light,Avenir" font-size="42.0" fill="#FEFFFF" transform="matrix(1.00, 0.00, -0.00, -1.00, 617.9, 375.0)">p</text><text xml:space="preserve" font-family="Avenir-Light,Avenir" font-size="42.0" fill="#FEFFFF" transform="matrix(1.00, 0.00, -0.00, -1.00, 643.5, 375.0)">r</text><text xml:space="preserve" font-family="Avenir-Light,Avenir" font-size="42.0" fill="#FEFFFF" transform="matrix(1.00, 0.00, -0.00, -1.00, 656.8, 375.0)">o</text><text xml:space="preserve" font-family="Avenir-Light,Avenir" font-size="42.0" fill="#FEFFFF" transform="matrix(1.00, 0.00, -0.00, -1.00, 681.7, 375.0)">g</text><text xml:space="preserve" font-family="Avenir-Light,Avenir" font-size="42.0" fill="#FEFFFF" transform="matrix(1.00, 0.00, -0.00, -1.00, 707.4, 375.0)">r</text><text xml:space="preserve" font-family="Avenir-Light,Avenir" font-size="42.0" fill="#FEFFFF" transform="matrix(1.00, 0.00, -0.00, -1.00, 721.4, 375.0)">a</text><text xml:space="preserve" font-family="Avenir-Light,Avenir" font-size="42.0" fill="#FEFFFF" transform="matrix(1.00, 0.00, -0.00, -1.00, 743.2, 375.0)">m</text><text xml:space="preserve" font-family="Avenir-Light,Avenir" font-size="42.0" fill="#FEFFFF" transform="matrix(1.00, 0.00, -0.00, -1.00, 778.9, 375.0)">s</text><text xml:space="preserve" font-family="Avenir-Light,Avenir" font-size="42.0" fill="#FEFFFF" transform="matrix(1.00, 0.00, -0.00, -1.00, 796.8, 375.0)"> </text><text xml:space="preserve" font-family="Avenir-Light,Avenir" font-size="42.0" fill="#FEFFFF" transform="matrix(1.00, 0.00, -0.00, -1.00, 188.0, 318.0)">f</text><text xml:space="preserve" font-family="Avenir-Light,Avenir" font-size="42.0" fill="#FEFFFF" transform="matrix(1.00, 0.00, -0.00, -1.00, 200.4, 318.0)">r</text><text xml:space="preserve" font-family="Avenir-Light,Avenir" font-size="42.0" fill="#FEFFFF" transform="matrix(1.00, 0.00, -0.00, -1.00, 213.7, 318.0)">o</text><text xml:space="preserve" font-family="Avenir-Light,Avenir" font-size="42.0" fill="#FEFFFF" transform="matrix(1.00, 0.00, -0.00, -1.00, 238.6, 318.0)">m</text><text xml:space="preserve" font-family="Avenir-Light,Avenir" font-size="42.0" fill="#FEFFFF" transform="matrix(1.00, 0.00, -0.00, -1.00, 274.4, 318.0)"> </text><text xml:space="preserve" font-family="Avenir-Light,Avenir" font-size="42.0" fill="#FEFFFF" transform="matrix(1.00, 0.00, -0.00, -1.00, 285.3, 318.0)">i</text><text xml:space="preserve" font-family="Avenir-Light,Avenir" font-size="42.0" fill="#FEFFFF" transform="matrix(1.00, 0.00, -0.00, -1.00, 295.4, 318.0)">P</text><text xml:space="preserve" font-family="Avenir-Light,Avenir" font-size="42.0" fill="#FEFFFF" transform="matrix(1.00, 0.00, -0.00, -1.00, 319.5, 318.0)">a</text><text xml:space="preserve" font-family="Avenir-Light,Avenir" font-size="42.0" fill="#FEFFFF" transform="matrix(1.00, 0.00, -0.00, -1.00, 341.3, 318.0)">d</text><g><clipPath id="clip0x6180008b6560"><path d="M 1006.0 828.0 L 1878.0 828.0 L 1878.0 252.0 L 1006.0 252.0 Z M 1006.2 828.2 "></path></clipPath><g clip-path="url(#clip0x6180008b6560)"><image xlink:href="../../BD47562B-390E-42EC-86C7-5FDBD51907D8/assets/DE2D3CA1A3B9A3DB5F58690A21394477.png" width="2048.00" height="1536.00" transform="matrix(0.57, 0.00, -0.00, -0.57, 858.0, 978.0)"></image></g></g></g></svg>