<?xml version="1.0" encoding="UTF-8" standalone="no"?><svg xmlns="http://www.w3.org/2000/svg" xmlns:xlink="http://www.w3.org/1999/xlink" clip-rule="evenodd" stroke-miterlimit="10" viewBox="0 0 1920 1080"><desc>SVG generated by Keynote</desc><defs></defs><g transform="matrix(1.00, 0.00, -0.00, -1.00, 0.0, 1080.0)"><path d="M 0.0 1080.0 L 1920.0 1080.0 L 1920.0 0.0 L 0.0 0.0 Z M 0.0 1080.0 " fill="#000000"></path><g><clipPath id="clip0x6080008a57c0"><path d="M 1040.0 1080.0 L 2000.0 1080.0 L 2000.0 0.0 L 1040.0 0.0 Z M 1040.5 1080.0 "></path></clipPath><g clip-path="url(#clip0x6080008a57c0)"><image xlink:href="../../0CAD4B1C-711A-451B-AA76-1EF3D33AAE83/assets/AEE87BFD37774728462578C2B6E14CF9.png" width="2048.00" height="1536.00" transform="matrix(0.70, 0.00, -0.00, -0.70, 874.0, 1080.0)"></image></g></g><text xml:space="preserve" font-family="Avenir-Light,Avenir" font-size="62.0" fill="#FEFFFF" transform="matrix(1.00, 0.00, -0.00, -1.00, 102.0, 945.7)">F</text><text xml:space="preserve" font-family="Avenir-Light,Avenir" font-size="62.0" fill="#FEFFFF" transform="matrix(1.00, 0.00, -0.00, -1.00, 146.4, 945.7)">E</text><text xml:space="preserve" font-family="Avenir-Light,Avenir" font-size="62.0" fill="#FEFFFF" transform="matrix(1.00, 0.00, -0.00, -1.00, 193.1, 945.7)">A</text><text xml:space="preserve" font-family="Avenir-Light,Avenir" font-size="62.0" fill="#FEFFFF" transform="matrix(1.00, 0.00, -0.00, -1.00, 241.3, 945.7)">T</text><text xml:space="preserve" font-family="Avenir-Light,Avenir" font-size="62.0" fill="#FEFFFF" transform="matrix(1.00, 0.00, -0.00, -1.00, 286.8, 945.7)">U</text><text xml:space="preserve" font-family="Avenir-Light,Avenir" font-size="62.0" fill="#FEFFFF" transform="matrix(1.00, 0.00, -0.00, -1.00, 339.1, 945.7)">R</text><text xml:space="preserve" font-family="Avenir-Light,Avenir" font-size="62.0" fill="#FEFFFF" transform="matrix(1.00, 0.00, -0.00, -1.00, 385.8, 945.7)">E</text><text xml:space="preserve" font-family="Avenir-Light,Avenir" font-size="62.0" fill="#FEFFFF" transform="matrix(1.00, 0.00, -0.00, -1.00, 432.5, 945.7)">S</text><text xml:space="preserve" font-family="Avenir-Light,Avenir" font-size="62.0" fill="#FEFFFF" transform="matrix(1.00, 0.00, -0.00, -1.00, 476.9, 945.7)">:</text><text xml:space="preserve" font-family="Avenir-Light,Avenir" font-size="62.0" fill="#FEFFFF" transform="matrix(1.00, 0.00, -0.00, -1.00, 502.9, 945.7)"> </text><text xml:space="preserve" font-family="Avenir-Light,Avenir" font-size="62.0" fill="#FEFFFF" transform="matrix(1.00, 0.00, -0.00, -1.00, 528.9, 945.7)">G</text><text xml:space="preserve" font-family="Avenir-Light,Avenir" font-size="62.0" fill="#FEFFFF" transform="matrix(1.00, 0.00, -0.00, -1.00, 587.1, 945.7)">E</text><text xml:space="preserve" font-family="Avenir-Light,Avenir" font-size="62.0" fill="#FEFFFF" transform="matrix(1.00, 0.00, -0.00, -1.00, 633.8, 945.7)">S</text><text xml:space="preserve" font-family="Avenir-Light,Avenir" font-size="62.0" fill="#FEFFFF" transform="matrix(1.00, 0.00, -0.00, -1.00, 678.2, 945.7)">T</text><text xml:space="preserve" font-family="Avenir-Light,Avenir" font-size="62.0" fill="#FEFFFF" transform="matrix(1.00, 0.00, -0.00, -1.00, 723.7, 945.7)">U</text><text xml:space="preserve" font-family="Avenir-Light,Avenir" font-size="62.0" fill="#FEFFFF" transform="matrix(1.00, 0.00, -0.00, -1.00, 776.0, 945.7)">R</text><text xml:space="preserve" font-family="Avenir-Light,Avenir" font-size="62.0" fill="#FEFFFF" transform="matrix(1.00, 0.00, -0.00, -1.00, 822.7, 945.7)">E</text><text xml:space="preserve" font-family="Avenir-Light,Avenir" font-size="62.0" fill="#FEFFFF" transform="matrix(1.00, 0.00, -0.00, -1.00, 869.4, 945.7)">S</text><text xml:space="preserve" font-family="Avenir-Light,Avenir" font-size="37.8" fill="#646363" transform="matrix(1.00, 0.00, -0.00, -1.00, 102.0, 744.9)">•</text><text xml:space="preserve" font-family="Avenir-Light,Avenir" font-size="42.0" fill="#FEFFFF" transform="matrix(1.00, 0.00, -0.00, -1.00, 145.0, 744.0)">H</text><text xml:space="preserve" font-family="Avenir-Light,Avenir" font-size="42.0" fill="#FEFFFF" transform="matrix(1.00, 0.00, -0.00, -1.00, 175.3, 744.0)">o</text><text xml:space="preserve" font-family="Avenir-Light,Avenir" font-size="42.0" fill="#FEFFFF" transform="matrix(1.00, 0.00, -0.00, -1.00, 200.3, 744.0)">l</text><text xml:space="preserve" font-family="Avenir-Light,Avenir" font-size="42.0" fill="#FEFFFF" transform="matrix(1.00, 0.00, -0.00, -1.00, 210.4, 744.0)">d</text><text xml:space="preserve" font-family="Avenir-Light,Avenir" font-size="42.0" fill="#FEFFFF" transform="matrix(1.00, 0.00, -0.00, -1.00, 236.0, 744.0)"> </text><text xml:space="preserve" font-family="Avenir-Light,Avenir" font-size="42.0" fill="#FEFFFF" transform="matrix(1.00, 0.00, -0.00, -1.00, 246.9, 744.0)">t</text><text xml:space="preserve" font-family="Avenir-Light,Avenir" font-size="42.0" fill="#FEFFFF" transform="matrix(1.00, 0.00, -0.00, -1.00, 260.9, 744.0)">o</text><text xml:space="preserve" font-family="Avenir-Light,Avenir" font-size="42.0" fill="#FEFFFF" transform="matrix(1.00, 0.00, -0.00, -1.00, 285.9, 744.0)"> </text><text xml:space="preserve" font-family="Avenir-Light,Avenir" font-size="42.0" fill="#FEFFFF" transform="matrix(1.00, 0.00, -0.00, -1.00, 296.8, 744.0)">r</text><text xml:space="preserve" font-family="Avenir-Light,Avenir" font-size="42.0" fill="#FEFFFF" transform="matrix(1.00, 0.00, -0.00, -1.00, 310.8, 744.0)">i</text><text xml:space="preserve" font-family="Avenir-Light,Avenir" font-size="42.0" fill="#FEFFFF" transform="matrix(1.00, 0.00, -0.00, -1.00, 320.9, 744.0)">g</text><text xml:space="preserve" font-family="Avenir-Light,Avenir" font-size="42.0" fill="#FEFFFF" transform="matrix(1.00, 0.00, -0.00, -1.00, 346.5, 744.0)">h</text><text xml:space="preserve" font-family="Avenir-Light,Avenir" font-size="42.0" fill="#FEFFFF" transform="matrix(1.00, 0.00, -0.00, -1.00, 369.9, 744.0)">t</text><text xml:space="preserve" font-family="Avenir-Light,Avenir" font-size="42.0" fill="#FEFFFF" transform="matrix(1.00, 0.00, -0.00, -1.00, 383.9, 744.0)">-</text><text xml:space="preserve" font-family="Avenir-Light,Avenir" font-size="42.0" fill="#FEFFFF" transform="matrix(1.00, 0.00, -0.00, -1.00, 397.8, 744.0)">c</text><text xml:space="preserve" font-family="Avenir-Light,Avenir" font-size="42.0" fill="#FEFFFF" transform="matrix(1.00, 0.00, -0.00, -1.00, 418.0, 744.0)">l</text><text xml:space="preserve" font-family="Avenir-Light,Avenir" font-size="42.0" fill="#FEFFFF" transform="matrix(1.00, 0.00, -0.00, -1.00, 428.2, 744.0)">i</text><text xml:space="preserve" font-family="Avenir-Light,Avenir" font-size="42.0" fill="#FEFFFF" transform="matrix(1.00, 0.00, -0.00, -1.00, 438.2, 744.0)">c</text><text xml:space="preserve" font-family="Avenir-Light,Avenir" font-size="42.0" fill="#FEFFFF" transform="matrix(1.00, 0.00, -0.00, -1.00, 458.4, 744.0)">k</text><text xml:space="preserve" font-family="Avenir-Light,Avenir" font-size="42.0" fill="#FEFFFF" transform="matrix(1.00, 0.00, -0.00, -1.00, 478.6, 744.0)"> </text><text xml:space="preserve" font-family="Avenir-Light,Avenir" font-size="37.8" fill="#646363" transform="matrix(1.00, 0.00, -0.00, -1.00, 102.0, 642.9)">•</text><text xml:space="preserve" font-family="Avenir-Light,Avenir" font-size="42.0" fill="#FEFFFF" transform="matrix(1.00, 0.00, -0.00, -1.00, 145.0, 642.0)">S</text><text xml:space="preserve" font-family="Avenir-Light,Avenir" font-size="42.0" fill="#FEFFFF" transform="matrix(1.00, 0.00, -0.00, -1.00, 168.4, 642.0)">c</text><text xml:space="preserve" font-family="Avenir-Light,Avenir" font-size="42.0" fill="#FEFFFF" transform="matrix(1.00, 0.00, -0.00, -1.00, 188.6, 642.0)">r</text><text xml:space="preserve" font-family="Avenir-Light,Avenir" font-size="42.0" fill="#FEFFFF" transform="matrix(1.00, 0.00, -0.00, -1.00, 201.8, 642.0)">o</text><text xml:space="preserve" font-family="Avenir-Light,Avenir" font-size="42.0" fill="#FEFFFF" transform="matrix(1.00, 0.00, -0.00, -1.00, 226.7, 642.0)">l</text><text xml:space="preserve" font-family="Avenir-Light,Avenir" font-size="42.0" fill="#FEFFFF" transform="matrix(1.00, 0.00, -0.00, -1.00, 236.9, 642.0)">l</text><text xml:space="preserve" font-family="Avenir-Light,Avenir" font-size="42.0" fill="#FEFFFF" transform="matrix(1.00, 0.00, -0.00, -1.00, 246.9, 642.0)"> </text><text xml:space="preserve" font-family="Avenir-Light,Avenir" font-size="42.0" fill="#FEFFFF" transform="matrix(1.00, 0.00, -0.00, -1.00, 257.9, 642.0)">w</text><text xml:space="preserve" font-family="Avenir-Light,Avenir" font-size="42.0" fill="#FEFFFF" transform="matrix(1.00, 0.00, -0.00, -1.00, 287.4, 642.0)">i</text><text xml:space="preserve" font-family="Avenir-Light,Avenir" font-size="42.0" fill="#FEFFFF" transform="matrix(1.00, 0.00, -0.00, -1.00, 297.5, 642.0)">t</text><text xml:space="preserve" font-family="Avenir-Light,Avenir" font-size="42.0" fill="#FEFFFF" transform="matrix(1.00, 0.00, -0.00, -1.00, 311.5, 642.0)">h</text><text xml:space="preserve" font-family="Avenir-Light,Avenir" font-size="42.0" fill="#FEFFFF" transform="matrix(1.00, 0.00, -0.00, -1.00, 334.9, 642.0)"> </text><text xml:space="preserve" font-family="Avenir-Light,Avenir" font-size="42.0" fill="#FEFFFF" transform="matrix(1.00, 0.00, -0.00, -1.00, 345.8, 642.0)">t</text><text xml:space="preserve" font-family="Avenir-Light,Avenir" font-size="42.0" fill="#FEFFFF" transform="matrix(1.00, 0.00, -0.00, -1.00, 359.8, 642.0)">w</text><text xml:space="preserve" font-family="Avenir-Light,Avenir" font-size="42.0" fill="#FEFFFF" transform="matrix(1.00, 0.00, -0.00, -1.00, 389.4, 642.0)">o</text><text xml:space="preserve" font-family="Avenir-Light,Avenir" font-size="42.0" fill="#FEFFFF" transform="matrix(1.00, 0.00, -0.00, -1.00, 414.3, 642.0)"> </text><text xml:space="preserve" font-family="Avenir-Light,Avenir" font-size="42.0" fill="#FEFFFF" transform="matrix(1.00, 0.00, -0.00, -1.00, 425.2, 642.0)">f</text><text xml:space="preserve" font-family="Avenir-Light,Avenir" font-size="42.0" fill="#FEFFFF" transform="matrix(1.00, 0.00, -0.00, -1.00, 437.7, 642.0)">i</text><text xml:space="preserve" font-family="Avenir-Light,Avenir" font-size="42.0" fill="#FEFFFF" transform="matrix(1.00, 0.00, -0.00, -1.00, 447.7, 642.0)">n</text><text xml:space="preserve" font-family="Avenir-Light,Avenir" font-size="42.0" fill="#FEFFFF" transform="matrix(1.00, 0.00, -0.00, -1.00, 471.1, 642.0)">g</text><text xml:space="preserve" font-family="Avenir-Light,Avenir" font-size="42.0" fill="#FEFFFF" transform="matrix(1.00, 0.00, -0.00, -1.00, 496.7, 642.0)">e</text><text xml:space="preserve" font-family="Avenir-Light,Avenir" font-size="42.0" fill="#FEFFFF" transform="matrix(1.00, 0.00, -0.00, -1.00, 520.1, 642.0)">r</text><text xml:space="preserve" font-family="Avenir-Light,Avenir" font-size="42.0" fill="#FEFFFF" transform="matrix(1.00, 0.00, -0.00, -1.00, 534.1, 642.0)">s</text><text xml:space="preserve" font-family="Avenir-Light,Avenir" font-size="42.0" fill="#FEFFFF" transform="matrix(1.00, 0.00, -0.00, -1.00, 552.0, 642.0)"> </text><text xml:space="preserve" font-family="Avenir-Light,Avenir" font-size="37.8" fill="#646363" transform="matrix(1.00, 0.00, -0.00, -1.00, 145.0, 540.9)">•</text><text xml:space="preserve" font-family="Avenir-Light,Avenir" font-size="42.0" fill="#FEFFFF" transform="matrix(1.00, 0.00, -0.00, -1.00, 188.0, 540.0)">W</text><text xml:space="preserve" font-family="Avenir-Light,Avenir" font-size="42.0" fill="#FEFFFF" transform="matrix(1.00, 0.00, -0.00, -1.00, 226.9, 540.0)">o</text><text xml:space="preserve" font-family="Avenir-Light,Avenir" font-size="42.0" fill="#FEFFFF" transform="matrix(1.00, 0.00, -0.00, -1.00, 251.8, 540.0)">r</text><text xml:space="preserve" font-family="Avenir-Light,Avenir" font-size="42.0" fill="#FEFFFF" transform="matrix(1.00, 0.00, -0.00, -1.00, 265.8, 540.0)">k</text><text xml:space="preserve" font-family="Avenir-Light,Avenir" font-size="42.0" fill="#FEFFFF" transform="matrix(1.00, 0.00, -0.00, -1.00, 286.0, 540.0)">s</text><text xml:space="preserve" font-family="Avenir-Light,Avenir" font-size="42.0" fill="#FEFFFF" transform="matrix(1.00, 0.00, -0.00, -1.00, 303.9, 540.0)"> </text><text xml:space="preserve" font-family="Avenir-Light,Avenir" font-size="42.0" fill="#FEFFFF" transform="matrix(1.00, 0.00, -0.00, -1.00, 314.8, 540.0)">i</text><text xml:space="preserve" font-family="Avenir-Light,Avenir" font-size="42.0" fill="#FEFFFF" transform="matrix(1.00, 0.00, -0.00, -1.00, 324.9, 540.0)">n</text><text xml:space="preserve" font-family="Avenir-Light,Avenir" font-size="42.0" fill="#FEFFFF" transform="matrix(1.00, 0.00, -0.00, -1.00, 348.3, 540.0)"> </text><text xml:space="preserve" font-family="Avenir-Light,Avenir" font-size="42.0" fill="#FEFFFF" transform="matrix(1.00, 0.00, -0.00, -1.00, 359.2, 540.0)">m</text><text xml:space="preserve" font-family="Avenir-Light,Avenir" font-size="42.0" fill="#FEFFFF" transform="matrix(1.00, 0.00, -0.00, -1.00, 395.0, 540.0)">u</text><text xml:space="preserve" font-family="Avenir-Light,Avenir" font-size="42.0" fill="#FEFFFF" transform="matrix(1.00, 0.00, -0.00, -1.00, 418.3, 540.0)">l</text><text xml:space="preserve" font-family="Avenir-Light,Avenir" font-size="42.0" fill="#FEFFFF" transform="matrix(1.00, 0.00, -0.00, -1.00, 428.5, 540.0)">t</text><text xml:space="preserve" font-family="Avenir-Light,Avenir" font-size="42.0" fill="#FEFFFF" transform="matrix(1.00, 0.00, -0.00, -1.00, 442.5, 540.0)">i</text><text xml:space="preserve" font-family="Avenir-Light,Avenir" font-size="42.0" fill="#FEFFFF" transform="matrix(1.00, 0.00, -0.00, -1.00, 452.6, 540.0)">p</text><text xml:space="preserve" font-family="Avenir-Light,Avenir" font-size="42.0" fill="#FEFFFF" transform="matrix(1.00, 0.00, -0.00, -1.00, 478.2, 540.0)">l</text><text xml:space="preserve" font-family="Avenir-Light,Avenir" font-size="42.0" fill="#FEFFFF" transform="matrix(1.00, 0.00, -0.00, -1.00, 488.3, 540.0)">e</text><text xml:space="preserve" font-family="Avenir-Light,Avenir" font-size="42.0" fill="#FEFFFF" transform="matrix(1.00, 0.00, -0.00, -1.00, 511.7, 540.0)"> </text><text xml:space="preserve" font-family="Avenir-Light,Avenir" font-size="42.0" fill="#FEFFFF" transform="matrix(1.00, 0.00, -0.00, -1.00, 522.6, 540.0)">d</text><text xml:space="preserve" font-family="Avenir-Light,Avenir" font-size="42.0" fill="#FEFFFF" transform="matrix(1.00, 0.00, -0.00, -1.00, 548.3, 540.0)">i</text><text xml:space="preserve" font-family="Avenir-Light,Avenir" font-size="42.0" fill="#FEFFFF" transform="matrix(1.00, 0.00, -0.00, -1.00, 558.4, 540.0)">r</text><text xml:space="preserve" font-family="Avenir-Light,Avenir" font-size="42.0" fill="#FEFFFF" transform="matrix(1.00, 0.00, -0.00, -1.00, 571.6, 540.0)">e</text><text xml:space="preserve" font-family="Avenir-Light,Avenir" font-size="42.0" fill="#FEFFFF" transform="matrix(1.00, 0.00, -0.00, -1.00, 594.9, 540.0)">c</text><text xml:space="preserve" font-family="Avenir-Light,Avenir" font-size="42.0" fill="#FEFFFF" transform="matrix(1.00, 0.00, -0.00, -1.00, 615.1, 540.0)">t</text><text xml:space="preserve" font-family="Avenir-Light,Avenir" font-size="42.0" fill="#FEFFFF" transform="matrix(1.00, 0.00, -0.00, -1.00, 629.2, 540.0)">i</text><text xml:space="preserve" font-family="Avenir-Light,Avenir" font-size="42.0" fill="#FEFFFF" transform="matrix(1.00, 0.00, -0.00, -1.00, 639.2, 540.0)">o</text><text xml:space="preserve" font-family="Avenir-Light,Avenir" font-size="42.0" fill="#FEFFFF" transform="matrix(1.00, 0.00, -0.00, -1.00, 664.2, 540.0)">n</text><text xml:space="preserve" font-family="Avenir-Light,Avenir" font-size="42.0" fill="#FEFFFF" transform="matrix(1.00, 0.00, -0.00, -1.00, 687.5, 540.0)">s</text><text xml:space="preserve" font-family="Avenir-Light,Avenir" font-size="42.0" fill="#FEFFFF" transform="matrix(1.00, 0.00, -0.00, -1.00, 705.4, 540.0)"> </text><text xml:space="preserve" font-family="Avenir-Light,Avenir" font-size="37.8" fill="#646363" transform="matrix(1.00, 0.00, -0.00, -1.00, 102.0, 438.9)">•</text><text xml:space="preserve" font-family="Avenir-Light,Avenir" font-size="42.0" fill="#FEFFFF" transform="matrix(1.00, 0.00, -0.00, -1.00, 145.0, 438.0)">S</text><text xml:space="preserve" font-family="Avenir-Light,Avenir" font-size="42.0" fill="#FEFFFF" transform="matrix(1.00, 0.00, -0.00, -1.00, 168.4, 438.0)">t</text><text xml:space="preserve" font-family="Avenir-Light,Avenir" font-size="42.0" fill="#FEFFFF" transform="matrix(1.00, 0.00, -0.00, -1.00, 182.3, 438.0)">a</text><text xml:space="preserve" font-family="Avenir-Light,Avenir" font-size="42.0" fill="#FEFFFF" transform="matrix(1.00, 0.00, -0.00, -1.00, 204.1, 438.0)">n</text><text xml:space="preserve" font-family="Avenir-Light,Avenir" font-size="42.0" fill="#FEFFFF" transform="matrix(1.00, 0.00, -0.00, -1.00, 227.5, 438.0)">d</text><text xml:space="preserve" font-family="Avenir-Light,Avenir" font-size="42.0" fill="#FEFFFF" transform="matrix(1.00, 0.00, -0.00, -1.00, 253.2, 438.0)">a</text><text xml:space="preserve" font-family="Avenir-Light,Avenir" font-size="42.0" fill="#FEFFFF" transform="matrix(1.00, 0.00, -0.00, -1.00, 274.9, 438.0)">r</text><text xml:space="preserve" font-family="Avenir-Light,Avenir" font-size="42.0" fill="#FEFFFF" transform="matrix(1.00, 0.00, -0.00, -1.00, 288.2, 438.0)">d</text><text xml:space="preserve" font-family="Avenir-Light,Avenir" font-size="42.0" fill="#FEFFFF" transform="matrix(1.00, 0.00, -0.00, -1.00, 313.8, 438.0)"> </text><text xml:space="preserve" font-family="Avenir-Light,Avenir" font-size="42.0" fill="#FEFFFF" transform="matrix(1.00, 0.00, -0.00, -1.00, 324.8, 438.0)">i</text><text xml:space="preserve" font-family="Avenir-Light,Avenir" font-size="42.0" fill="#FEFFFF" transform="matrix(1.00, 0.00, -0.00, -1.00, 334.8, 438.0)">P</text><text xml:space="preserve" font-family="Avenir-Light,Avenir" font-size="42.0" fill="#FEFFFF" transform="matrix(1.00, 0.00, -0.00, -1.00, 358.9, 438.0)">a</text><text xml:space="preserve" font-family="Avenir-Light,Avenir" font-size="42.0" fill="#FEFFFF" transform="matrix(1.00, 0.00, -0.00, -1.00, 380.7, 438.0)">d</text><text xml:space="preserve" font-family="Avenir-Light,Avenir" font-size="42.0" fill="#FEFFFF" transform="matrix(1.00, 0.00, -0.00, -1.00, 406.4, 438.0)"> </text><text xml:space="preserve" font-family="Avenir-Light,Avenir" font-size="42.0" fill="#FEFFFF" transform="matrix(1.00, 0.00, -0.00, -1.00, 417.3, 438.0)">m</text><text xml:space="preserve" font-family="Avenir-Light,Avenir" font-size="42.0" fill="#FEFFFF" transform="matrix(1.00, 0.00, -0.00, -1.00, 453.1, 438.0)">u</text><text xml:space="preserve" font-family="Avenir-Light,Avenir" font-size="42.0" fill="#FEFFFF" transform="matrix(1.00, 0.00, -0.00, -1.00, 476.5, 438.0)">l</text><text xml:space="preserve" font-family="Avenir-Light,Avenir" font-size="42.0" fill="#FEFFFF" transform="matrix(1.00, 0.00, -0.00, -1.00, 486.6, 438.0)">t</text><text xml:space="preserve" font-family="Avenir-Light,Avenir" font-size="42.0" fill="#FEFFFF" transform="matrix(1.00, 0.00, -0.00, -1.00, 500.6, 438.0)">i</text><text xml:space="preserve" font-family="Avenir-Light,Avenir" font-size="42.0" fill="#FEFFFF" transform="matrix(1.00, 0.00, -0.00, -1.00, 510.7, 438.0)">-</text><text xml:space="preserve" font-family="Avenir-Light,Avenir" font-size="42.0" fill="#FEFFFF" transform="matrix(1.00, 0.00, -0.00, -1.00, 524.7, 438.0)">t</text><text xml:space="preserve" font-family="Avenir-Light,Avenir" font-size="42.0" fill="#FEFFFF" transform="matrix(1.00, 0.00, -0.00, -1.00, 538.7, 438.0)">o</text><text xml:space="preserve" font-family="Avenir-Light,Avenir" font-size="42.0" fill="#FEFFFF" transform="matrix(1.00, 0.00, -0.00, -1.00, 563.6, 438.0)">u</text><text xml:space="preserve" font-family="Avenir-Light,Avenir" font-size="42.0" fill="#FEFFFF" transform="matrix(1.00, 0.00, -0.00, -1.00, 587.0, 438.0)">c</text><text xml:space="preserve" font-family="Avenir-Light,Avenir" font-size="42.0" fill="#FEFFFF" transform="matrix(1.00, 0.00, -0.00, -1.00, 607.2, 438.0)">h</text><text xml:space="preserve" font-family="Avenir-Light,Avenir" font-size="42.0" fill="#FEFFFF" transform="matrix(1.00, 0.00, -0.00, -1.00, 630.5, 438.0)"> </text><text xml:space="preserve" font-family="Avenir-Light,Avenir" font-size="42.0" fill="#FEFFFF" transform="matrix(1.00, 0.00, -0.00, -1.00, 641.4, 438.0)">g</text><text xml:space="preserve" font-family="Avenir-Light,Avenir" font-size="42.0" fill="#FEFFFF" transform="matrix(1.00, 0.00, -0.00, -1.00, 667.1, 438.0)">e</text><text xml:space="preserve" font-family="Avenir-Light,Avenir" font-size="42.0" fill="#FEFFFF" transform="matrix(1.00, 0.00, -0.00, -1.00, 690.5, 438.0)">s</text><text xml:space="preserve" font-family="Avenir-Light,Avenir" font-size="42.0" fill="#FEFFFF" transform="matrix(1.00, 0.00, -0.00, -1.00, 708.3, 438.0)">t</text><text xml:space="preserve" font-family="Avenir-Light,Avenir" font-size="42.0" fill="#FEFFFF" transform="matrix(1.00, 0.00, -0.00, -1.00, 722.3, 438.0)">u</text><text xml:space="preserve" font-family="Avenir-Light,Avenir" font-size="42.0" fill="#FEFFFF" transform="matrix(1.00, 0.00, -0.00, -1.00, 745.7, 438.0)">r</text><text xml:space="preserve" font-family="Avenir-Light,Avenir" font-size="42.0" fill="#FEFFFF" transform="matrix(1.00, 0.00, -0.00, -1.00, 758.9, 438.0)">e</text><text xml:space="preserve" font-family="Avenir-Light,Avenir" font-size="42.0" fill="#FEFFFF" transform="matrix(1.00, 0.00, -0.00, -1.00, 782.3, 438.0)">s</text><text xml:space="preserve" font-family="Avenir-Light,Avenir" font-size="42.0" fill="#FEFFFF" transform="matrix(1.00, 0.00, -0.00, -1.00, 800.2, 438.0)"> </text><text xml:space="preserve" font-family="Avenir-Light,Avenir" font-size="42.0" fill="#FEFFFF" transform="matrix(1.00, 0.00, -0.00, -1.00, 145.0, 381.0)">s</text><text xml:space="preserve" font-family="Avenir-Light,Avenir" font-size="42.0" fill="#FEFFFF" transform="matrix(1.00, 0.00, -0.00, -1.00, 162.9, 381.0)">u</text><text xml:space="preserve" font-family="Avenir-Light,Avenir" font-size="42.0" fill="#FEFFFF" transform="matrix(1.00, 0.00, -0.00, -1.00, 186.2, 381.0)">p</text><text xml:space="preserve" font-family="Avenir-Light,Avenir" font-size="42.0" fill="#FEFFFF" transform="matrix(1.00, 0.00, -0.00, -1.00, 211.9, 381.0)">p</text><text xml:space="preserve" font-family="Avenir-Light,Avenir" font-size="42.0" fill="#FEFFFF" transform="matrix(1.00, 0.00, -0.00, -1.00, 237.6, 381.0)">o</text><text xml:space="preserve" font-family="Avenir-Light,Avenir" font-size="42.0" fill="#FEFFFF" transform="matrix(1.00, 0.00, -0.00, -1.00, 262.5, 381.0)">r</text><text xml:space="preserve" font-family="Avenir-Light,Avenir" font-size="42.0" fill="#FEFFFF" transform="matrix(1.00, 0.00, -0.00, -1.00, 276.5, 381.0)">t</text><text xml:space="preserve" font-family="Avenir-Light,Avenir" font-size="42.0" fill="#FEFFFF" transform="matrix(1.00, 0.00, -0.00, -1.00, 290.5, 381.0)">e</text><text xml:space="preserve" font-family="Avenir-Light,Avenir" font-size="42.0" fill="#FEFFFF" transform="matrix(1.00, 0.00, -0.00, -1.00, 313.8, 381.0)">d</text><text xml:space="preserve" font-family="Avenir-Light,Avenir" font-size="42.0" fill="#FEFFFF" transform="matrix(1.00, 0.00, -0.00, -1.00, 339.5, 381.0)"> </text><text xml:space="preserve" font-family="Avenir-Light,Avenir" font-size="42.0" fill="#FEFFFF" transform="matrix(1.00, 0.00, -0.00, -1.00, 350.4, 381.0)">s</text><text xml:space="preserve" font-family="Avenir-Light,Avenir" font-size="42.0" fill="#FEFFFF" transform="matrix(1.00, 0.00, -0.00, -1.00, 368.3, 381.0)">u</text><text xml:space="preserve" font-family="Avenir-Light,Avenir" font-size="42.0" fill="#FEFFFF" transform="matrix(1.00, 0.00, -0.00, -1.00, 391.7, 381.0)">c</text><text xml:space="preserve" font-family="Avenir-Light,Avenir" font-size="42.0" fill="#FEFFFF" transform="matrix(1.00, 0.00, -0.00, -1.00, 411.9, 381.0)">h</text><text xml:space="preserve" font-family="Avenir-Light,Avenir" font-size="42.0" fill="#FEFFFF" transform="matrix(1.00, 0.00, -0.00, -1.00, 435.2, 381.0)"> </text><text xml:space="preserve" font-family="Avenir-Light,Avenir" font-size="42.0" fill="#FEFFFF" transform="matrix(1.00, 0.00, -0.00, -1.00, 446.1, 381.0)">a</text><text xml:space="preserve" font-family="Avenir-Light,Avenir" font-size="42.0" fill="#FEFFFF" transform="matrix(1.00, 0.00, -0.00, -1.00, 467.9, 381.0)">s</text><text xml:space="preserve" font-family="Avenir-Light,Avenir" font-size="42.0" fill="#FEFFFF" transform="matrix(1.00, 0.00, -0.00, -1.00, 485.8, 381.0)"> </text><text xml:space="preserve" font-family="Avenir-Light,Avenir" font-size="42.0" fill="#FEFFFF" transform="matrix(1.00, 0.00, -0.00, -1.00, 496.8, 381.0)">f</text><text xml:space="preserve" font-family="Avenir-Light,Avenir" font-size="42.0" fill="#FEFFFF" transform="matrix(1.00, 0.00, -0.00, -1.00, 509.2, 381.0)">o</text><text xml:space="preserve" font-family="Avenir-Light,Avenir" font-size="42.0" fill="#FEFFFF" transform="matrix(1.00, 0.00, -0.00, -1.00, 534.1, 381.0)">u</text><text xml:space="preserve" font-family="Avenir-Light,Avenir" font-size="42.0" fill="#FEFFFF" transform="matrix(1.00, 0.00, -0.00, -1.00, 557.5, 381.0)">r</text><text xml:space="preserve" font-family="Avenir-Light,Avenir" font-size="42.0" fill="#FEFFFF" transform="matrix(1.00, 0.00, -0.00, -1.00, 569.2, 381.0)">-</text><text xml:space="preserve" font-family="Avenir-Light,Avenir" font-size="42.0" fill="#FEFFFF" transform="matrix(1.00, 0.00, -0.00, -1.00, 583.1, 381.0)">f</text><text xml:space="preserve" font-family="Avenir-Light,Avenir" font-size="42.0" fill="#FEFFFF" transform="matrix(1.00, 0.00, -0.00, -1.00, 595.6, 381.0)">i</text><text xml:space="preserve" font-family="Avenir-Light,Avenir" font-size="42.0" fill="#FEFFFF" transform="matrix(1.00, 0.00, -0.00, -1.00, 605.7, 381.0)">n</text><text xml:space="preserve" font-family="Avenir-Light,Avenir" font-size="42.0" fill="#FEFFFF" transform="matrix(1.00, 0.00, -0.00, -1.00, 629.0, 381.0)">g</text><text xml:space="preserve" font-family="Avenir-Light,Avenir" font-size="42.0" fill="#FEFFFF" transform="matrix(1.00, 0.00, -0.00, -1.00, 654.7, 381.0)">e</text><text xml:space="preserve" font-family="Avenir-Light,Avenir" font-size="42.0" fill="#FEFFFF" transform="matrix(1.00, 0.00, -0.00, -1.00, 678.0, 381.0)">r</text><text xml:space="preserve" font-family="Avenir-Light,Avenir" font-size="42.0" fill="#FEFFFF" transform="matrix(1.00, 0.00, -0.00, -1.00, 692.0, 381.0)"> </text><text xml:space="preserve" font-family="Avenir-Light,Avenir" font-size="42.0" fill="#FEFFFF" transform="matrix(1.00, 0.00, -0.00, -1.00, 702.9, 381.0)">s</text><text xml:space="preserve" font-family="Avenir-Light,Avenir" font-size="42.0" fill="#FEFFFF" transform="matrix(1.00, 0.00, -0.00, -1.00, 720.8, 381.0)">w</text><text xml:space="preserve" font-family="Avenir-Light,Avenir" font-size="42.0" fill="#FEFFFF" transform="matrix(1.00, 0.00, -0.00, -1.00, 750.4, 381.0)">i</text><text xml:space="preserve" font-family="Avenir-Light,Avenir" font-size="42.0" fill="#FEFFFF" transform="matrix(1.00, 0.00, -0.00, -1.00, 760.5, 381.0)">p</text><text xml:space="preserve" font-family="Avenir-Light,Avenir" font-size="42.0" fill="#FEFFFF" transform="matrix(1.00, 0.00, -0.00, -1.00, 786.1, 381.0)">e</text><text xml:space="preserve" font-family="Avenir-Light,Avenir" font-size="42.0" fill="#FEFFFF" transform="matrix(1.00, 0.00, -0.00, -1.00, 809.5, 381.0)"> </text><text xml:space="preserve" font-family="Avenir-Light,Avenir" font-size="42.0" fill="#FEFFFF" transform="matrix(1.00, 0.00, -0.00, -1.00, 145.0, 324.0)">m</text><text xml:space="preserve" font-family="Avenir-Light,Avenir" font-size="42.0" fill="#FEFFFF" transform="matrix(1.00, 0.00, -0.00, -1.00, 180.8, 324.0)">u</text><text xml:space="preserve" font-family="Avenir-Light,Avenir" font-size="42.0" fill="#FEFFFF" transform="matrix(1.00, 0.00, -0.00, -1.00, 204.1, 324.0)">l</text><text xml:space="preserve" font-family="Avenir-Light,Avenir" font-size="42.0" fill="#FEFFFF" transform="matrix(1.00, 0.00, -0.00, -1.00, 214.3, 324.0)">t</text><text xml:space="preserve" font-family="Avenir-Light,Avenir" font-size="42.0" fill="#FEFFFF" transform="matrix(1.00, 0.00, -0.00, -1.00, 228.3, 324.0)">i</text><text xml:space="preserve" font-family="Avenir-Light,Avenir" font-size="42.0" fill="#FEFFFF" transform="matrix(1.00, 0.00, -0.00, -1.00, 238.4, 324.0)">t</text><text xml:space="preserve" font-family="Avenir-Light,Avenir" font-size="42.0" fill="#FEFFFF" transform="matrix(1.00, 0.00, -0.00, -1.00, 252.4, 324.0)">a</text><text xml:space="preserve" font-family="Avenir-Light,Avenir" font-size="42.0" fill="#FEFFFF" transform="matrix(1.00, 0.00, -0.00, -1.00, 274.1, 324.0)">s</text><text xml:space="preserve" font-family="Avenir-Light,Avenir" font-size="42.0" fill="#FEFFFF" transform="matrix(1.00, 0.00, -0.00, -1.00, 292.0, 324.0)">k</text><text xml:space="preserve" font-family="Avenir-Light,Avenir" font-size="42.0" fill="#FEFFFF" transform="matrix(1.00, 0.00, -0.00, -1.00, 312.2, 324.0)">i</text><text xml:space="preserve" font-family="Avenir-Light,Avenir" font-size="42.0" fill="#FEFFFF" transform="matrix(1.00, 0.00, -0.00, -1.00, 322.3, 324.0)">n</text><text xml:space="preserve" font-family="Avenir-Light,Avenir" font-size="42.0" fill="#FEFFFF" transform="matrix(1.00, 0.00, -0.00, -1.00, 345.7, 324.0)">g</text><text xml:space="preserve" font-family="Avenir-Light,Avenir" font-size="42.0" fill="#FEFFFF" transform="matrix(1.00, 0.00, -0.00, -1.00, 371.3, 324.0)"> </text><text xml:space="preserve" font-family="Avenir-Light,Avenir" font-size="42.0" fill="#FEFFFF" transform="matrix(1.00, 0.00, -0.00, -1.00, 382.3, 324.0)">f</text><text xml:space="preserve" font-family="Avenir-Light,Avenir" font-size="42.0" fill="#FEFFFF" transform="matrix(1.00, 0.00, -0.00, -1.00, 394.7, 324.0)">o</text><text xml:space="preserve" font-family="Avenir-Light,Avenir" font-size="42.0" fill="#FEFFFF" transform="matrix(1.00, 0.00, -0.00, -1.00, 419.6, 324.0)">r</text><text xml:space="preserve" font-family="Avenir-Light,Avenir" font-size="42.0" fill="#FEFFFF" transform="matrix(1.00, 0.00, -0.00, -1.00, 433.6, 324.0)"> </text><text xml:space="preserve" font-family="Avenir-Light,Avenir" font-size="42.0" fill="#FEFFFF" transform="matrix(1.00, 0.00, -0.00, -1.00, 444.5, 324.0)">u</text><text xml:space="preserve" font-family="Avenir-Light,Avenir" font-size="42.0" fill="#FEFFFF" transform="matrix(1.00, 0.00, -0.00, -1.00, 467.9, 324.0)">s</text><text xml:space="preserve" font-family="Avenir-Light,Avenir" font-size="42.0" fill="#FEFFFF" transform="matrix(1.00, 0.00, -0.00, -1.00, 485.8, 324.0)">i</text><text xml:space="preserve" font-family="Avenir-Light,Avenir" font-size="42.0" fill="#FEFFFF" transform="matrix(1.00, 0.00, -0.00, -1.00, 495.9, 324.0)">n</text><text xml:space="preserve" font-family="Avenir-Light,Avenir" font-size="42.0" fill="#FEFFFF" transform="matrix(1.00, 0.00, -0.00, -1.00, 519.2, 324.0)">g</text><text xml:space="preserve" font-family="Avenir-Light,Avenir" font-size="42.0" fill="#FEFFFF" transform="matrix(1.00, 0.00, -0.00, -1.00, 544.9, 324.0)"> </text><text xml:space="preserve" font-family="Avenir-Light,Avenir" font-size="42.0" fill="#FEFFFF" transform="matrix(1.00, 0.00, -0.00, -1.00, 555.8, 324.0)">a</text><text xml:space="preserve" font-family="Avenir-Light,Avenir" font-size="42.0" fill="#FEFFFF" transform="matrix(1.00, 0.00, -0.00, -1.00, 577.6, 324.0)">n</text><text xml:space="preserve" font-family="Avenir-Light,Avenir" font-size="42.0" fill="#FEFFFF" transform="matrix(1.00, 0.00, -0.00, -1.00, 601.0, 324.0)">o</text><text xml:space="preserve" font-family="Avenir-Light,Avenir" font-size="42.0" fill="#FEFFFF" transform="matrix(1.00, 0.00, -0.00, -1.00, 625.9, 324.0)">t</text><text xml:space="preserve" font-family="Avenir-Light,Avenir" font-size="42.0" fill="#FEFFFF" transform="matrix(1.00, 0.00, -0.00, -1.00, 639.9, 324.0)">h</text><text xml:space="preserve" font-family="Avenir-Light,Avenir" font-size="42.0" fill="#FEFFFF" transform="matrix(1.00, 0.00, -0.00, -1.00, 663.3, 324.0)">e</text><text xml:space="preserve" font-family="Avenir-Light,Avenir" font-size="42.0" fill="#FEFFFF" transform="matrix(1.00, 0.00, -0.00, -1.00, 686.6, 324.0)">r</text><text xml:space="preserve" font-family="Avenir-Light,Avenir" font-size="42.0" fill="#FEFFFF" transform="matrix(1.00, 0.00, -0.00, -1.00, 700.6, 324.0)"> </text><text xml:space="preserve" font-family="Avenir-Light,Avenir" font-size="42.0" fill="#FEFFFF" transform="matrix(1.00, 0.00, -0.00, -1.00, 711.5, 324.0)">a</text><text xml:space="preserve" font-family="Avenir-Light,Avenir" font-size="42.0" fill="#FEFFFF" transform="matrix(1.00, 0.00, -0.00, -1.00, 733.3, 324.0)">p</text><text xml:space="preserve" font-family="Avenir-Light,Avenir" font-size="42.0" fill="#FEFFFF" transform="matrix(1.00, 0.00, -0.00, -1.00, 759.0, 324.0)">p</text><text xml:space="preserve" font-family="Avenir-Light,Avenir" font-size="42.0" fill="#FEFFFF" transform="matrix(1.00, 0.00, -0.00, -1.00, 784.7, 324.0)"> </text><text xml:space="preserve" font-family="Avenir-Light,Avenir" font-size="42.0" fill="#FEFFFF" transform="matrix(1.00, 0.00, -0.00, -1.00, 795.6, 324.0)">a</text><text xml:space="preserve" font-family="Avenir-Light,Avenir" font-size="42.0" fill="#FEFFFF" transform="matrix(1.00, 0.00, -0.00, -1.00, 817.4, 324.0)">t</text><text xml:space="preserve" font-family="Avenir-Light,Avenir" font-size="42.0" fill="#FEFFFF" transform="matrix(1.00, 0.00, -0.00, -1.00, 831.4, 324.0)"> </text><text xml:space="preserve" font-family="Avenir-Light,Avenir" font-size="42.0" fill="#FEFFFF" transform="matrix(1.00, 0.00, -0.00, -1.00, 145.0, 267.0)">t</text><text xml:space="preserve" font-family="Avenir-Light,Avenir" font-size="42.0" fill="#FEFFFF" transform="matrix(1.00, 0.00, -0.00, -1.00, 159.0, 267.0)">h</text><text xml:space="preserve" font-family="Avenir-Light,Avenir" font-size="42.0" fill="#FEFFFF" transform="matrix(1.00, 0.00, -0.00, -1.00, 182.4, 267.0)">e</text><text xml:space="preserve" font-family="Avenir-Light,Avenir" font-size="42.0" fill="#FEFFFF" transform="matrix(1.00, 0.00, -0.00, -1.00, 205.7, 267.0)"> </text><text xml:space="preserve" font-family="Avenir-Light,Avenir" font-size="42.0" fill="#FEFFFF" transform="matrix(1.00, 0.00, -0.00, -1.00, 216.7, 267.0)">s</text><text xml:space="preserve" font-family="Avenir-Light,Avenir" font-size="42.0" fill="#FEFFFF" transform="matrix(1.00, 0.00, -0.00, -1.00, 234.5, 267.0)">a</text><text xml:space="preserve" font-family="Avenir-Light,Avenir" font-size="42.0" fill="#FEFFFF" transform="matrix(1.00, 0.00, -0.00, -1.00, 256.3, 267.0)">m</text><text xml:space="preserve" font-family="Avenir-Light,Avenir" font-size="42.0" fill="#FEFFFF" transform="matrix(1.00, 0.00, -0.00, -1.00, 292.1, 267.0)">e</text><text xml:space="preserve" font-family="Avenir-Light,Avenir" font-size="42.0" fill="#FEFFFF" transform="matrix(1.00, 0.00, -0.00, -1.00, 315.5, 267.0)"> </text><text xml:space="preserve" font-family="Avenir-Light,Avenir" font-size="42.0" fill="#FEFFFF" transform="matrix(1.00, 0.00, -0.00, -1.00, 326.4, 267.0)">t</text><text xml:space="preserve" font-family="Avenir-Light,Avenir" font-size="42.0" fill="#FEFFFF" transform="matrix(1.00, 0.00, -0.00, -1.00, 340.4, 267.0)">i</text><text xml:space="preserve" font-family="Avenir-Light,Avenir" font-size="42.0" fill="#FEFFFF" transform="matrix(1.00, 0.00, -0.00, -1.00, 350.5, 267.0)">m</text><text xml:space="preserve" font-family="Avenir-Light,Avenir" font-size="42.0" fill="#FEFFFF" transform="matrix(1.00, 0.00, -0.00, -1.00, 386.3, 267.0)">e</text></g></svg>