<?xml version="1.0" encoding="UTF-8" standalone="no"?><svg xmlns="http://www.w3.org/2000/svg" xmlns:xlink="http://www.w3.org/1999/xlink" clip-rule="evenodd" stroke-miterlimit="10" viewBox="0 0 1920 1080"><desc>SVG generated by Keynote</desc><defs></defs><g transform="matrix(1.00, 0.00, -0.00, -1.00, 0.0, 1080.0)"><path d="M 0.0 1080.0 L 1920.0 1080.0 L 1920.0 0.0 L 0.0 0.0 Z M 0.0 1080.0 " fill="#000000"></path><text xml:space="preserve" font-family="Avenir-Light,Avenir" font-size="62.0" fill="#FEFFFF" transform="matrix(1.00, 0.00, -0.00, -1.00, 102.0, 945.7)">F</text><text xml:space="preserve" font-family="Avenir-Light,Avenir" font-size="62.0" fill="#FEFFFF" transform="matrix(1.00, 0.00, -0.00, -1.00, 146.4, 945.7)">E</text><text xml:space="preserve" font-family="Avenir-Light,Avenir" font-size="62.0" fill="#FEFFFF" transform="matrix(1.00, 0.00, -0.00, -1.00, 193.1, 945.7)">A</text><text xml:space="preserve" font-family="Avenir-Light,Avenir" font-size="62.0" fill="#FEFFFF" transform="matrix(1.00, 0.00, -0.00, -1.00, 241.3, 945.7)">T</text><text xml:space="preserve" font-family="Avenir-Light,Avenir" font-size="62.0" fill="#FEFFFF" transform="matrix(1.00, 0.00, -0.00, -1.00, 286.8, 945.7)">U</text><text xml:space="preserve" font-family="Avenir-Light,Avenir" font-size="62.0" fill="#FEFFFF" transform="matrix(1.00, 0.00, -0.00, -1.00, 339.1, 945.7)">R</text><text xml:space="preserve" font-family="Avenir-Light,Avenir" font-size="62.0" fill="#FEFFFF" transform="matrix(1.00, 0.00, -0.00, -1.00, 385.8, 945.7)">E</text><text xml:space="preserve" font-family="Avenir-Light,Avenir" font-size="62.0" fill="#FEFFFF" transform="matrix(1.00, 0.00, -0.00, -1.00, 432.5, 945.7)">S</text><text xml:space="preserve" font-family="Avenir-Light,Avenir" font-size="62.0" fill="#FEFFFF" transform="matrix(1.00, 0.00, -0.00, -1.00, 476.9, 945.7)">:</text><text xml:space="preserve" font-family="Avenir-Light,Avenir" font-size="62.0" fill="#FEFFFF" transform="matrix(1.00, 0.00, -0.00, -1.00, 502.9, 945.7)"> </text><text xml:space="preserve" font-family="Avenir-Light,Avenir" font-size="62.0" fill="#FEFFFF" transform="matrix(1.00, 0.00, -0.00, -1.00, 102.0, 860.7)">A</text><text xml:space="preserve" font-family="Avenir-Light,Avenir" font-size="62.0" fill="#FEFFFF" transform="matrix(1.00, 0.00, -0.00, -1.00, 154.4, 860.7)">C</text><text xml:space="preserve" font-family="Avenir-Light,Avenir" font-size="62.0" fill="#FEFFFF" transform="matrix(1.00, 0.00, -0.00, -1.00, 208.0, 860.7)">C</text><text xml:space="preserve" font-family="Avenir-Light,Avenir" font-size="62.0" fill="#FEFFFF" transform="matrix(1.00, 0.00, -0.00, -1.00, 261.5, 860.7)">E</text><text xml:space="preserve" font-family="Avenir-Light,Avenir" font-size="62.0" fill="#FEFFFF" transform="matrix(1.00, 0.00, -0.00, -1.00, 308.2, 860.7)">S</text><text xml:space="preserve" font-family="Avenir-Light,Avenir" font-size="62.0" fill="#FEFFFF" transform="matrix(1.00, 0.00, -0.00, -1.00, 352.6, 860.7)">S</text><text xml:space="preserve" font-family="Avenir-Light,Avenir" font-size="37.8" fill="#646363" transform="matrix(1.00, 0.00, -0.00, -1.00, 102.0, 636.3)">•</text><text xml:space="preserve" font-family="Avenir-Light,Avenir" font-size="42.0" fill="#FEFFFF" transform="matrix(1.00, 0.00, -0.00, -1.00, 145.0, 635.4)">P</text><text xml:space="preserve" font-family="Avenir-Light,Avenir" font-size="42.0" fill="#FEFFFF" transform="matrix(1.00, 0.00, -0.00, -1.00, 169.1, 635.4)">r</text><text xml:space="preserve" font-family="Avenir-Light,Avenir" font-size="42.0" fill="#FEFFFF" transform="matrix(1.00, 0.00, -0.00, -1.00, 182.3, 635.4)">o</text><text xml:space="preserve" font-family="Avenir-Light,Avenir" font-size="42.0" fill="#FEFFFF" transform="matrix(1.00, 0.00, -0.00, -1.00, 207.3, 635.4)">v</text><text xml:space="preserve" font-family="Avenir-Light,Avenir" font-size="42.0" fill="#FEFFFF" transform="matrix(1.00, 0.00, -0.00, -1.00, 226.7, 635.4)">i</text><text xml:space="preserve" font-family="Avenir-Light,Avenir" font-size="42.0" fill="#FEFFFF" transform="matrix(1.00, 0.00, -0.00, -1.00, 236.8, 635.4)">d</text><text xml:space="preserve" font-family="Avenir-Light,Avenir" font-size="42.0" fill="#FEFFFF" transform="matrix(1.00, 0.00, -0.00, -1.00, 262.5, 635.4)">e</text><text xml:space="preserve" font-family="Avenir-Light,Avenir" font-size="42.0" fill="#FEFFFF" transform="matrix(1.00, 0.00, -0.00, -1.00, 285.8, 635.4)">s</text><text xml:space="preserve" font-family="Avenir-Light,Avenir" font-size="42.0" fill="#FEFFFF" transform="matrix(1.00, 0.00, -0.00, -1.00, 303.7, 635.4)"> </text><text xml:space="preserve" font-family="Avenir-Light,Avenir" font-size="42.0" fill="#FEFFFF" transform="matrix(1.00, 0.00, -0.00, -1.00, 314.6, 635.4)">m</text><text xml:space="preserve" font-family="Avenir-Light,Avenir" font-size="42.0" fill="#FEFFFF" transform="matrix(1.00, 0.00, -0.00, -1.00, 350.4, 635.4)">o</text><text xml:space="preserve" font-family="Avenir-Light,Avenir" font-size="42.0" fill="#FEFFFF" transform="matrix(1.00, 0.00, -0.00, -1.00, 375.4, 635.4)">b</text><text xml:space="preserve" font-family="Avenir-Light,Avenir" font-size="42.0" fill="#FEFFFF" transform="matrix(1.00, 0.00, -0.00, -1.00, 401.0, 635.4)">i</text><text xml:space="preserve" font-family="Avenir-Light,Avenir" font-size="42.0" fill="#FEFFFF" transform="matrix(1.00, 0.00, -0.00, -1.00, 411.1, 635.4)">l</text><text xml:space="preserve" font-family="Avenir-Light,Avenir" font-size="42.0" fill="#FEFFFF" transform="matrix(1.00, 0.00, -0.00, -1.00, 421.2, 635.4)">e</text><text xml:space="preserve" font-family="Avenir-Light,Avenir" font-size="42.0" fill="#FEFFFF" transform="matrix(1.00, 0.00, -0.00, -1.00, 444.5, 635.4)"> </text><text xml:space="preserve" font-family="Avenir-Light,Avenir" font-size="42.0" fill="#FEFFFF" transform="matrix(1.00, 0.00, -0.00, -1.00, 455.5, 635.4)">a</text><text xml:space="preserve" font-family="Avenir-Light,Avenir" font-size="42.0" fill="#FEFFFF" transform="matrix(1.00, 0.00, -0.00, -1.00, 477.3, 635.4)">c</text><text xml:space="preserve" font-family="Avenir-Light,Avenir" font-size="42.0" fill="#FEFFFF" transform="matrix(1.00, 0.00, -0.00, -1.00, 497.5, 635.4)">c</text><text xml:space="preserve" font-family="Avenir-Light,Avenir" font-size="42.0" fill="#FEFFFF" transform="matrix(1.00, 0.00, -0.00, -1.00, 517.7, 635.4)">e</text><text xml:space="preserve" font-family="Avenir-Light,Avenir" font-size="42.0" fill="#FEFFFF" transform="matrix(1.00, 0.00, -0.00, -1.00, 541.0, 635.4)">s</text><text xml:space="preserve" font-family="Avenir-Light,Avenir" font-size="42.0" fill="#FEFFFF" transform="matrix(1.00, 0.00, -0.00, -1.00, 558.9, 635.4)">s</text><text xml:space="preserve" font-family="Avenir-Light,Avenir" font-size="42.0" fill="#FEFFFF" transform="matrix(1.00, 0.00, -0.00, -1.00, 576.8, 635.4)"> </text><text xml:space="preserve" font-family="Avenir-Light,Avenir" font-size="42.0" fill="#FEFFFF" transform="matrix(1.00, 0.00, -0.00, -1.00, 587.7, 635.4)">t</text><text xml:space="preserve" font-family="Avenir-Light,Avenir" font-size="42.0" fill="#FEFFFF" transform="matrix(1.00, 0.00, -0.00, -1.00, 601.7, 635.4)">o</text><text xml:space="preserve" font-family="Avenir-Light,Avenir" font-size="42.0" fill="#FEFFFF" transform="matrix(1.00, 0.00, -0.00, -1.00, 626.7, 635.4)"> </text><text xml:space="preserve" font-family="Avenir-Light,Avenir" font-size="42.0" fill="#FEFFFF" transform="matrix(1.00, 0.00, -0.00, -1.00, 637.6, 635.4)">t</text><text xml:space="preserve" font-family="Avenir-Light,Avenir" font-size="42.0" fill="#FEFFFF" transform="matrix(1.00, 0.00, -0.00, -1.00, 651.6, 635.4)">h</text><text xml:space="preserve" font-family="Avenir-Light,Avenir" font-size="42.0" fill="#FEFFFF" transform="matrix(1.00, 0.00, -0.00, -1.00, 675.0, 635.4)">e</text><text xml:space="preserve" font-family="Avenir-Light,Avenir" font-size="42.0" fill="#FEFFFF" transform="matrix(1.00, 0.00, -0.00, -1.00, 698.3, 635.4)"> </text><text xml:space="preserve" font-family="Avenir-Light,Avenir" font-size="42.0" fill="#FEFFFF" transform="matrix(1.00, 0.00, -0.00, -1.00, 145.0, 578.4)">T</text><text xml:space="preserve" font-family="Avenir-Light,Avenir" font-size="42.0" fill="#FEFFFF" transform="matrix(1.00, 0.00, -0.00, -1.00, 169.1, 578.4)">h</text><text xml:space="preserve" font-family="Avenir-Light,Avenir" font-size="42.0" fill="#FEFFFF" transform="matrix(1.00, 0.00, -0.00, -1.00, 192.5, 578.4)">o</text><text xml:space="preserve" font-family="Avenir-Light,Avenir" font-size="42.0" fill="#FEFFFF" transform="matrix(1.00, 0.00, -0.00, -1.00, 217.4, 578.4)">m</text><text xml:space="preserve" font-family="Avenir-Light,Avenir" font-size="42.0" fill="#FEFFFF" transform="matrix(1.00, 0.00, -0.00, -1.00, 253.2, 578.4)">a</text><text xml:space="preserve" font-family="Avenir-Light,Avenir" font-size="42.0" fill="#FEFFFF" transform="matrix(1.00, 0.00, -0.00, -1.00, 275.0, 578.4)">s</text><text xml:space="preserve" font-family="Avenir-Light,Avenir" font-size="42.0" fill="#FEFFFF" transform="matrix(1.00, 0.00, -0.00, -1.00, 292.9, 578.4)"> </text><text xml:space="preserve" font-family="Avenir-Light,Avenir" font-size="42.0" fill="#FEFFFF" transform="matrix(1.00, 0.00, -0.00, -1.00, 303.8, 578.4)">D</text><text xml:space="preserve" font-family="Avenir-Light,Avenir" font-size="42.0" fill="#FEFFFF" transform="matrix(1.00, 0.00, -0.00, -1.00, 334.9, 578.4)">e</text><text xml:space="preserve" font-family="Avenir-Light,Avenir" font-size="42.0" fill="#FEFFFF" transform="matrix(1.00, 0.00, -0.00, -1.00, 358.3, 578.4)">a</text><text xml:space="preserve" font-family="Avenir-Light,Avenir" font-size="42.0" fill="#FEFFFF" transform="matrix(1.00, 0.00, -0.00, -1.00, 380.1, 578.4)">c</text><text xml:space="preserve" font-family="Avenir-Light,Avenir" font-size="42.0" fill="#FEFFFF" transform="matrix(1.00, 0.00, -0.00, -1.00, 400.3, 578.4)">o</text><text xml:space="preserve" font-family="Avenir-Light,Avenir" font-size="42.0" fill="#FEFFFF" transform="matrix(1.00, 0.00, -0.00, -1.00, 425.2, 578.4)">n</text><text xml:space="preserve" font-family="Avenir-Light,Avenir" font-size="42.0" fill="#FEFFFF" transform="matrix(1.00, 0.00, -0.00, -1.00, 448.6, 578.4)"> </text><text xml:space="preserve" font-family="Avenir-Light,Avenir" font-size="42.0" fill="#FEFFFF" transform="matrix(1.00, 0.00, -0.00, -1.00, 459.5, 578.4)">A</text><text xml:space="preserve" font-family="Avenir-Light,Avenir" font-size="42.0" fill="#FEFFFF" transform="matrix(1.00, 0.00, -0.00, -1.00, 488.3, 578.4)">c</text><text xml:space="preserve" font-family="Avenir-Light,Avenir" font-size="42.0" fill="#FEFFFF" transform="matrix(1.00, 0.00, -0.00, -1.00, 508.5, 578.4)">a</text><text xml:space="preserve" font-family="Avenir-Light,Avenir" font-size="42.0" fill="#FEFFFF" transform="matrix(1.00, 0.00, -0.00, -1.00, 530.3, 578.4)">d</text><text xml:space="preserve" font-family="Avenir-Light,Avenir" font-size="42.0" fill="#FEFFFF" transform="matrix(1.00, 0.00, -0.00, -1.00, 555.9, 578.4)">e</text><text xml:space="preserve" font-family="Avenir-Light,Avenir" font-size="42.0" fill="#FEFFFF" transform="matrix(1.00, 0.00, -0.00, -1.00, 579.3, 578.4)">m</text><text xml:space="preserve" font-family="Avenir-Light,Avenir" font-size="42.0" fill="#FEFFFF" transform="matrix(1.00, 0.00, -0.00, -1.00, 615.1, 578.4)">y</text><text xml:space="preserve" font-family="Avenir-Light,Avenir" font-size="42.0" fill="#FEFFFF" transform="matrix(1.00, 0.00, -0.00, -1.00, 634.5, 578.4)"> </text><text xml:space="preserve" font-family="Avenir-Light,Avenir" font-size="42.0" fill="#FEFFFF" transform="matrix(1.00, 0.00, -0.00, -1.00, 645.4, 578.4)">w</text><text xml:space="preserve" font-family="Avenir-Light,Avenir" font-size="42.0" fill="#FEFFFF" transform="matrix(1.00, 0.00, -0.00, -1.00, 675.0, 578.4)">e</text><text xml:space="preserve" font-family="Avenir-Light,Avenir" font-size="42.0" fill="#FEFFFF" transform="matrix(1.00, 0.00, -0.00, -1.00, 698.3, 578.4)">b</text><text xml:space="preserve" font-family="Avenir-Light,Avenir" font-size="42.0" fill="#FEFFFF" transform="matrix(1.00, 0.00, -0.00, -1.00, 724.0, 578.4)">s</text><text xml:space="preserve" font-family="Avenir-Light,Avenir" font-size="42.0" fill="#FEFFFF" transform="matrix(1.00, 0.00, -0.00, -1.00, 741.9, 578.4)">i</text><text xml:space="preserve" font-family="Avenir-Light,Avenir" font-size="42.0" fill="#FEFFFF" transform="matrix(1.00, 0.00, -0.00, -1.00, 752.0, 578.4)">t</text><text xml:space="preserve" font-family="Avenir-Light,Avenir" font-size="42.0" fill="#FEFFFF" transform="matrix(1.00, 0.00, -0.00, -1.00, 766.0, 578.4)">e</text><text xml:space="preserve" font-family="Avenir-Light,Avenir" font-size="42.0" fill="#FEFFFF" transform="matrix(1.00, 0.00, -0.00, -1.00, 789.3, 578.4)"> </text><text xml:space="preserve" font-family="Avenir-Light,Avenir" font-size="37.8" fill="#646363" transform="matrix(1.00, 0.00, -0.00, -1.00, 145.0, 477.3)">•</text><text xml:space="preserve" font-family="Avenir-Light,Avenir" font-size="42.0" fill="#FEFFFF" transform="matrix(1.00, 0.00, -0.00, -1.00, 188.0, 476.4)">A</text><text xml:space="preserve" font-family="Avenir-Light,Avenir" font-size="42.0" fill="#FEFFFF" transform="matrix(1.00, 0.00, -0.00, -1.00, 216.8, 476.4)">l</text><text xml:space="preserve" font-family="Avenir-Light,Avenir" font-size="42.0" fill="#FEFFFF" transform="matrix(1.00, 0.00, -0.00, -1.00, 226.9, 476.4)">l</text><text xml:space="preserve" font-family="Avenir-Light,Avenir" font-size="42.0" fill="#FEFFFF" transform="matrix(1.00, 0.00, -0.00, -1.00, 237.0, 476.4)">o</text><text xml:space="preserve" font-family="Avenir-Light,Avenir" font-size="42.0" fill="#FEFFFF" transform="matrix(1.00, 0.00, -0.00, -1.00, 261.9, 476.4)">w</text><text xml:space="preserve" font-family="Avenir-Light,Avenir" font-size="42.0" fill="#FEFFFF" transform="matrix(1.00, 0.00, -0.00, -1.00, 291.5, 476.4)">s</text><text xml:space="preserve" font-family="Avenir-Light,Avenir" font-size="42.0" fill="#FEFFFF" transform="matrix(1.00, 0.00, -0.00, -1.00, 309.4, 476.4)"> </text><text xml:space="preserve" font-family="Avenir-Light,Avenir" font-size="42.0" fill="#FEFFFF" transform="matrix(1.00, 0.00, -0.00, -1.00, 320.3, 476.4)">s</text><text xml:space="preserve" font-family="Avenir-Light,Avenir" font-size="42.0" fill="#FEFFFF" transform="matrix(1.00, 0.00, -0.00, -1.00, 338.2, 476.4)">t</text><text xml:space="preserve" font-family="Avenir-Light,Avenir" font-size="42.0" fill="#FEFFFF" transform="matrix(1.00, 0.00, -0.00, -1.00, 352.2, 476.4)">u</text><text xml:space="preserve" font-family="Avenir-Light,Avenir" font-size="42.0" fill="#FEFFFF" transform="matrix(1.00, 0.00, -0.00, -1.00, 375.5, 476.4)">d</text><text xml:space="preserve" font-family="Avenir-Light,Avenir" font-size="42.0" fill="#FEFFFF" transform="matrix(1.00, 0.00, -0.00, -1.00, 401.2, 476.4)">e</text><text xml:space="preserve" font-family="Avenir-Light,Avenir" font-size="42.0" fill="#FEFFFF" transform="matrix(1.00, 0.00, -0.00, -1.00, 424.5, 476.4)">n</text><text xml:space="preserve" font-family="Avenir-Light,Avenir" font-size="42.0" fill="#FEFFFF" transform="matrix(1.00, 0.00, -0.00, -1.00, 447.9, 476.4)">t</text><text xml:space="preserve" font-family="Avenir-Light,Avenir" font-size="42.0" fill="#FEFFFF" transform="matrix(1.00, 0.00, -0.00, -1.00, 461.9, 476.4)">s</text><text xml:space="preserve" font-family="Avenir-Light,Avenir" font-size="42.0" fill="#FEFFFF" transform="matrix(1.00, 0.00, -0.00, -1.00, 479.8, 476.4)"> </text><text xml:space="preserve" font-family="Avenir-Light,Avenir" font-size="42.0" fill="#FEFFFF" transform="matrix(1.00, 0.00, -0.00, -1.00, 490.7, 476.4)">t</text><text xml:space="preserve" font-family="Avenir-Light,Avenir" font-size="42.0" fill="#FEFFFF" transform="matrix(1.00, 0.00, -0.00, -1.00, 504.7, 476.4)">o</text><text xml:space="preserve" font-family="Avenir-Light,Avenir" font-size="42.0" fill="#FEFFFF" transform="matrix(1.00, 0.00, -0.00, -1.00, 529.6, 476.4)"> </text><text xml:space="preserve" font-family="Avenir-Light,Avenir" font-size="42.0" fill="#FEFFFF" transform="matrix(1.00, 0.00, -0.00, -1.00, 540.5, 476.4)">a</text><text xml:space="preserve" font-family="Avenir-Light,Avenir" font-size="42.0" fill="#FEFFFF" transform="matrix(1.00, 0.00, -0.00, -1.00, 562.3, 476.4)">c</text><text xml:space="preserve" font-family="Avenir-Light,Avenir" font-size="42.0" fill="#FEFFFF" transform="matrix(1.00, 0.00, -0.00, -1.00, 582.5, 476.4)">c</text><text xml:space="preserve" font-family="Avenir-Light,Avenir" font-size="42.0" fill="#FEFFFF" transform="matrix(1.00, 0.00, -0.00, -1.00, 602.8, 476.4)">e</text><text xml:space="preserve" font-family="Avenir-Light,Avenir" font-size="42.0" fill="#FEFFFF" transform="matrix(1.00, 0.00, -0.00, -1.00, 626.1, 476.4)">s</text><text xml:space="preserve" font-family="Avenir-Light,Avenir" font-size="42.0" fill="#FEFFFF" transform="matrix(1.00, 0.00, -0.00, -1.00, 644.0, 476.4)">s</text><text xml:space="preserve" font-family="Avenir-Light,Avenir" font-size="42.0" fill="#FEFFFF" transform="matrix(1.00, 0.00, -0.00, -1.00, 661.9, 476.4)"> </text><text xml:space="preserve" font-family="Avenir-Light,Avenir" font-size="42.0" fill="#FEFFFF" transform="matrix(1.00, 0.00, -0.00, -1.00, 188.0, 419.4)">i</text><text xml:space="preserve" font-family="Avenir-Light,Avenir" font-size="42.0" fill="#FEFFFF" transform="matrix(1.00, 0.00, -0.00, -1.00, 198.1, 419.4)">n</text><text xml:space="preserve" font-family="Avenir-Light,Avenir" font-size="42.0" fill="#FEFFFF" transform="matrix(1.00, 0.00, -0.00, -1.00, 221.4, 419.4)">f</text><text xml:space="preserve" font-family="Avenir-Light,Avenir" font-size="42.0" fill="#FEFFFF" transform="matrix(1.00, 0.00, -0.00, -1.00, 233.9, 419.4)">o</text><text xml:space="preserve" font-family="Avenir-Light,Avenir" font-size="42.0" fill="#FEFFFF" transform="matrix(1.00, 0.00, -0.00, -1.00, 258.8, 419.4)">r</text><text xml:space="preserve" font-family="Avenir-Light,Avenir" font-size="42.0" fill="#FEFFFF" transform="matrix(1.00, 0.00, -0.00, -1.00, 272.8, 419.4)">m</text><text xml:space="preserve" font-family="Avenir-Light,Avenir" font-size="42.0" fill="#FEFFFF" transform="matrix(1.00, 0.00, -0.00, -1.00, 308.6, 419.4)">a</text><text xml:space="preserve" font-family="Avenir-Light,Avenir" font-size="42.0" fill="#FEFFFF" transform="matrix(1.00, 0.00, -0.00, -1.00, 330.4, 419.4)">t</text><text xml:space="preserve" font-family="Avenir-Light,Avenir" font-size="42.0" fill="#FEFFFF" transform="matrix(1.00, 0.00, -0.00, -1.00, 344.4, 419.4)">i</text><text xml:space="preserve" font-family="Avenir-Light,Avenir" font-size="42.0" fill="#FEFFFF" transform="matrix(1.00, 0.00, -0.00, -1.00, 354.5, 419.4)">o</text><text xml:space="preserve" font-family="Avenir-Light,Avenir" font-size="42.0" fill="#FEFFFF" transform="matrix(1.00, 0.00, -0.00, -1.00, 379.4, 419.4)">n</text><text xml:space="preserve" font-family="Avenir-Light,Avenir" font-size="42.0" fill="#FEFFFF" transform="matrix(1.00, 0.00, -0.00, -1.00, 402.8, 419.4)"> </text><text xml:space="preserve" font-family="Avenir-Light,Avenir" font-size="42.0" fill="#FEFFFF" transform="matrix(1.00, 0.00, -0.00, -1.00, 413.7, 419.4)">f</text><text xml:space="preserve" font-family="Avenir-Light,Avenir" font-size="42.0" fill="#FEFFFF" transform="matrix(1.00, 0.00, -0.00, -1.00, 426.1, 419.4)">r</text><text xml:space="preserve" font-family="Avenir-Light,Avenir" font-size="42.0" fill="#FEFFFF" transform="matrix(1.00, 0.00, -0.00, -1.00, 439.4, 419.4)">o</text><text xml:space="preserve" font-family="Avenir-Light,Avenir" font-size="42.0" fill="#FEFFFF" transform="matrix(1.00, 0.00, -0.00, -1.00, 464.3, 419.4)">m</text><text xml:space="preserve" font-family="Avenir-Light,Avenir" font-size="42.0" fill="#FEFFFF" transform="matrix(1.00, 0.00, -0.00, -1.00, 500.1, 419.4)"> </text><text xml:space="preserve" font-family="Avenir-Light,Avenir" font-size="42.0" fill="#FEFFFF" transform="matrix(1.00, 0.00, -0.00, -1.00, 511.0, 419.4)">t</text><text xml:space="preserve" font-family="Avenir-Light,Avenir" font-size="42.0" fill="#FEFFFF" transform="matrix(1.00, 0.00, -0.00, -1.00, 525.0, 419.4)">h</text><text xml:space="preserve" font-family="Avenir-Light,Avenir" font-size="42.0" fill="#FEFFFF" transform="matrix(1.00, 0.00, -0.00, -1.00, 548.4, 419.4)">e</text><text xml:space="preserve" font-family="Avenir-Light,Avenir" font-size="42.0" fill="#FEFFFF" transform="matrix(1.00, 0.00, -0.00, -1.00, 571.8, 419.4)"> </text><text xml:space="preserve" font-family="Avenir-Light,Avenir" font-size="42.0" fill="#FEFFFF" transform="matrix(1.00, 0.00, -0.00, -1.00, 582.7, 419.4)">s</text><text xml:space="preserve" font-family="Avenir-Light,Avenir" font-size="42.0" fill="#FEFFFF" transform="matrix(1.00, 0.00, -0.00, -1.00, 600.6, 419.4)">c</text><text xml:space="preserve" font-family="Avenir-Light,Avenir" font-size="42.0" fill="#FEFFFF" transform="matrix(1.00, 0.00, -0.00, -1.00, 620.8, 419.4)">h</text><text xml:space="preserve" font-family="Avenir-Light,Avenir" font-size="42.0" fill="#FEFFFF" transform="matrix(1.00, 0.00, -0.00, -1.00, 644.1, 419.4)">o</text><text xml:space="preserve" font-family="Avenir-Light,Avenir" font-size="42.0" fill="#FEFFFF" transform="matrix(1.00, 0.00, -0.00, -1.00, 669.1, 419.4)">o</text><text xml:space="preserve" font-family="Avenir-Light,Avenir" font-size="42.0" fill="#FEFFFF" transform="matrix(1.00, 0.00, -0.00, -1.00, 694.0, 419.4)">l</text><text xml:space="preserve" font-family="Avenir-Light,Avenir" font-size="42.0" fill="#FEFFFF" transform="matrix(1.00, 0.00, -0.00, -1.00, 704.1, 419.4)">'</text><text xml:space="preserve" font-family="Avenir-Light,Avenir" font-size="42.0" fill="#FEFFFF" transform="matrix(1.00, 0.00, -0.00, -1.00, 715.1, 419.4)">s</text><text xml:space="preserve" font-family="Avenir-Light,Avenir" font-size="42.0" fill="#FEFFFF" transform="matrix(1.00, 0.00, -0.00, -1.00, 732.9, 419.4)"> </text><text xml:space="preserve" font-family="Avenir-Light,Avenir" font-size="42.0" fill="#FEFFFF" transform="matrix(1.00, 0.00, -0.00, -1.00, 188.0, 362.4)">w</text><text xml:space="preserve" font-family="Avenir-Light,Avenir" font-size="42.0" fill="#FEFFFF" transform="matrix(1.00, 0.00, -0.00, -1.00, 217.6, 362.4)">e</text><text xml:space="preserve" font-family="Avenir-Light,Avenir" font-size="42.0" fill="#FEFFFF" transform="matrix(1.00, 0.00, -0.00, -1.00, 240.9, 362.4)">b</text><text xml:space="preserve" font-family="Avenir-Light,Avenir" font-size="42.0" fill="#FEFFFF" transform="matrix(1.00, 0.00, -0.00, -1.00, 266.6, 362.4)">s</text><text xml:space="preserve" font-family="Avenir-Light,Avenir" font-size="42.0" fill="#FEFFFF" transform="matrix(1.00, 0.00, -0.00, -1.00, 284.5, 362.4)">i</text><text xml:space="preserve" font-family="Avenir-Light,Avenir" font-size="42.0" fill="#FEFFFF" transform="matrix(1.00, 0.00, -0.00, -1.00, 294.6, 362.4)">t</text><text xml:space="preserve" font-family="Avenir-Light,Avenir" font-size="42.0" fill="#FEFFFF" transform="matrix(1.00, 0.00, -0.00, -1.00, 308.5, 362.4)">e</text><text xml:space="preserve" font-family="Avenir-Light,Avenir" font-size="42.0" fill="#FEFFFF" transform="matrix(1.00, 0.00, -0.00, -1.00, 331.9, 362.4)"> </text><text xml:space="preserve" font-family="Avenir-Light,Avenir" font-size="42.0" fill="#FEFFFF" transform="matrix(1.00, 0.00, -0.00, -1.00, 342.8, 362.4)">o</text><text xml:space="preserve" font-family="Avenir-Light,Avenir" font-size="42.0" fill="#FEFFFF" transform="matrix(1.00, 0.00, -0.00, -1.00, 367.8, 362.4)">n</text><text xml:space="preserve" font-family="Avenir-Light,Avenir" font-size="42.0" fill="#FEFFFF" transform="matrix(1.00, 0.00, -0.00, -1.00, 391.1, 362.4)"> </text><text xml:space="preserve" font-family="Avenir-Light,Avenir" font-size="42.0" fill="#FEFFFF" transform="matrix(1.00, 0.00, -0.00, -1.00, 402.0, 362.4)">t</text><text xml:space="preserve" font-family="Avenir-Light,Avenir" font-size="42.0" fill="#FEFFFF" transform="matrix(1.00, 0.00, -0.00, -1.00, 416.1, 362.4)">h</text><text xml:space="preserve" font-family="Avenir-Light,Avenir" font-size="42.0" fill="#FEFFFF" transform="matrix(1.00, 0.00, -0.00, -1.00, 439.4, 362.4)">e</text><text xml:space="preserve" font-family="Avenir-Light,Avenir" font-size="42.0" fill="#FEFFFF" transform="matrix(1.00, 0.00, -0.00, -1.00, 462.8, 362.4)">i</text><text xml:space="preserve" font-family="Avenir-Light,Avenir" font-size="42.0" fill="#FEFFFF" transform="matrix(1.00, 0.00, -0.00, -1.00, 472.8, 362.4)">r</text><text xml:space="preserve" font-family="Avenir-Light,Avenir" font-size="42.0" fill="#FEFFFF" transform="matrix(1.00, 0.00, -0.00, -1.00, 486.8, 362.4)"> </text><text xml:space="preserve" font-family="Avenir-Light,Avenir" font-size="42.0" fill="#FEFFFF" transform="matrix(1.00, 0.00, -0.00, -1.00, 497.7, 362.4)">m</text><text xml:space="preserve" font-family="Avenir-Light,Avenir" font-size="42.0" fill="#FEFFFF" transform="matrix(1.00, 0.00, -0.00, -1.00, 533.5, 362.4)">o</text><text xml:space="preserve" font-family="Avenir-Light,Avenir" font-size="42.0" fill="#FEFFFF" transform="matrix(1.00, 0.00, -0.00, -1.00, 558.5, 362.4)">b</text><text xml:space="preserve" font-family="Avenir-Light,Avenir" font-size="42.0" fill="#FEFFFF" transform="matrix(1.00, 0.00, -0.00, -1.00, 584.1, 362.4)">i</text><text xml:space="preserve" font-family="Avenir-Light,Avenir" font-size="42.0" fill="#FEFFFF" transform="matrix(1.00, 0.00, -0.00, -1.00, 594.2, 362.4)">l</text><text xml:space="preserve" font-family="Avenir-Light,Avenir" font-size="42.0" fill="#FEFFFF" transform="matrix(1.00, 0.00, -0.00, -1.00, 604.3, 362.4)">e</text><text xml:space="preserve" font-family="Avenir-Light,Avenir" font-size="42.0" fill="#FEFFFF" transform="matrix(1.00, 0.00, -0.00, -1.00, 627.7, 362.4)"> </text><text xml:space="preserve" font-family="Avenir-Light,Avenir" font-size="42.0" fill="#FEFFFF" transform="matrix(1.00, 0.00, -0.00, -1.00, 638.6, 362.4)">d</text><text xml:space="preserve" font-family="Avenir-Light,Avenir" font-size="42.0" fill="#FEFFFF" transform="matrix(1.00, 0.00, -0.00, -1.00, 664.2, 362.4)">e</text><text xml:space="preserve" font-family="Avenir-Light,Avenir" font-size="42.0" fill="#FEFFFF" transform="matrix(1.00, 0.00, -0.00, -1.00, 687.6, 362.4)">v</text><text xml:space="preserve" font-family="Avenir-Light,Avenir" font-size="42.0" fill="#FEFFFF" transform="matrix(1.00, 0.00, -0.00, -1.00, 707.0, 362.4)">i</text><text xml:space="preserve" font-family="Avenir-Light,Avenir" font-size="42.0" fill="#FEFFFF" transform="matrix(1.00, 0.00, -0.00, -1.00, 717.1, 362.4)">c</text><text xml:space="preserve" font-family="Avenir-Light,Avenir" font-size="42.0" fill="#FEFFFF" transform="matrix(1.00, 0.00, -0.00, -1.00, 737.3, 362.4)">e</text><text xml:space="preserve" font-family="Avenir-Light,Avenir" font-size="42.0" fill="#FEFFFF" transform="matrix(1.00, 0.00, -0.00, -1.00, 760.7, 362.4)"> </text><text xml:space="preserve" font-family="Avenir-Light,Avenir" font-size="37.8" fill="#646363" transform="matrix(1.00, 0.00, -0.00, -1.00, 145.0, 261.3)">•</text><text xml:space="preserve" font-family="Avenir-Light,Avenir" font-size="42.0" fill="#FEFFFF" transform="matrix(1.00, 0.00, -0.00, -1.00, 188.0, 260.4)">I</text><text xml:space="preserve" font-family="Avenir-Light,Avenir" font-size="42.0" fill="#FEFFFF" transform="matrix(1.00, 0.00, -0.00, -1.00, 198.9, 260.4)">n</text><text xml:space="preserve" font-family="Avenir-Light,Avenir" font-size="42.0" fill="#FEFFFF" transform="matrix(1.00, 0.00, -0.00, -1.00, 222.3, 260.4)">f</text><text xml:space="preserve" font-family="Avenir-Light,Avenir" font-size="42.0" fill="#FEFFFF" transform="matrix(1.00, 0.00, -0.00, -1.00, 234.7, 260.4)">o</text><text xml:space="preserve" font-family="Avenir-Light,Avenir" font-size="42.0" fill="#FEFFFF" transform="matrix(1.00, 0.00, -0.00, -1.00, 259.7, 260.4)">r</text><text xml:space="preserve" font-family="Avenir-Light,Avenir" font-size="42.0" fill="#FEFFFF" transform="matrix(1.00, 0.00, -0.00, -1.00, 273.6, 260.4)">m</text><text xml:space="preserve" font-family="Avenir-Light,Avenir" font-size="42.0" fill="#FEFFFF" transform="matrix(1.00, 0.00, -0.00, -1.00, 309.4, 260.4)">a</text><text xml:space="preserve" font-family="Avenir-Light,Avenir" font-size="42.0" fill="#FEFFFF" transform="matrix(1.00, 0.00, -0.00, -1.00, 331.2, 260.4)">t</text><text xml:space="preserve" font-family="Avenir-Light,Avenir" font-size="42.0" fill="#FEFFFF" transform="matrix(1.00, 0.00, -0.00, -1.00, 345.2, 260.4)">i</text><text xml:space="preserve" font-family="Avenir-Light,Avenir" font-size="42.0" fill="#FEFFFF" transform="matrix(1.00, 0.00, -0.00, -1.00, 355.3, 260.4)">o</text><text xml:space="preserve" font-family="Avenir-Light,Avenir" font-size="42.0" fill="#FEFFFF" transform="matrix(1.00, 0.00, -0.00, -1.00, 380.3, 260.4)">n</text><text xml:space="preserve" font-family="Avenir-Light,Avenir" font-size="42.0" fill="#FEFFFF" transform="matrix(1.00, 0.00, -0.00, -1.00, 403.6, 260.4)"> </text><text xml:space="preserve" font-family="Avenir-Light,Avenir" font-size="42.0" fill="#FEFFFF" transform="matrix(1.00, 0.00, -0.00, -1.00, 414.5, 260.4)">s</text><text xml:space="preserve" font-family="Avenir-Light,Avenir" font-size="42.0" fill="#FEFFFF" transform="matrix(1.00, 0.00, -0.00, -1.00, 432.4, 260.4)">u</text><text xml:space="preserve" font-family="Avenir-Light,Avenir" font-size="42.0" fill="#FEFFFF" transform="matrix(1.00, 0.00, -0.00, -1.00, 455.8, 260.4)">c</text><text xml:space="preserve" font-family="Avenir-Light,Avenir" font-size="42.0" fill="#FEFFFF" transform="matrix(1.00, 0.00, -0.00, -1.00, 476.0, 260.4)">h</text><text xml:space="preserve" font-family="Avenir-Light,Avenir" font-size="42.0" fill="#FEFFFF" transform="matrix(1.00, 0.00, -0.00, -1.00, 499.3, 260.4)"> </text><text xml:space="preserve" font-family="Avenir-Light,Avenir" font-size="42.0" fill="#FEFFFF" transform="matrix(1.00, 0.00, -0.00, -1.00, 510.3, 260.4)">a</text><text xml:space="preserve" font-family="Avenir-Light,Avenir" font-size="42.0" fill="#FEFFFF" transform="matrix(1.00, 0.00, -0.00, -1.00, 532.1, 260.4)">s</text><text xml:space="preserve" font-family="Avenir-Light,Avenir" font-size="42.0" fill="#FEFFFF" transform="matrix(1.00, 0.00, -0.00, -1.00, 550.0, 260.4)"> </text><text xml:space="preserve" font-family="Avenir-Light,Avenir" font-size="42.0" fill="#FEFFFF" transform="matrix(1.00, 0.00, -0.00, -1.00, 560.9, 260.4)">t</text><text xml:space="preserve" font-family="Avenir-Light,Avenir" font-size="42.0" fill="#FEFFFF" transform="matrix(1.00, 0.00, -0.00, -1.00, 574.9, 260.4)">e</text><text xml:space="preserve" font-family="Avenir-Light,Avenir" font-size="42.0" fill="#FEFFFF" transform="matrix(1.00, 0.00, -0.00, -1.00, 598.2, 260.4)">r</text><text xml:space="preserve" font-family="Avenir-Light,Avenir" font-size="42.0" fill="#FEFFFF" transform="matrix(1.00, 0.00, -0.00, -1.00, 612.2, 260.4)">m</text><text xml:space="preserve" font-family="Avenir-Light,Avenir" font-size="42.0" fill="#FEFFFF" transform="matrix(1.00, 0.00, -0.00, -1.00, 648.0, 260.4)"> </text><text xml:space="preserve" font-family="Avenir-Light,Avenir" font-size="42.0" fill="#FEFFFF" transform="matrix(1.00, 0.00, -0.00, -1.00, 658.9, 260.4)">d</text><text xml:space="preserve" font-family="Avenir-Light,Avenir" font-size="42.0" fill="#FEFFFF" transform="matrix(1.00, 0.00, -0.00, -1.00, 684.6, 260.4)">a</text><text xml:space="preserve" font-family="Avenir-Light,Avenir" font-size="42.0" fill="#FEFFFF" transform="matrix(1.00, 0.00, -0.00, -1.00, 706.4, 260.4)">t</text><text xml:space="preserve" font-family="Avenir-Light,Avenir" font-size="42.0" fill="#FEFFFF" transform="matrix(1.00, 0.00, -0.00, -1.00, 720.3, 260.4)">e</text><text xml:space="preserve" font-family="Avenir-Light,Avenir" font-size="42.0" fill="#FEFFFF" transform="matrix(1.00, 0.00, -0.00, -1.00, 743.7, 260.4)">s</text><text xml:space="preserve" font-family="Avenir-Light,Avenir" font-size="42.0" fill="#FEFFFF" transform="matrix(1.00, 0.00, -0.00, -1.00, 761.6, 260.4)"> </text><text xml:space="preserve" font-family="Avenir-Light,Avenir" font-size="42.0" fill="#FEFFFF" transform="matrix(1.00, 0.00, -0.00, -1.00, 772.5, 260.4)">a</text><text xml:space="preserve" font-family="Avenir-Light,Avenir" font-size="42.0" fill="#FEFFFF" transform="matrix(1.00, 0.00, -0.00, -1.00, 794.3, 260.4)">r</text><text xml:space="preserve" font-family="Avenir-Light,Avenir" font-size="42.0" fill="#FEFFFF" transform="matrix(1.00, 0.00, -0.00, -1.00, 807.5, 260.4)">e</text><text xml:space="preserve" font-family="Avenir-Light,Avenir" font-size="42.0" fill="#FEFFFF" transform="matrix(1.00, 0.00, -0.00, -1.00, 830.9, 260.4)"> </text><text xml:space="preserve" font-family="Avenir-Light,Avenir" font-size="42.0" fill="#FEFFFF" transform="matrix(1.00, 0.00, -0.00, -1.00, 188.0, 203.4)">a</text><text xml:space="preserve" font-family="Avenir-Light,Avenir" font-size="42.0" fill="#FEFFFF" transform="matrix(1.00, 0.00, -0.00, -1.00, 209.8, 203.4)">v</text><text xml:space="preserve" font-family="Avenir-Light,Avenir" font-size="42.0" fill="#FEFFFF" transform="matrix(1.00, 0.00, -0.00, -1.00, 229.2, 203.4)">a</text><text xml:space="preserve" font-family="Avenir-Light,Avenir" font-size="42.0" fill="#FEFFFF" transform="matrix(1.00, 0.00, -0.00, -1.00, 251.0, 203.4)">i</text><text xml:space="preserve" font-family="Avenir-Light,Avenir" font-size="42.0" fill="#FEFFFF" transform="matrix(1.00, 0.00, -0.00, -1.00, 261.1, 203.4)">l</text><text xml:space="preserve" font-family="Avenir-Light,Avenir" font-size="42.0" fill="#FEFFFF" transform="matrix(1.00, 0.00, -0.00, -1.00, 271.2, 203.4)">a</text><text xml:space="preserve" font-family="Avenir-Light,Avenir" font-size="42.0" fill="#FEFFFF" transform="matrix(1.00, 0.00, -0.00, -1.00, 293.0, 203.4)">b</text><text xml:space="preserve" font-family="Avenir-Light,Avenir" font-size="42.0" fill="#FEFFFF" transform="matrix(1.00, 0.00, -0.00, -1.00, 318.7, 203.4)">l</text><text xml:space="preserve" font-family="Avenir-Light,Avenir" font-size="42.0" fill="#FEFFFF" transform="matrix(1.00, 0.00, -0.00, -1.00, 328.7, 203.4)">e</text><text xml:space="preserve" font-family="Avenir-Light,Avenir" font-size="42.0" fill="#FEFFFF" transform="matrix(1.00, 0.00, -0.00, -1.00, 352.1, 203.4)"> </text><text xml:space="preserve" font-family="Avenir-Light,Avenir" font-size="42.0" fill="#FEFFFF" transform="matrix(1.00, 0.00, -0.00, -1.00, 363.0, 203.4)">f</text><text xml:space="preserve" font-family="Avenir-Light,Avenir" font-size="42.0" fill="#FEFFFF" transform="matrix(1.00, 0.00, -0.00, -1.00, 375.4, 203.4)">o</text><text xml:space="preserve" font-family="Avenir-Light,Avenir" font-size="42.0" fill="#FEFFFF" transform="matrix(1.00, 0.00, -0.00, -1.00, 400.4, 203.4)">r</text><text xml:space="preserve" font-family="Avenir-Light,Avenir" font-size="42.0" fill="#FEFFFF" transform="matrix(1.00, 0.00, -0.00, -1.00, 414.4, 203.4)"> </text><text xml:space="preserve" font-family="Avenir-Light,Avenir" font-size="42.0" fill="#FEFFFF" transform="matrix(1.00, 0.00, -0.00, -1.00, 425.3, 203.4)">s</text><text xml:space="preserve" font-family="Avenir-Light,Avenir" font-size="42.0" fill="#FEFFFF" transform="matrix(1.00, 0.00, -0.00, -1.00, 443.2, 203.4)">t</text><text xml:space="preserve" font-family="Avenir-Light,Avenir" font-size="42.0" fill="#FEFFFF" transform="matrix(1.00, 0.00, -0.00, -1.00, 457.2, 203.4)">u</text><text xml:space="preserve" font-family="Avenir-Light,Avenir" font-size="42.0" fill="#FEFFFF" transform="matrix(1.00, 0.00, -0.00, -1.00, 480.5, 203.4)">d</text><text xml:space="preserve" font-family="Avenir-Light,Avenir" font-size="42.0" fill="#FEFFFF" transform="matrix(1.00, 0.00, -0.00, -1.00, 506.2, 203.4)">e</text><text xml:space="preserve" font-family="Avenir-Light,Avenir" font-size="42.0" fill="#FEFFFF" transform="matrix(1.00, 0.00, -0.00, -1.00, 529.5, 203.4)">n</text><text xml:space="preserve" font-family="Avenir-Light,Avenir" font-size="42.0" fill="#FEFFFF" transform="matrix(1.00, 0.00, -0.00, -1.00, 552.9, 203.4)">t</text><text xml:space="preserve" font-family="Avenir-Light,Avenir" font-size="42.0" fill="#FEFFFF" transform="matrix(1.00, 0.00, -0.00, -1.00, 566.9, 203.4)">s</text><image xlink:href="../../132DA627-8BCB-42CD-919C-61120F12FE71/assets/1F1A784D35C2A3F5AD6C39C5E823716F.png" width="640.00" height="1136.00" transform="matrix(0.95, 0.00, -0.00, -0.95, 1138.0, 1080.0)"></image></g></svg>